<svg id="Calque_1" data-name="Calque 1" xmlns="http://www.w3.org/2000/svg" viewBox="0 0 155.91 155.91"><defs><style>.cls-1{fill:#009640;}.cls-1,.cls-2,.cls-3,.cls-4,.cls-5,.cls-6,.cls-7{fill-rule:evenodd;}.cls-2{fill:#2d2b6f;}.cls-3{fill:#8ec89a;}.cls-4{fill:#fff;}.cls-5{fill:#cce5ce;}.cls-6{fill:#aeddea;}.cls-7{fill:#f18b6d;}</style></defs><path class="cls-1" d="M24.33,105.72l-2.88-2a4.37,4.37,0,0,1-.59-2.34l0-46.59a10.74,10.74,0,0,1,4.87-8.43L91.38,8.54a3.49,3.49,0,0,1,3.44-.33l2.88,2a3.49,3.49,0,0,0-3.44.34L28.63,48.36a10.82,10.82,0,0,0-4.87,8.44l0,46.58A4.37,4.37,0,0,0,24.33,105.72Z"/><path class="cls-2" d="M22.16,103.11l.65.44a.61.61,0,0,0,0-.14l0-46.61a11.76,11.76,0,0,1,5.32-9.24L93.79,9.69a7.72,7.72,0,0,1,.91-.43L94.3,9c-.62-.32-1.36-.23-2.46.37L26.22,47.21a9.78,9.78,0,0,0-4.4,7.65l0,46.56a3.52,3.52,0,0,0,.36,1.69Zm2.17,3.55a1,1,0,0,1-.53-.17l-2.87-2a.83.83,0,0,1-.29-.3,5.31,5.31,0,0,1-.72-2.79l0-46.61a11.64,11.64,0,0,1,5.32-9.23L90.91,7.73a4.45,4.45,0,0,1,4.35-.35l3,2a.94.94,0,0,1-1,1.6,2.52,2.52,0,0,0-2.55.33L29.1,49.18a9.75,9.75,0,0,0-4.4,7.64l0,46.56a3.39,3.39,0,0,0,.46,1.86.95.95,0,0,1-.81,1.42Z"/><path class="cls-3" d="M28.63,48.36,94.26,10.51c2.68-1.55,4.87-.28,4.87,2.8l0,46.6a10.82,10.82,0,0,1-4.87,8.43L28.61,106.2c-2.68,1.55-4.87.28-4.87-2.82l0-46.58A10.8,10.8,0,0,1,28.63,48.36Z"/><path class="cls-2" d="M28.63,48.36h0Zm67.8-37.58a3.53,3.53,0,0,0-1.7.54L29.1,49.18h0a9.85,9.85,0,0,0-4.4,7.62l0,46.58a2.59,2.59,0,0,0,1,2.34,2.6,2.6,0,0,0,2.5-.33L93.77,67.53a9.91,9.91,0,0,0,4.4-7.62l0-46.6a2.59,2.59,0,0,0-1-2.33,1.61,1.61,0,0,0-.8-.2Zm-70,97a3.51,3.51,0,0,1-1.75-.45,4.34,4.34,0,0,1-1.9-4l0-46.58a11.82,11.82,0,0,1,5.33-9.25L93.79,9.69a4.3,4.3,0,0,1,4.38-.33,4.31,4.31,0,0,1,1.9,4v46.6a11.69,11.69,0,0,1-5.35,9.24L29.08,107A5.26,5.26,0,0,1,26.45,107.8Z"/><path class="cls-4" d="M28.92,51.86l17.29-10L94,14.33c1.23-.71,2.22-.13,2.22,1.3V61A5,5,0,0,1,94,64.85L40.06,95.93,28.9,102.37c-1.22.7-2.22.13-2.22-1.29l0-45.36A4.92,4.92,0,0,1,28.92,51.86Z"/><path class="cls-2" d="M28.92,51.86h0ZM95,15a1.13,1.13,0,0,0-.52.18l-65,37.52h0a4,4,0,0,0-1.76,3l0,45.36c0,.36.1.58.19.63a.8.8,0,0,0,.63-.16L93.49,64A4,4,0,0,0,95.24,61l0-45.35c0-.36-.09-.59-.18-.63A.21.21,0,0,0,95,15Zm-67,88.63a2,2,0,0,1-1.06-.27,2.47,2.47,0,0,1-1.11-2.25V55.72A5.89,5.89,0,0,1,28.46,51L93.51,13.52a2.28,2.28,0,0,1,3.63,2.11l0,45.35a5.91,5.91,0,0,1-2.7,4.68l-65,37.52A3,3,0,0,1,27.91,103.6Z"/><path class="cls-1" d="M144.18,96.3v3.55a3.82,3.82,0,0,1-1.94,2.25l-65.9,38.06a9.75,9.75,0,0,1-4.55,1.15,10.13,10.13,0,0,1-5.22-1.16l-40.46-23.4a3.88,3.88,0,0,1-1.94-2.25v-3.56a3.88,3.88,0,0,0,1.94,2.25l40.46,23.4a10,10,0,0,0,5.22,1.16,9.76,9.76,0,0,0,4.55-1.16l65.9-38A3.88,3.88,0,0,0,144.18,96.3Z"/><path class="cls-2" d="M25.11,114.36A2.93,2.93,0,0,0,26.6,116L67,139.34a9.32,9.32,0,0,0,4.74,1,8.94,8.94,0,0,0,4.11-1l65.89-38a3,3,0,0,0,1.47-1.59V99a5.84,5.84,0,0,1-.53.33L76.81,137.41a11.75,11.75,0,0,1-10.69,0L25.64,114c-.17-.11-.36-.22-.53-.35v.71ZM71.6,142.25A10.94,10.94,0,0,1,66.12,141L25.64,117.56a4.85,4.85,0,0,1-2.38-2.8,1.22,1.22,0,0,1,0-.26v-3.56A1,1,0,0,1,24,110a1,1,0,0,1,1,.67,2.91,2.91,0,0,0,1.53,1.72L67,135.77a8.74,8.74,0,0,0,4.74,1,8.59,8.59,0,0,0,4.11-1l65.89-38a2.86,2.86,0,0,0,1.5-1.7,1,1,0,0,1,1-.67,1,1,0,0,1,.81.94v3.55a1.17,1.17,0,0,1,0,.27,4.82,4.82,0,0,1-2.37,2.79L76.81,141a10.7,10.7,0,0,1-5,1.28Z"/><path class="cls-3" d="M26.11,107.53l65.9-38a10.78,10.78,0,0,1,9.77,0l40.46,23.4c2.69,1.56,2.69,4.1,0,5.66l-65.9,38a10.84,10.84,0,0,1-9.77,0l-40.46-23.4C23.42,111.63,23.42,109.09,26.11,107.53Z"/><path class="cls-2" d="M26.11,107.53h0Zm.47.81a2.62,2.62,0,0,0-1.54,2,2.56,2.56,0,0,0,1.54,2L67,135.77a9.92,9.92,0,0,0,8.84,0l65.9-38a2.58,2.58,0,0,0,1.54-2,2.61,2.61,0,0,0-1.55-2L101.31,70.3a9.87,9.87,0,0,0-8.83,0l-65.9,38Zm44.88,30.34a11,11,0,0,1-5.36-1.28L25.64,114a3.91,3.91,0,0,1,0-7.28l65.9-38a11.82,11.82,0,0,1,10.71,0l40.46,23.4a3.9,3.9,0,0,1,0,7.27l-65.9,38.06A11,11,0,0,1,71.46,138.68Z"/><polygon class="cls-5" points="96.95 120.84 114.98 110.43 101.17 102.45 83.15 112.86 96.95 120.84"/><path class="cls-2" d="M85,112.86,97,119.76l16.15-9.33-11.93-6.9L85,112.86ZM97,121.78a.9.9,0,0,1-.47-.13l-13.8-8a.92.92,0,0,1-.47-.81.94.94,0,0,1,.47-.81l18-10.42a1,1,0,0,1,.94,0l13.81,8a1,1,0,0,1,0,1.63l-18,10.41A.88.88,0,0,1,97,121.78Z"/><path class="cls-5" d="M34.36,108.85q30-17.28,59.9-34.6a5.81,5.81,0,0,1,5.22,0L119.9,86.07c1.43.83,1.43,2.18,0,3L60,123.69a5.75,5.75,0,0,1-5.22,0L34.36,111.87C32.93,111,32.93,109.68,34.36,108.85Z"/><path class="cls-2" d="M34.36,108.85l.47.82c-.37.21-.6.48-.6.69s.23.48.6.7l20.42,11.81a4.87,4.87,0,0,0,4.28,0l59.9-34.6c.37-.22.6-.49.6-.69s-.23-.48-.6-.7L99,75.07a4.87,4.87,0,0,0-4.28,0l-59.9,34.6-.47-.82Zm23,16.39a6.24,6.24,0,0,1-3.08-.75L33.89,112.68a2.51,2.51,0,0,1,0-4.63l59.89-34.6a6.68,6.68,0,0,1,6.15,0l20.43,11.8a2.52,2.52,0,0,1,0,4.65l-59.9,34.59A6.18,6.18,0,0,1,57.39,125.24Z"/><path class="cls-4" d="M60.66,105.54l2.94-1.7a2.41,2.41,0,0,1,2.16,0l2.94,1.7a.66.66,0,0,1,0,1.25l-3,1.7a2.39,2.39,0,0,1-2.15,0l-2.94-1.7A.66.66,0,0,1,60.66,105.54Z"/><path class="cls-2" d="M61.46,106.17l2.61,1.5a1.45,1.45,0,0,0,1.22,0l2.61-1.5-2.61-1.51a1.45,1.45,0,0,0-1.22,0l-2.61,1.51Zm3.22,3.51a3.07,3.07,0,0,1-1.55-.38l-2.94-1.71a1.65,1.65,0,0,1-.91-1.42,1.66,1.66,0,0,1,.91-1.44h0l3-1.7a3.31,3.31,0,0,1,3.09,0l2.94,1.7a1.59,1.59,0,0,1,0,2.87l-3,1.7A3.06,3.06,0,0,1,64.68,109.68Z"/><path class="cls-4" d="M49.09,112.22l-2.94,1.7a.66.66,0,0,0,0,1.24l2.94,1.7a2.33,2.33,0,0,0,2.15,0l2.95-1.7a.65.65,0,0,0,0-1.24l-3-1.7A2.41,2.41,0,0,0,49.09,112.22Z"/><path class="cls-2" d="M47,114.54l2.61,1.51a1.42,1.42,0,0,0,1.21,0l2.62-1.51L50.77,113a1.42,1.42,0,0,0-1.21,0L47,114.54Zm3.22,3.52a3.17,3.17,0,0,1-1.54-.38l-3-1.7a1.68,1.68,0,0,1-.91-1.44,1.65,1.65,0,0,1,.91-1.43l3-1.7h0a3.31,3.31,0,0,1,3.09,0l3,1.7a1.58,1.58,0,0,1,0,2.87l-2.95,1.7A3.11,3.11,0,0,1,50.17,118.06Z"/><path class="cls-4" d="M56.34,116.41l-2.94,1.7c-.59.35-.59.9,0,1.24l2.94,1.7a2.33,2.33,0,0,0,2.15,0l2.94-1.69a.65.65,0,0,0,0-1.24l-2.94-1.71A2.41,2.41,0,0,0,56.34,116.41Z"/><path class="cls-2" d="M54.2,118.73l2.61,1.52a1.52,1.52,0,0,0,1.22,0l2.61-1.51L58,117.22a1.52,1.52,0,0,0-1.22,0l-2.61,1.51Zm3.21,3.52a3.17,3.17,0,0,1-1.54-.38l-2.94-1.7a1.59,1.59,0,0,1,0-2.87l2.94-1.7h0a3.33,3.33,0,0,1,3.1,0l2.94,1.7a1.59,1.59,0,0,1,0,2.87L59,121.87A3.18,3.18,0,0,1,57.41,122.25Z"/><path class="cls-4" d="M51.25,108.49l3-1.71c.59-.34.59-.89,0-1.24l-3-1.7a2.31,2.31,0,0,0-2.14,0l-3,1.7a.65.65,0,0,0,0,1.24l2.94,1.71A2.39,2.39,0,0,0,51.25,108.49Z"/><path class="cls-2" d="M47,106.16l2.61,1.51a1.42,1.42,0,0,0,1.21,0l2.61-1.5-2.61-1.52a1.5,1.5,0,0,0-1.21,0L47,106.16Zm4.29,2.33h0Zm-1.07,1.19a3,3,0,0,1-1.54-.38l-3-1.71a1.58,1.58,0,0,1,0-2.86l3-1.71a3.32,3.32,0,0,1,3.08,0l3,1.7a1.58,1.58,0,0,1,0,2.86l-3,1.71h0A3.06,3.06,0,0,1,50.18,109.68Z"/><path class="cls-4" d="M58.51,104.3l2.94-1.7a.66.66,0,0,0,0-1.25l-3-1.7a2.36,2.36,0,0,0-2.15,0l-3,1.7a.66.66,0,0,0,0,1.24l3,1.71A2.39,2.39,0,0,0,58.51,104.3Z"/><path class="cls-2" d="M54.21,102l2.61,1.51a1.42,1.42,0,0,0,1.21,0l2.62-1.5L58,100.46a1.52,1.52,0,0,0-1.22,0L54.21,102Zm4.3,2.33h0Zm-1.08,1.2a3.07,3.07,0,0,1-1.54-.39l-3-1.7A1.69,1.69,0,0,1,52,102a1.66,1.66,0,0,1,.91-1.43l3-1.7a3.31,3.31,0,0,1,3.09,0l3,1.7a1.58,1.58,0,0,1,0,2.87L59,105.11h0A3.1,3.1,0,0,1,57.43,105.5Z"/><path class="cls-4" d="M46.94,111,44,112.68a2.39,2.39,0,0,1-2.15,0l-3-1.71a.66.66,0,0,1,0-1.24l3-1.71A2.39,2.39,0,0,1,44,108l2.94,1.71A.66.66,0,0,1,46.94,111Z"/><path class="cls-2" d="M39.71,110.35l2.61,1.51a1.42,1.42,0,0,0,1.21,0l2.61-1.51-2.61-1.51a1.42,1.42,0,0,0-1.21,0l-2.61,1.51Zm3.21,3.52a3.17,3.17,0,0,1-1.54-.38l-3-1.71a1.68,1.68,0,0,1-.91-1.43,1.66,1.66,0,0,1,.92-1.43l2.94-1.7a3.31,3.31,0,0,1,3.09,0l3,1.7a1.59,1.59,0,0,1,0,2.86l-3,1.71A3.23,3.23,0,0,1,42.92,113.87Z"/><path class="cls-4" d="M53.41,109.73l2.94-1.7a2.41,2.41,0,0,1,2.16,0l2.94,1.7a.66.66,0,0,1,0,1.25l-3,1.7a2.39,2.39,0,0,1-2.15,0L53.41,111A.66.66,0,0,1,53.41,109.73Z"/><path class="cls-2" d="M54.2,110.35l2.61,1.51a1.45,1.45,0,0,0,1.22,0l2.61-1.51L58,108.85a1.42,1.42,0,0,0-1.21,0l-2.62,1.5Zm3.23,3.52a3.18,3.18,0,0,1-1.55-.38l-2.94-1.71a1.58,1.58,0,0,1,0-2.86h0l3-1.7a3.32,3.32,0,0,1,3.08,0l3,1.71a1.66,1.66,0,0,1,.91,1.42,1.7,1.7,0,0,1-.91,1.44l-3,1.7A3.17,3.17,0,0,1,57.43,113.87Z"/><path class="cls-4" d="M75.16,97.17l3-1.7a2.33,2.33,0,0,1,2.15,0l2.95,1.7a.66.66,0,0,1,0,1.24l-2.95,1.7a2.39,2.39,0,0,1-2.15,0l-3-1.7A.66.66,0,0,1,75.16,97.17Z"/><path class="cls-2" d="M75.16,97.17h0Zm.81.62,2.61,1.51a1.5,1.5,0,0,0,1.21,0l2.61-1.51-2.61-1.51a1.42,1.42,0,0,0-1.21,0L76,97.79Zm3.22,3.52a3.08,3.08,0,0,1-1.55-.39l-3-1.7a1.59,1.59,0,0,1,0-2.87l3-1.7a3.33,3.33,0,0,1,3.1,0l2.94,1.71a1.66,1.66,0,0,1,.91,1.43,1.64,1.64,0,0,1-.92,1.43l-3,1.7A3,3,0,0,1,79.19,101.31Z"/><path class="cls-4" d="M82.42,101.36l2.94-1.7a2.33,2.33,0,0,1,2.15,0l2.94,1.7a.66.66,0,0,1,0,1.25l-2.94,1.7a2.41,2.41,0,0,1-2.16,0l-2.94-1.71A.65.65,0,0,1,82.42,101.36Z"/><path class="cls-2" d="M82.42,101.36h0Zm.79.62,2.61,1.51a1.45,1.45,0,0,0,1.22,0L89.65,102,87,100.47a1.48,1.48,0,0,0-1.22,0L83.21,102Zm3.23,3.52a3,3,0,0,1-1.56-.39L82,103.41a1.58,1.58,0,0,1,0-2.86l2.94-1.71a3.39,3.39,0,0,1,3.1,0l2.93,1.71a1.57,1.57,0,0,1,0,2.86L88,105.11A3,3,0,0,1,86.44,105.5Z"/><path class="cls-4" d="M65.76,100.11l2.95-1.71a.65.65,0,0,0,0-1.23l-2.94-1.7a2.35,2.35,0,0,0-2.16,0l-3,1.69a.66.66,0,0,0,0,1.24l3,1.71A2.39,2.39,0,0,0,65.76,100.11Z"/><path class="cls-2" d="M61.46,97.78l2.62,1.52a1.5,1.5,0,0,0,1.21,0h0l2.61-1.51-2.61-1.52a1.5,1.5,0,0,0-1.21,0l-2.62,1.51Zm3.22,3.53a3.07,3.07,0,0,1-1.54-.39l-2.94-1.7a1.68,1.68,0,0,1-.92-1.44,1.65,1.65,0,0,1,.92-1.43l2.94-1.71a3.36,3.36,0,0,1,3.1,0l2.94,1.7a1.58,1.58,0,0,1,0,2.87l-2.94,1.7A3.08,3.08,0,0,1,64.68,101.31Z"/><path class="cls-4" d="M73,95.92,76,94.22A.66.66,0,0,0,76,93L73,91.28a2.35,2.35,0,0,0-2.16,0L67.92,93a.65.65,0,0,0,0,1.23l2.94,1.71A2.41,2.41,0,0,0,73,95.92Z"/><path class="cls-2" d="M68.73,93.59l2.6,1.52a1.52,1.52,0,0,0,1.22,0l2.61-1.51-2.61-1.52a1.52,1.52,0,0,0-1.22,0l-2.6,1.51ZM73,95.92h0Zm-1.08,1.2a3.18,3.18,0,0,1-1.55-.38L67.45,95a1.58,1.58,0,0,1,0-2.87l2.94-1.7a3.33,3.33,0,0,1,3.1,0l2.94,1.7a1.59,1.59,0,0,1,0,2.87l-3,1.71h0A3.17,3.17,0,0,1,71.94,97.12Z"/><path class="cls-4" d="M67.91,101.35l3-1.69a2.33,2.33,0,0,1,2.15,0L76,101.35a.66.66,0,0,1,0,1.25L73,104.3a2.39,2.39,0,0,1-2.15,0l-3-1.7A.66.66,0,0,1,67.91,101.35Z"/><path class="cls-2" d="M67.91,101.35h0Zm.8.63,2.62,1.51a1.46,1.46,0,0,0,1.21,0l2.62-1.5-2.62-1.51a1.42,1.42,0,0,0-1.21,0L68.71,102Zm3.22,3.52a3.08,3.08,0,0,1-1.55-.39l-2.94-1.7a1.59,1.59,0,0,1,0-2.87l2.94-1.7a3.33,3.33,0,0,1,3.1,0l2.94,1.71a1.65,1.65,0,0,1,.91,1.43,1.67,1.67,0,0,1-.91,1.43l-3,1.7A3.07,3.07,0,0,1,71.93,105.5Z"/><path class="cls-4" d="M60.65,113.93,78.1,103.84a2.39,2.39,0,0,1,2.15,0l3,1.71a.66.66,0,0,1,0,1.25L65.75,116.87a2.39,2.39,0,0,1-2.15,0l-3-1.71A.65.65,0,0,1,60.65,113.93Z"/><path class="cls-2" d="M61.46,114.54l2.61,1.52a1.5,1.5,0,0,0,1.21,0l17.11-9.89-2.61-1.51a1.4,1.4,0,0,0-1.2,0l-17.12,9.88Zm3.2,3.52a3.27,3.27,0,0,1-1.54-.37L60.18,116a1.66,1.66,0,0,1-.91-1.44,1.69,1.69,0,0,1,.91-1.43h0L77.64,103a3.29,3.29,0,0,1,3.08,0l3,1.7a1.57,1.57,0,0,1,0,2.86L66.21,117.69A3.29,3.29,0,0,1,64.66,118.06Z"/><path class="cls-4" d="M99.27,83.23l3-1.7a2.39,2.39,0,0,1,2.15,0l2.95,1.71a.65.65,0,0,1,0,1.24l-2.94,1.7a2.39,2.39,0,0,1-2.15,0l-3-1.7A.66.66,0,0,1,99.27,83.23Z"/><path class="cls-2" d="M99.27,83.23h0Zm.8.63,2.62,1.51a1.5,1.5,0,0,0,1.21,0l2.61-1.51-2.61-1.52a1.5,1.5,0,0,0-1.21,0l-2.62,1.52Zm3.22,3.52a3.07,3.07,0,0,1-1.54-.39l-3-1.7a1.67,1.67,0,0,1-.91-1.43,1.7,1.7,0,0,1,.91-1.44l3-1.7a3.26,3.26,0,0,1,3.08,0l3,1.7a1.58,1.58,0,0,1,0,2.87L104.84,87A3.08,3.08,0,0,1,103.29,87.38Z"/><path class="cls-4" d="M106.53,87.42l2.94-1.7a2.39,2.39,0,0,1,2.15,0l2.94,1.71c.6.35.6.9,0,1.24l-3,1.71a2.43,2.43,0,0,1-2.15,0l-2.94-1.7C105.93,88.33,105.93,87.77,106.53,87.42Z"/><path class="cls-2" d="M106.53,87.42h0Zm.79.63,2.61,1.51a1.48,1.48,0,0,0,1.22,0l2.61-1.51-2.61-1.52a1.52,1.52,0,0,0-1.22,0l-2.61,1.52Zm3.22,3.52a3.1,3.1,0,0,1-1.55-.39l-2.94-1.7a1.58,1.58,0,0,1,0-2.87l2.93-1.7a3.33,3.33,0,0,1,3.1,0l2.94,1.7a1.58,1.58,0,0,1,0,2.86l-3,1.7A3.07,3.07,0,0,1,110.54,91.57Z"/><path class="cls-4" d="M97.12,82l2.95-1.71a.66.66,0,0,0,0-1.24l-2.95-1.7a2.39,2.39,0,0,0-2.15,0L92,79a.65.65,0,0,0,0,1.24L95,82A2.39,2.39,0,0,0,97.12,82Z"/><path class="cls-2" d="M92.83,79.66l2.61,1.52a1.54,1.54,0,0,0,1.21,0h0l2.61-1.51-2.61-1.52a1.5,1.5,0,0,0-1.21,0l-2.61,1.51ZM96,83.18a3.17,3.17,0,0,1-1.54-.38l-3-1.7a1.59,1.59,0,0,1,0-2.87l3-1.7a3.31,3.31,0,0,1,3.09,0l3,1.7a1.59,1.59,0,0,1,0,2.87l-3,1.7A3.2,3.2,0,0,1,96,83.18Z"/><path class="cls-4" d="M92,87.42l3-1.7a2.39,2.39,0,0,1,2.15,0l2.94,1.7a.66.66,0,0,1,0,1.25l-2.94,1.7a2.39,2.39,0,0,1-2.15,0l-3-1.7A.66.66,0,0,1,92,87.42Z"/><path class="cls-2" d="M92,87.42h0Zm.81.63,2.61,1.5a1.39,1.39,0,0,0,1.21,0l2.61-1.5-2.61-1.52a1.5,1.5,0,0,0-1.21,0l-2.61,1.52ZM96,91.57a3.07,3.07,0,0,1-1.54-.39l-3-1.7a1.59,1.59,0,0,1,0-2.87l3-1.7a3.34,3.34,0,0,1,3.09,0l3,1.71a1.62,1.62,0,0,1,.9,1.43,1.65,1.65,0,0,1-.91,1.43l-2.94,1.7A3.1,3.1,0,0,1,96,91.57Z"/><path class="cls-4" d="M99.27,91.61l3-1.7a2.39,2.39,0,0,1,2.15,0l2.94,1.71a.65.65,0,0,1,0,1.24l-3,1.7a2.33,2.33,0,0,1-2.15,0l-2.94-1.7A.66.66,0,0,1,99.27,91.61Z"/><path class="cls-2" d="M99.27,91.61h0Zm.8.62,2.61,1.52a1.48,1.48,0,0,0,1.22,0l2.61-1.51-2.61-1.51a1.42,1.42,0,0,0-1.21,0l-2.62,1.5Zm3.22,3.52a3.16,3.16,0,0,1-1.54-.37l-3-1.71a1.59,1.59,0,0,1,0-2.87l3-1.7a3.34,3.34,0,0,1,3.09,0l2.94,1.71a1.63,1.63,0,0,1,.91,1.43,1.65,1.65,0,0,1-.91,1.43l-2.94,1.7A3.07,3.07,0,0,1,103.29,95.75Z"/><path class="cls-4" d="M82.62,90.37l2.95-1.7a.66.66,0,0,0,0-1.25l-2.95-1.7a2.33,2.33,0,0,0-2.15,0l-2.94,1.7a.65.65,0,0,0,0,1.24l2.94,1.71A2.39,2.39,0,0,0,82.62,90.37Z"/><path class="cls-2" d="M78.32,88l2.62,1.51a1.42,1.42,0,0,0,1.21,0l2.61-1.5-2.61-1.52a1.42,1.42,0,0,0-1.21,0L78.32,88Zm4.3,2.33h0Zm-1.08,1.19A3.07,3.07,0,0,1,80,91.17l-3-1.7a1.65,1.65,0,0,1-.91-1.42,1.69,1.69,0,0,1,.91-1.45l3-1.7a3.31,3.31,0,0,1,3.09,0l3,1.7A1.7,1.7,0,0,1,87,88.05,1.67,1.67,0,0,1,86,89.47l-3,1.7h0A3.1,3.1,0,0,1,81.54,91.56Z"/><path class="cls-4" d="M89.87,86.18l2.95-1.7a.66.66,0,0,0,0-1.25l-2.94-1.7a2.41,2.41,0,0,0-2.16,0l-2.94,1.7a.66.66,0,0,0,0,1.24l2.94,1.71A2.46,2.46,0,0,0,89.87,86.18Z"/><path class="cls-2" d="M85.58,83.85l2.61,1.52a1.5,1.5,0,0,0,1.21,0h0L92,83.86l-2.6-1.52a1.52,1.52,0,0,0-1.22,0l-2.61,1.51Zm3.22,3.53A3.08,3.08,0,0,1,87.25,87l-2.94-1.7a1.58,1.58,0,0,1,0-2.87l2.94-1.7a3.31,3.31,0,0,1,3.09,0l3,1.7a1.59,1.59,0,0,1,0,2.87l-3,1.7A3.07,3.07,0,0,1,88.8,87.38Z"/><path class="cls-4" d="M84.78,91.61l2.94-1.7a2.39,2.39,0,0,1,2.15,0l2.95,1.7a.66.66,0,0,1,0,1.25l-2.94,1.7a2.41,2.41,0,0,1-2.16,0l-2.94-1.7A.66.66,0,0,1,84.78,91.61Z"/><path class="cls-2" d="M85.58,92.23l2.6,1.52a1.45,1.45,0,0,0,1.22,0L92,92.23l-2.61-1.5a1.46,1.46,0,0,0-1.21,0l-2.61,1.51Zm3.21,3.52a3.07,3.07,0,0,1-1.55-.38l-2.94-1.7a1.59,1.59,0,0,1,0-2.87h0l2.94-1.7a3.31,3.31,0,0,1,3.09,0l3,1.71a1.62,1.62,0,0,1,.9,1.42,1.65,1.65,0,0,1-.91,1.44l-2.94,1.7A3.1,3.1,0,0,1,88.79,95.75Z"/><path class="cls-4" d="M92,95.8l3-1.7a2.39,2.39,0,0,1,2.15,0l2.94,1.71a.66.66,0,0,1,0,1.24l-2.94,1.7a2.35,2.35,0,0,1-2.16,0L92,97.05A.66.66,0,0,1,92,95.8Z"/><path class="cls-2" d="M92.82,96.42l2.62,1.52a1.42,1.42,0,0,0,1.21,0l2.61-1.51-2.61-1.51a1.42,1.42,0,0,0-1.21,0l-2.62,1.5ZM96,100a3,3,0,0,1-1.53-.39l-3-1.7a1.65,1.65,0,0,1-.91-1.43A1.67,1.67,0,0,1,91.55,95h0l3-1.7a3.31,3.31,0,0,1,3.09,0l3,1.7a1.67,1.67,0,0,1,.9,1.43,1.65,1.65,0,0,1-.91,1.43l-2.94,1.7A3.14,3.14,0,0,1,96,100Z"/><path class="cls-1" d="M71.85,141.31v-3.56h-.06a10.08,10.08,0,0,1-5.22-1.16l-40.46-23.4a3.84,3.84,0,0,1-1.94-2.25v3.56a3.84,3.84,0,0,0,1.94,2.25l40.46,23.4a10.18,10.18,0,0,0,5.22,1.16Z"/><path class="cls-2" d="M25.11,114.35A3,3,0,0,0,26.6,116L67,139.34a8.65,8.65,0,0,0,3.86,1v-1.69a10.61,10.61,0,0,1-4.78-1.26L25.64,114c-.17-.11-.36-.22-.53-.35v.7Zm46.74,27h0Zm-.25.94A10.89,10.89,0,0,1,66.12,141L25.64,117.56a4.84,4.84,0,0,1-2.37-2.8.82.82,0,0,1,0-.26v-3.56A1,1,0,0,1,24,110a.94.94,0,0,1,1,.66,2.87,2.87,0,0,0,1.53,1.71L67,135.77a8.9,8.9,0,0,0,4.74,1,1.27,1.27,0,0,1,.7.27,1,1,0,0,1,.3.67v3.56a.94.94,0,0,1-.89.94H71.6Z"/><polygon class="cls-4" points="38.95 57.67 87.22 29.8 87.22 63.07 38.95 90.94 38.95 57.67"/><polygon class="cls-3" points="38.95 57.67 87.22 29.8 87.22 25 38.95 52.87 38.95 57.67"/><path class="cls-6" d="M51.18,58.53h0c.66-.37,1.19-.07,1.19.68h0a2.59,2.59,0,0,1-1.19,2h0c-.65.38-1.18.08-1.18-.68h0A2.65,2.65,0,0,1,51.18,58.53Z"/><path class="cls-6" d="M51.18,65.88h0c.66-.38,1.19-.08,1.19.67h0a2.59,2.59,0,0,1-1.19,2h0c-.65.38-1.18.07-1.18-.68h0A2.62,2.62,0,0,1,51.18,65.88Z"/><path class="cls-6" d="M51.18,73.68h0c.66-.37,1.19-.08,1.19.68h0a2.58,2.58,0,0,1-1.19,2h0c-.65.38-1.18.07-1.18-.67h0A2.62,2.62,0,0,1,51.18,73.68Z"/><path class="cls-2" d="M40,58.25v31L86.22,62.49V31.54L40,58.25ZM39,92a1,1,0,0,1-.5-.14,1,1,0,0,1-.51-.87V57.67a1,1,0,0,1,.51-.87L86.72,28.93a1,1,0,0,1,1,0,1,1,0,0,1,.51.87V63.07a1,1,0,0,1-.51.87L39.45,91.81A1,1,0,0,1,39,92Z"/><path class="cls-2" d="M40,53.44v2.49L86.22,29.22V26.74L40,53.44Zm-1,5.23a.88.88,0,0,1-.5-.14,1,1,0,0,1-.51-.86v-4.8a1,1,0,0,1,.51-.87L86.72,24.13a1,1,0,0,1,1,0,1,1,0,0,1,.51.88V29.8a1,1,0,0,1-.51.87L39.45,58.53A.93.93,0,0,1,39,58.67Z"/><path class="cls-7" d="M51.18,58.53h0Zm-.53,3.89a1.58,1.58,0,0,1-.8-.2A1.82,1.82,0,0,1,49,60.58a3.58,3.58,0,0,1,1.69-2.91,1.71,1.71,0,0,1,2.69,1.54,3.62,3.62,0,0,1-1.69,2.92A2,2,0,0,1,50.65,62.42Z"/><path class="cls-7" d="M51.18,65.88h0Zm-.53,3.89a1.62,1.62,0,0,1-.8-.21A1.82,1.82,0,0,1,49,67.92,3.61,3.61,0,0,1,50.69,65a1.72,1.72,0,0,1,2.69,1.55,3.61,3.61,0,0,1-1.69,2.92A2,2,0,0,1,50.65,69.77Z"/><path class="cls-7" d="M51.18,73.68h0Zm-.53,3.89a1.59,1.59,0,0,1-.8-.21A1.82,1.82,0,0,1,49,75.73a3.58,3.58,0,0,1,1.69-2.92,1.78,1.78,0,0,1,1.83-.08,1.8,1.8,0,0,1,.86,1.63,3.64,3.64,0,0,1-1.69,2.92A2.13,2.13,0,0,1,50.65,77.57Z"/><path class="cls-2" d="M55.76,65.61a1,1,0,0,1-.51-1.87l18.88-10.9a1,1,0,1,1,1,1.73L56.25,65.47A1,1,0,0,1,55.76,65.61Z"/><path class="cls-2" d="M55.76,58.27a1,1,0,0,1-.51-1.87L74.13,45.5a1,1,0,1,1,1,1.73L56.25,58.13A1,1,0,0,1,55.76,58.27Z"/><path class="cls-2" d="M55.76,73.41a1,1,0,0,1-.51-1.87l15.27-8.82a1,1,0,0,1,1.36.37,1,1,0,0,1-.37,1.37L56.25,73.27A.89.89,0,0,1,55.76,73.41Z"/><polygon class="cls-4" points="45.73 66.41 94 38.55 94 71.82 45.73 99.68 45.73 66.41"/><polygon class="cls-3" points="45.73 66.41 94 38.55 94 33.75 45.73 61.62 45.73 66.41"/><path class="cls-6" d="M58,67.28h0c.66-.38,1.19-.07,1.19.68h0A2.62,2.62,0,0,1,58,70h0c-.65.37-1.18.07-1.18-.69h0A2.62,2.62,0,0,1,58,67.28Z"/><path class="cls-6" d="M58,74.62h0c.66-.38,1.19-.07,1.19.68h0a2.6,2.6,0,0,1-1.19,2h0c-.65.37-1.18.06-1.18-.69h0A2.62,2.62,0,0,1,58,74.62Z"/><path class="cls-6" d="M58,82.43h0c.66-.38,1.19-.08,1.19.67h0A2.62,2.62,0,0,1,58,85.15h0c-.65.37-1.18.07-1.18-.68h0A2.58,2.58,0,0,1,58,82.43Z"/><path class="cls-2" d="M46.73,67v31L93,71.24V40.29L46.73,67Zm-1,33.7a.88.88,0,0,1-.5-.14,1,1,0,0,1-.51-.87V66.41a1,1,0,0,1,.51-.87L93.5,37.67a1,1,0,0,1,1,0,1,1,0,0,1,.51.88V71.82a1,1,0,0,1-.51.87L46.23,100.55A.93.93,0,0,1,45.73,100.69Z"/><path class="cls-2" d="M46.73,62.19v2.48L93,38V35.48L46.73,62.19Zm-1,5.22a1,1,0,0,1-.5-.13,1,1,0,0,1-.51-.87V61.62a1,1,0,0,1,.51-.87L93.5,32.88a1,1,0,0,1,1.51.87v4.8a1,1,0,0,1-.51.87L46.23,67.28A1,1,0,0,1,45.73,67.41Z"/><path class="cls-7" d="M58,67.28h0Zm-.53,3.89a1.59,1.59,0,0,1-.8-.21,1.79,1.79,0,0,1-.85-1.64,3.58,3.58,0,0,1,1.69-2.91A1.72,1.72,0,0,1,60.16,68a3.64,3.64,0,0,1-1.69,2.92A2.18,2.18,0,0,1,57.43,71.17Z"/><path class="cls-7" d="M58,74.62h0Zm-.53,3.9a1.53,1.53,0,0,1-.8-.22,1.78,1.78,0,0,1-.85-1.64,3.58,3.58,0,0,1,1.69-2.91,1.72,1.72,0,0,1,2.69,1.55,3.62,3.62,0,0,1-1.69,2.92A2.09,2.09,0,0,1,57.43,78.52Z"/><path class="cls-7" d="M58,82.43h0Zm-.53,3.89a1.6,1.6,0,0,1-.8-.22,1.79,1.79,0,0,1-.85-1.63,3.57,3.57,0,0,1,1.69-2.91,1.78,1.78,0,0,1,1.83-.09,1.81,1.81,0,0,1,.86,1.63A3.64,3.64,0,0,1,58.47,86,2.09,2.09,0,0,1,57.43,86.32Z"/><path class="cls-2" d="M62.54,74.35A1,1,0,0,1,62,72.48L80.9,61.58a1,1,0,0,1,1.37.37,1,1,0,0,1-.37,1.36L63,74.21A.89.89,0,0,1,62.54,74.35Z"/><path class="cls-2" d="M62.54,67A1,1,0,0,1,62,65.14L80.9,54.24a1,1,0,1,1,1,1.73L63,66.87A.89.89,0,0,1,62.54,67Z"/><path class="cls-2" d="M62.54,82.15A1,1,0,0,1,62,80.28l15.26-8.81a1,1,0,0,1,1.37.36,1,1,0,0,1-.37,1.38L63,82A1,1,0,0,1,62.54,82.15Z"/><polygon class="cls-4" points="53.22 74.97 101.49 47.1 101.49 80.37 53.22 108.24 53.22 74.97"/><polygon class="cls-3" points="53.22 74.97 101.49 47.1 101.49 42.31 53.22 70.17 53.22 74.97"/><path class="cls-6" d="M65.45,75.83h0c.66-.37,1.19-.06,1.19.69h0a2.58,2.58,0,0,1-1.19,2h0c-.65.38-1.19.08-1.19-.68h0A2.66,2.66,0,0,1,65.45,75.83Z"/><path class="cls-6" d="M65.45,83.18h0c.66-.38,1.19-.07,1.19.68h0a2.6,2.6,0,0,1-1.19,2h0c-.65.37-1.19.06-1.19-.69h0A2.63,2.63,0,0,1,65.45,83.18Z"/><path class="cls-6" d="M65.45,91h0c.66-.37,1.19-.07,1.19.68h0a2.62,2.62,0,0,1-1.19,2h0c-.65.37-1.19.06-1.19-.68h0A2.63,2.63,0,0,1,65.45,91Z"/><path class="cls-2" d="M54.22,75.55v31l46.27-26.71V48.84L54.22,75.55Zm-1,33.7a.88.88,0,0,1-.5-.14,1,1,0,0,1-.51-.87V75a1,1,0,0,1,.51-.87L101,46.23a1,1,0,0,1,1,0,1,1,0,0,1,.5.87V80.37a1,1,0,0,1-.5.87L53.71,109.11A.87.87,0,0,1,53.22,109.25Z"/><path class="cls-2" d="M54.22,70.75v2.48l46.27-26.71V44L54.22,70.75Zm-1,5.22a.88.88,0,0,1-.5-.14,1,1,0,0,1-.51-.86v-4.8a1,1,0,0,1,.51-.87L101,41.44a1,1,0,0,1,1,0,1,1,0,0,1,.5.87V47.1a1,1,0,0,1-.5.87L53.71,75.83A.87.87,0,0,1,53.22,76Z"/><path class="cls-7" d="M65.45,75.83h0Zm-.53,3.9a1.59,1.59,0,0,1-.8-.21,1.79,1.79,0,0,1-.85-1.64A3.58,3.58,0,0,1,65,75a1.71,1.71,0,0,1,2.68,1.55A3.61,3.61,0,0,1,66,79.44,2.12,2.12,0,0,1,64.92,79.73Z"/><path class="cls-7" d="M65.45,83.18h0Zm-.53,3.89a1.52,1.52,0,0,1-.8-.21,1.78,1.78,0,0,1-.85-1.64A3.61,3.61,0,0,1,65,82.3a1.72,1.72,0,0,1,2.68,1.56A3.6,3.6,0,0,1,66,86.78,2,2,0,0,1,64.92,87.07Z"/><path class="cls-7" d="M65.45,91h0Zm-.53,3.9a1.6,1.6,0,0,1-.8-.22A1.79,1.79,0,0,1,63.27,93,3.58,3.58,0,0,1,65,90.11a1.71,1.71,0,0,1,2.68,1.55A3.61,3.61,0,0,1,66,94.58,2.13,2.13,0,0,1,64.92,94.88Z"/><path class="cls-2" d="M70,82.91A1,1,0,0,1,69.52,81l18.87-10.9a1,1,0,0,1,1.37.37,1,1,0,0,1-.37,1.36L70.52,82.77A.89.89,0,0,1,70,82.91Z"/><path class="cls-2" d="M70,75.57a1,1,0,0,1-.51-1.87L88.39,62.8a1,1,0,1,1,1,1.73L70.52,75.43A.89.89,0,0,1,70,75.57Z"/><path class="cls-2" d="M70,90.71a1,1,0,0,1-.51-1.87L84.78,80a1,1,0,0,1,1.37.37,1,1,0,0,1-.37,1.38l-15.26,8.8A.89.89,0,0,1,70,90.71Z"/><polygon class="cls-4" points="59.64 84.6 107.91 56.73 107.91 90 59.64 117.87 59.64 84.6"/><polygon class="cls-3" points="59.64 84.6 107.91 56.73 107.91 51.94 59.64 79.8 59.64 84.6"/><path class="cls-6" d="M71.87,85.46h0c.66-.37,1.19-.07,1.19.68h0a2.59,2.59,0,0,1-1.19,2h0c-.65.38-1.19.08-1.19-.68h0A2.66,2.66,0,0,1,71.87,85.46Z"/><path class="cls-6" d="M71.87,92.81h0c.66-.38,1.19-.08,1.19.68h0a2.58,2.58,0,0,1-1.19,2h0c-.65.38-1.19.07-1.19-.68h0A2.63,2.63,0,0,1,71.87,92.81Z"/><path class="cls-6" d="M71.87,100.61h0c.66-.37,1.19-.08,1.19.68h0a2.58,2.58,0,0,1-1.19,2h0c-.65.38-1.19.07-1.19-.67h0A2.63,2.63,0,0,1,71.87,100.61Z"/><path class="cls-2" d="M60.64,85.18v30.95l46.27-26.71V58.47L60.64,85.18Zm-1,33.7a1,1,0,0,1-.51-.14,1,1,0,0,1-.5-.87V84.6a1,1,0,0,1,.5-.87l48.28-27.87a1,1,0,0,1,1.5.87V90a1,1,0,0,1-.5.87L60.13,118.74A1,1,0,0,1,59.64,118.88Z"/><path class="cls-2" d="M60.64,80.37v2.49l46.27-26.71V53.67L60.64,80.37Zm-1,5.23a.94.94,0,0,1-.51-.14,1,1,0,0,1-.5-.86V79.8a1,1,0,0,1,.5-.87l48.28-27.87a1,1,0,0,1,1,0,1,1,0,0,1,.5.88v4.79a1,1,0,0,1-.5.87L60.13,85.46A.87.87,0,0,1,59.64,85.6Z"/><path class="cls-7" d="M71.87,85.46h0Zm-.53,3.89a1.58,1.58,0,0,1-.8-.2,1.81,1.81,0,0,1-.86-1.64,3.6,3.6,0,0,1,1.69-2.91,1.71,1.71,0,0,1,2.69,1.54,3.6,3.6,0,0,1-1.69,2.92A2,2,0,0,1,71.34,89.35Z"/><path class="cls-7" d="M71.87,92.81h0Zm-.53,3.89a1.62,1.62,0,0,1-.8-.21,1.8,1.8,0,0,1-.86-1.64,3.64,3.64,0,0,1,1.69-2.92,1.84,1.84,0,0,1,1.84-.08,1.82,1.82,0,0,1,.85,1.64,3.58,3.58,0,0,1-1.69,2.91A1.94,1.94,0,0,1,71.34,96.7Z"/><path class="cls-7" d="M71.87,100.61h0Zm-.53,3.89a1.59,1.59,0,0,1-.8-.21,1.79,1.79,0,0,1-.86-1.63,3.61,3.61,0,0,1,1.69-2.92,1.71,1.71,0,0,1,2.69,1.55,3.61,3.61,0,0,1-1.69,2.92A2.12,2.12,0,0,1,71.34,104.5Z"/><path class="cls-2" d="M76.44,92.54a1,1,0,0,1-.5-1.87l18.87-10.9a1,1,0,0,1,1.37.37,1,1,0,0,1-.37,1.36L76.94,92.4A1,1,0,0,1,76.44,92.54Z"/><path class="cls-2" d="M76.44,85.2a1,1,0,0,1-.5-1.87l18.87-10.9a1,1,0,1,1,1,1.73L76.94,85.06A1,1,0,0,1,76.44,85.2Z"/><path class="cls-2" d="M76.44,100.34a1,1,0,0,1-.5-1.87L91.2,89.65a1,1,0,1,1,1,1.74L76.94,100.2A.9.9,0,0,1,76.44,100.34Z"/></svg>