<?xml version="1.0" encoding="UTF-8"?>
<!-- Generator: Adobe Illustrator 15.0.2, SVG Export Plug-In . SVG Version: 6.00 Build 0)  -->
<!DOCTYPE svg PUBLIC "-//W3C//DTD SVG 1.1//EN" "http://www.w3.org/Graphics/SVG/1.1/DTD/svg11.dtd">
<svg version="1.1" id="Layer_1" xmlns="http://www.w3.org/2000/svg" xmlns:xlink="http://www.w3.org/1999/xlink" x="0px" y="0px" width="230.988px" height="122.458px" viewBox="0 0 230.988 122.458" enable-background="new 0 0 230.988 122.458" xml:space="preserve">
<path d="M37.723,69.875c0.346,0.26,0.433,0.691,0.433,1.035c0.26,4.32,0.949,14.43,5.271,27.993h-8.64  c-0.604,0-0.95-0.259-1.123-0.864c-1.037-3.108-4.927-14.687-5.443-29.289l-2.678-2.59l2.678-2.593  c0.518-14.602,4.406-26.18,5.443-29.289c0.173-0.605,0.519-0.864,1.123-0.864h8.64c-4.32,13.563-5.011,23.673-5.271,27.992  c0,0.347-0.087,0.778-0.433,1.037l-4.232,3.717L37.723,69.875z M80.75,35.142c10.454,0,19.094,4.665,19.094,15.034  c0,7.17-3.368,12.009-10.367,13.737c8.641,1.295,14.256,7.17,14.256,15.032c0,15.726-12.354,18.229-23.847,18.229H62.519V35.142  H80.75z M76.602,60.889c7.776,0,13.651-1.296,13.651-9.332c0-7.17-6.048-8.467-11.664-8.467h-6.738v17.799H76.602z M77.898,68.667  h-6.047v20.647h7.518c8.381,0,14.429-1.296,14.429-10.368C93.796,69.53,85.416,68.667,77.898,68.667z M121.617,48.362  c0.69,1.555,1.036,3.801,1.036,6.825c2.938-5.011,8.468-7.776,15.292-7.776c5.271,0,9.331,1.814,12.011,4.838  c2.592,2.938,3.975,6.999,3.975,15.292v29.635h-9.332V69.53c0-6.395-0.777-9.073-2.419-10.974c-1.642-1.728-3.975-2.852-7.172-2.852  c-3.714,0-6.911,1.642-8.984,4.752c-1.729,2.505-2.766,5.789-2.766,13.22v23.5h-9.331V62.961c0-4.751-0.173-11.664-1.641-14.601  L121.617,48.362L121.617,48.362z M199.03,61.321v8.295h-23.327v27.561h-9.85V35.142h35.423v8.208h-25.919v17.971H199.03z"/>
<script xmlns=""/></svg>