<svg id="Calque_1" data-name="Calque 1" xmlns="http://www.w3.org/2000/svg" viewBox="0 0 155.91 155.91"><defs><style>.cls-1{fill:#009640;}.cls-1,.cls-2,.cls-3,.cls-4,.cls-5,.cls-7{stroke:#2d2b6f;stroke-linejoin:round;}.cls-1,.cls-2,.cls-4{stroke-linecap:square;stroke-width:1.5px;}.cls-1,.cls-2,.cls-3,.cls-4,.cls-5,.cls-6{fill-rule:evenodd;}.cls-2,.cls-7{fill:#8ec89a;}.cls-3{fill:#cce5ce;}.cls-3,.cls-5,.cls-7{stroke-linecap:round;stroke-width:2px;}.cls-4{fill:#8f84ae;}.cls-5{fill:#c6bfd8;}.cls-6{fill:#2d2b6f;}</style></defs><path class="cls-1" d="M85.08,138.12l-.93,1.8c-.79,1.43-2.49,2-4,2.33a10.36,10.36,0,0,1-4.22-.18,5,5,0,0,1-3.2-2.15l-.93-1.8A24.39,24.39,0,0,0,85.08,138.12Z"/><path class="cls-2" d="M64.49,128.25c-1.47,2.87-.25,6.09,3.66,8.34,5.68,3.28,14.89,3.28,20.57,0,3.91-2.25,5.13-5.47,3.67-8.34"/><path class="cls-3" d="M108.09,68c4.1,13-.37,21.81-5,29.75-2.93,5-5,5.73-6.61,11.42-1,3.43-.63,6.07-3.33,8.88-7.39,7.65-22.81,7.87-29.41,0-2.49-3-2.36-5.45-3.32-8.88-1.61-5.69-3.69-6.41-6.61-11.42C49.16,89.82,44.68,81,48.79,68,53,54.69,65.72,48,78.44,48S103.86,54.69,108.09,68Z"/><path class="cls-2" d="M64.49,123.81c-1.47,2.85-.25,6.07,3.66,8.32,5.68,3.28,14.89,3.28,20.57,0,3.91-2.25,5.13-5.47,3.67-8.32"/><path class="cls-3" d="M88.85,110.51c5.75,3.32,5.75,8.7,0,12s-15.07,3.32-20.82,0-5.76-8.7,0-12S83.1,107.19,88.85,110.51Z"/><path class="cls-2" d="M93.14,116.93v5.12a5.79,5.79,0,0,1-1.06,2.79c-2,2.86-6.14,4.39-9.45,4.95-4.84.83-10.92.23-15.13-2.46a7.67,7.67,0,0,1-3.72-4.87l-.05-.41v-5.12a5.3,5.3,0,0,0,.41,1.61c1.29,3.07,5.08,4.89,8.1,5.7,5.31,1.42,12.43,1,17.13-2a7.73,7.73,0,0,0,3.73-4.88Z"/><polygon class="cls-4" points="83.78 111.16 83.78 115.6 83.77 115.64 83.77 115.67 83.75 115.7 83.73 115.73 83.71 115.76 83.68 115.8 83.64 115.82 83.6 115.84 76.1 120.17 76.06 120.2 76.01 120.22 75.96 120.24 75.91 120.25 75.85 120.26 75.79 120.27 75.73 120.28 75.68 120.28 75.62 120.28 75.56 120.27 75.51 120.26 75.45 120.25 75.4 120.24 75.35 120.22 75.3 120.2 75.25 120.17 75.2 120.15 74.66 119.83 73.27 119.03 73.23 119 73.19 118.98 73.17 118.95 73.14 118.91 73.12 118.89 73.11 118.85 73.1 118.82 73.1 114.34 73.1 114.37 73.11 114.41 73.12 114.44 73.14 114.47 73.17 114.5 73.19 114.53 73.23 114.56 73.27 114.58 74.66 115.39 75.2 115.7 75.25 115.73 75.3 115.75 75.35 115.78 75.4 115.79 75.45 115.8 75.51 115.82 75.56 115.82 75.62 115.83 75.68 115.83 75.73 115.83 75.79 115.82 75.85 115.82 75.91 115.8 75.96 115.79 76.01 115.78 76.06 115.75 76.1 115.73 83.6 111.4 83.64 111.38 83.68 111.34 83.71 111.32 83.73 111.29 83.75 111.25 83.77 111.22 83.77 111.18 83.78 111.16"/><path class="cls-5" d="M81.62,109.65l2,1.15c.24.13.24.35,0,.49l-7.5,4.32a.91.91,0,0,1-.85,0l0,0-.54-.32-1.39-.8a.26.26,0,0,1,0-.49l7.5-4.33A1,1,0,0,1,81.62,109.65Z"/><path class="cls-6" d="M86.42,76.12a1.58,1.58,0,0,0-1.7,0,3.77,3.77,0,0,0-1,.91l-.14-.13a1.58,1.58,0,0,0-1.7,0A3.9,3.9,0,0,0,80.61,78a1.58,1.58,0,0,0-1.7,0,4.88,4.88,0,0,0-2,2.49,1.64,1.64,0,0,0-1.19.14,4.79,4.79,0,0,0-2,2.55,1.74,1.74,0,0,0-1.19.14,5.15,5.15,0,0,0-2.27,3.49l-.43,2.59s0,.07,0,.1h0a2,2,0,0,0,.63,2.14.91.91,0,0,0,.17.09,68.6,68.6,0,0,1,4,22.37.81.81,0,0,0,1.61,0,70.32,70.32,0,0,0-4-22.53,3.93,3.93,0,0,0,1.06-1s0,0,0,0a1.34,1.34,0,0,0,.82.26,2,2,0,0,0,.88-.23,3.82,3.82,0,0,0,1.16-1.06l0,0a1.34,1.34,0,0,0,.82.26,2.07,2.07,0,0,0,.89-.23,4.9,4.9,0,0,0,2-2.61,1.55,1.55,0,0,0,.31,0,1.81,1.81,0,0,0,.89-.24,4.68,4.68,0,0,0,1.86-2.22,1.76,1.76,0,0,0,.39.06,2.05,2.05,0,0,0,.51-.14c-1.62,6.32-4.23,17.89-4.24,26.62a.81.81,0,0,0,.8.81h0a.81.81,0,0,0,.81-.81c0-8.2,2.54-20.31,5-29.1A4.92,4.92,0,0,0,86.6,81l.45-2.71A2,2,0,0,0,86.42,76.12Zm-15,13.31.39-2.37a4.67,4.67,0,0,1,1.4-2.46,1,1,0,0,1,0,.6l-.4,2.41,0,.31a4.55,4.55,0,0,1-1.11,2.16C71.63,89.87,71.56,89.64,71.47,89.43Zm2.88-.09a1,1,0,0,1,0-.61l.08-.54h0l.41-2.57.21-1.24a4.56,4.56,0,0,1,1.4-2.45,1,1,0,0,1,0,.6l-.72,4.37A4.47,4.47,0,0,1,74.35,89.34Zm4.32-3.43a4.72,4.72,0,0,1-1.41,2.45,1,1,0,0,1,0-.61l.09-.6h0l.72-4.37h0l.17-1a4.66,4.66,0,0,1,1.41-2.46,1.19,1.19,0,0,1,0,.61l-.07.44v0l-.72,4.35v0Zm3.2-2.8a4.54,4.54,0,0,1-1.4,2.45s-.09-.16,0-.6l.72-4.38a4.57,4.57,0,0,1,1.4-2.44,1,1,0,0,1,0,.6Zm1.74,0a1,1,0,0,1,0-.61l.32-2,.12-.73a4.64,4.64,0,0,1,1.4-2.45,1.05,1.05,0,0,1,0,.61L85,80.71c0,.11-.07.22-.1.33s0,.08-.07.13l-.1.38A4.5,4.5,0,0,1,83.61,83.16Z"/><line class="cls-7" x1="78.44" y1="30.74" x2="78.44" y2="16"/><line class="cls-7" x1="117.79" y1="42.59" x2="129.84" y2="34.1"/><line class="cls-7" x1="39.08" y1="42.59" x2="27.03" y2="34.1"/><line class="cls-7" x1="18.78" y1="74.79" x2="33.52" y2="74.79"/><line class="cls-7" x1="123.35" y1="74.79" x2="138.09" y2="74.79"/></svg>