<svg id="Calque_1" data-name="Calque 1" xmlns="http://www.w3.org/2000/svg" viewBox="0 0 155.91 155.91"><defs><style>.cls-1{fill:#009640;}.cls-1,.cls-2,.cls-3,.cls-4,.cls-5,.cls-6,.cls-7{fill-rule:evenodd;}.cls-2{fill:#2d2b6f;}.cls-3{fill:#8ec89a;}.cls-4{fill:#fff;}.cls-5{fill:#aeddea;}.cls-6{fill:#f18b6d;}.cls-7{fill:#cce5ce;}</style></defs><path class="cls-1" d="M19.85,109.82l-2.89-2a4.4,4.4,0,0,1-.58-2.34l0-46.58a10.75,10.75,0,0,1,4.87-8.44L86.9,12.65a3.47,3.47,0,0,1,3.44-.34l2.88,2a3.49,3.49,0,0,0-3.44.34L24.15,52.47a10.76,10.76,0,0,0-4.87,8.43l0,46.59A4.33,4.33,0,0,0,19.85,109.82Z"/><path class="cls-2" d="M17.68,107.21l.65.44a.71.71,0,0,0,0-.14l0-46.61a11.83,11.83,0,0,1,5.33-9.24L89.31,13.8a5.47,5.47,0,0,1,.91-.43l-.41-.28c-.61-.32-1.35-.23-2.45.38L21.74,51.32A9.73,9.73,0,0,0,17.34,59l0,46.56a3.49,3.49,0,0,0,.36,1.69Zm2.17,3.55a.94.94,0,0,1-.53-.16l-2.87-2a.81.81,0,0,1-.29-.29,5.24,5.24,0,0,1-.72-2.79l0-46.61a11.64,11.64,0,0,1,5.32-9.23L86.43,11.83a4.47,4.47,0,0,1,4.35-.35l3,2a.94.94,0,0,1-1,1.6,2.57,2.57,0,0,0-2.55.33L24.62,53.28a9.76,9.76,0,0,0-4.4,7.64l0,46.57a3.41,3.41,0,0,0,.46,1.86.93.93,0,0,1-.17,1.15A.89.89,0,0,1,19.85,110.76Z"/><path class="cls-3" d="M24.15,52.47,89.78,14.61c2.68-1.55,4.87-.28,4.87,2.81l0,46.59a10.79,10.79,0,0,1-4.87,8.43L24.13,110.3c-2.68,1.55-4.88.28-4.87-2.81l0-46.59A10.79,10.79,0,0,1,24.15,52.47Z"/><path class="cls-2" d="M24.15,52.47h0ZM91.94,14.89a3.5,3.5,0,0,0-1.69.53L24.62,53.28h0a9.87,9.87,0,0,0-4.4,7.62l0,46.59a2.57,2.57,0,0,0,1,2.33,2.62,2.62,0,0,0,2.5-.32L89.29,71.63A9.9,9.9,0,0,0,93.69,64l0-46.59a2.57,2.57,0,0,0-1-2.33,1.52,1.52,0,0,0-.81-.2Zm-70,97a3.52,3.52,0,0,1-1.75-.46,4.32,4.32,0,0,1-1.9-4l0-46.59a11.83,11.83,0,0,1,5.34-9.25L89.31,13.8a4.33,4.33,0,0,1,4.38-.34,4.32,4.32,0,0,1,1.9,4V64a11.69,11.69,0,0,1-5.35,9.25L24.6,111.12A5.36,5.36,0,0,1,22,111.91Z"/><path class="cls-4" d="M24.44,56,41.73,46,89.49,18.44c1.23-.71,2.22-.14,2.22,1.29V65.09A4.93,4.93,0,0,1,89.47,69L35.58,100l-11.16,6.44c-1.22.7-2.22.14-2.22-1.29V59.82A4.93,4.93,0,0,1,24.44,56Z"/><path class="cls-2" d="M24.44,56h0Zm66-36.88a1.22,1.22,0,0,0-.52.17l-65,37.53h0a4,4,0,0,0-1.76,3l0,45.36c0,.37.1.58.18.63a.79.79,0,0,0,.64-.15L89,68.14a4.08,4.08,0,0,0,1.75-3l0-45.36a.83.83,0,0,0-.18-.63l-.12,0ZM23.43,107.71a2.12,2.12,0,0,1-1.06-.27,2.49,2.49,0,0,1-1.11-2.26V59.82A5.89,5.89,0,0,1,24,55.15L89,17.63a2.28,2.28,0,0,1,3.64,2.1l0,45.36a5.86,5.86,0,0,1-2.71,4.67l-65,37.53A3,3,0,0,1,23.43,107.71Z"/><polygon class="cls-4" points="34.41 61.83 79.52 35.78 79.52 66.88 34.41 92.93 34.41 61.83"/><path class="cls-2" d="M35.34,62.38V91.31l43.25-25V37.41l-43.25,25Zm-.94,31.5a1,1,0,0,1-.47-.13,1,1,0,0,1-.47-.82V61.83a.94.94,0,0,1,.47-.81L79.06,35a.94.94,0,0,1,1.4.81v31.1a.93.93,0,0,1-.47.82L34.87,93.75A1,1,0,0,1,34.4,93.88Z"/><polygon class="cls-3" points="34.41 61.83 79.52 35.78 79.52 31.3 34.41 57.35 34.41 61.83"/><path class="cls-2" d="M35.34,57.88v2.33l43.25-25V32.92l-43.25,25Zm-.94,4.89a.9.9,0,0,1-.47-.13.92.92,0,0,1-.47-.81V57.35a.92.92,0,0,1,.47-.81l45.13-26a.94.94,0,0,1,1.4.81v4.48a.94.94,0,0,1-.47.82l-45.12,26A.9.9,0,0,1,34.4,62.77Z"/><path class="cls-5" d="M45.84,62.64h0c.61-.35,1.11-.06,1.11.64h0a2.44,2.44,0,0,1-1.11,1.91h0c-.61.35-1.11.07-1.11-.64h0A2.46,2.46,0,0,1,45.84,62.64Z"/><path class="cls-6" d="M45.84,62.64h0Zm-.5,3.64a1.64,1.64,0,0,1-.75-.19,1.71,1.71,0,0,1-.79-1.54,3.34,3.34,0,0,1,1.58-2.72,1.6,1.6,0,0,1,2.51,1.45A3.4,3.4,0,0,1,46.31,66,2,2,0,0,1,45.34,66.28Z"/><path class="cls-5" d="M45.84,69.51h0c.61-.36,1.11-.07,1.11.63h0a2.43,2.43,0,0,1-1.11,1.91h0c-.61.36-1.11.07-1.11-.63h0A2.43,2.43,0,0,1,45.84,69.51Z"/><path class="cls-6" d="M45.84,69.51h0Zm-.5,3.64a1.53,1.53,0,0,1-.75-.2,1.69,1.69,0,0,1-.79-1.53,3.36,3.36,0,0,1,1.58-2.73,1.6,1.6,0,0,1,2.51,1.45,3.37,3.37,0,0,1-1.58,2.73A1.89,1.89,0,0,1,45.34,73.15Z"/><path class="cls-5" d="M45.84,76.8h0c.61-.35,1.11-.07,1.11.63h0a2.48,2.48,0,0,1-1.11,1.92h0c-.61.35-1.11.06-1.11-.63h0A2.43,2.43,0,0,1,45.84,76.8Z"/><path class="cls-6" d="M45.84,76.8h0Zm-.5,3.64a1.53,1.53,0,0,1-.75-.2,1.68,1.68,0,0,1-.79-1.52A3.33,3.33,0,0,1,45.38,76a1.65,1.65,0,0,1,1.71-.08,1.69,1.69,0,0,1,.8,1.52,3.39,3.39,0,0,1-1.58,2.73A2,2,0,0,1,45.34,80.44Z"/><path class="cls-1" d="M139.7,100.4V104a3.85,3.85,0,0,1-1.94,2.25l-65.9,38.06a9.86,9.86,0,0,1-4.55,1.14,10,10,0,0,1-5.22-1.15l-40.46-23.4a3.9,3.9,0,0,1-1.94-2.26V115a3.88,3.88,0,0,0,1.94,2.25l40.46,23.4a10.14,10.14,0,0,0,5.22,1.17,9.88,9.88,0,0,0,4.55-1.16l65.9-38A3.88,3.88,0,0,0,139.7,100.4Z"/><path class="cls-2" d="M20.63,118.46a2.9,2.9,0,0,0,1.49,1.59l40.44,23.39a9.12,9.12,0,0,0,4.74,1,8.82,8.82,0,0,0,4.11-1l65.88-38a3,3,0,0,0,1.48-1.58v-.71c-.18.12-.35.24-.53.34L72.33,141.51a11.69,11.69,0,0,1-10.7,0L21.16,118.1c-.17-.11-.36-.22-.53-.35v.71Zm46.49,27.9a10.88,10.88,0,0,1-5.49-1.29L21.16,121.66a4.82,4.82,0,0,1-2.38-2.8,1.09,1.09,0,0,1,0-.26V115a.93.93,0,0,1,.81-.93,1,1,0,0,1,1,.67,2.89,2.89,0,0,0,1.53,1.71l40.44,23.39a8.92,8.92,0,0,0,4.74,1,8.82,8.82,0,0,0,4.11-1l65.88-38a2.9,2.9,0,0,0,1.51-1.7,1,1,0,0,1,1-.67.94.94,0,0,1,.8.93V104a.75.75,0,0,1,0,.26,4.74,4.74,0,0,1-2.36,2.79L72.33,145.07a10.59,10.59,0,0,1-5,1.29Z"/><path class="cls-3" d="M21.63,111.63l65.89-38a10.87,10.87,0,0,1,9.78,0L137.76,97c2.69,1.57,2.69,4.11,0,5.66l-65.9,38a10.81,10.81,0,0,1-9.77,0l-40.46-23.4C18.94,115.74,18.94,113.19,21.63,111.63Z"/><path class="cls-2" d="M21.63,111.63h0Zm.47.82a2.62,2.62,0,0,0-1.55,2,2.59,2.59,0,0,0,1.55,2l40.46,23.4a9.92,9.92,0,0,0,8.84,0l65.89-38a2.08,2.08,0,0,0,0-4L96.83,74.41a9.87,9.87,0,0,0-8.83,0l-65.9,38ZM67,142.79a11,11,0,0,1-5.36-1.28L21.16,118.1a3.9,3.9,0,0,1,0-7.27l65.89-38a11.84,11.84,0,0,1,10.72,0l40.46,23.41a3.9,3.9,0,0,1,0,7.27l-65.9,38.05A10.94,10.94,0,0,1,67,142.79Z"/><polygon class="cls-7" points="92.47 124.94 110.5 114.53 96.69 106.55 78.67 116.96 92.47 124.94"/><path class="cls-2" d="M80.54,117l11.93,6.91,16.15-9.34-11.93-6.89L80.54,117Zm11.93,8.92a.94.94,0,0,1-.47-.12l-13.8-8a.93.93,0,0,1,0-1.62l18-10.42a.93.93,0,0,1,.94,0l13.8,8a.93.93,0,0,1,0,1.62l-18,10.42A1,1,0,0,1,92.47,125.88Z"/><path class="cls-7" d="M29.88,113q30-17.29,59.9-34.6a5.78,5.78,0,0,1,5.22,0l20.42,11.81c1.43.83,1.43,2.19,0,3l-59.89,34.6a5.75,5.75,0,0,1-5.22,0L29.88,116C28.45,115.14,28.45,113.79,29.88,113Z"/><path class="cls-2" d="M29.88,113l.47.81c-.37.22-.6.49-.6.7s.23.48.6.7L50.77,127a4.94,4.94,0,0,0,4.28,0L115,92.37c.37-.21.6-.48.6-.69s-.23-.48-.6-.69L94.53,79.17a4.94,4.94,0,0,0-4.28,0l-59.9,34.6-.47-.81Zm23,16.39a6.24,6.24,0,0,1-3.08-.75L29.41,116.79a2.51,2.51,0,0,1,0-4.64l59.89-34.6a6.68,6.68,0,0,1,6.15,0l20.43,11.81a2.51,2.51,0,0,1,0,4.64L56,128.6A6.21,6.21,0,0,1,52.91,129.35Z"/><path class="cls-4" d="M56.18,109.65l2.94-1.7a2.41,2.41,0,0,1,2.16,0l2.94,1.7a.66.66,0,0,1,0,1.24l-2.95,1.7a2.33,2.33,0,0,1-2.15,0l-2.94-1.7A.66.66,0,0,1,56.18,109.65Z"/><path class="cls-2" d="M57,110.27l2.61,1.51a1.52,1.52,0,0,0,1.22,0l2.6-1.51-2.6-1.51a1.52,1.52,0,0,0-1.22,0L57,110.27Zm3.22,3.52a3.18,3.18,0,0,1-1.55-.38l-2.94-1.71a1.59,1.59,0,0,1,0-2.87h0l2.95-1.7a3.31,3.31,0,0,1,3.09,0l2.94,1.7a1.59,1.59,0,0,1,0,2.88l-2.95,1.7A3.17,3.17,0,0,1,60.2,113.79Z"/><path class="cls-4" d="M44.61,116.33,41.67,118a.66.66,0,0,0,0,1.24l2.94,1.7a2.39,2.39,0,0,0,2.15,0l3-1.7a.65.65,0,0,0,0-1.24l-2.95-1.7A2.35,2.35,0,0,0,44.61,116.33Z"/><path class="cls-2" d="M42.47,118.65l2.61,1.51a1.5,1.5,0,0,0,1.21,0l2.62-1.51-2.62-1.51a1.42,1.42,0,0,0-1.21,0l-2.61,1.51Zm3.22,3.52a3.07,3.07,0,0,1-1.54-.39l-3-1.7a1.69,1.69,0,0,1-.91-1.43,1.68,1.68,0,0,1,.92-1.44l2.95-1.7h0a3.31,3.31,0,0,1,3.09,0l2.95,1.7a1.7,1.7,0,0,1,.91,1.44,1.66,1.66,0,0,1-.92,1.43l-3,1.7A3,3,0,0,1,45.69,122.17Z"/><path class="cls-4" d="M51.86,120.51l-2.94,1.7c-.59.36-.59.91,0,1.25l2.94,1.7a2.39,2.39,0,0,0,2.15,0L57,123.47a.66.66,0,0,0,0-1.25L54,120.51A2.41,2.41,0,0,0,51.86,120.51Z"/><path class="cls-2" d="M49.72,122.84l2.61,1.51a1.45,1.45,0,0,0,1.22,0l2.6-1.51-2.6-1.51a1.45,1.45,0,0,0-1.22,0l-2.61,1.51Zm3.21,3.51a3.16,3.16,0,0,1-1.54-.37l-2.94-1.71a1.63,1.63,0,0,1-.91-1.43,1.66,1.66,0,0,1,.91-1.43l2.94-1.71h0a3.39,3.39,0,0,1,3.1,0l2.94,1.71a1.58,1.58,0,0,1,0,2.86l-3,1.71A3.17,3.17,0,0,1,52.93,126.35Z"/><path class="cls-4" d="M46.77,112.59l2.95-1.71a.65.65,0,0,0,0-1.23L46.77,108a2.34,2.34,0,0,0-2.14,0l-3,1.7a.65.65,0,0,0,0,1.24l2.94,1.71A2.33,2.33,0,0,0,46.77,112.59Z"/><path class="cls-2" d="M42.48,110.26l2.61,1.52a1.5,1.5,0,0,0,1.21,0l2.61-1.51-2.61-1.52a1.59,1.59,0,0,0-1.21,0l-2.61,1.51Zm4.29,2.33h0Zm-1.08,1.19a3.16,3.16,0,0,1-1.54-.37L41.2,111.7a1.59,1.59,0,0,1,0-2.87l2.95-1.7a3.31,3.31,0,0,1,3.09,0l2.95,1.7a1.59,1.59,0,0,1,0,2.87l-2.95,1.71h0A3.17,3.17,0,0,1,45.69,113.78Z"/><path class="cls-4" d="M54,108.4,57,106.7a.65.65,0,0,0,0-1.24L54,103.75a2.43,2.43,0,0,0-2.15,0l-3,1.71c-.59.33-.59.89,0,1.24l3,1.7A2.31,2.31,0,0,0,54,108.4Z"/><path class="cls-2" d="M49.73,106.07l2.61,1.52a1.42,1.42,0,0,0,1.21,0l2.62-1.51-2.61-1.51a1.48,1.48,0,0,0-1.22,0l-2.61,1.5ZM54,108.4h0ZM53,109.6a3.17,3.17,0,0,1-1.54-.38l-2.95-1.71a1.68,1.68,0,0,1-.91-1.44,1.65,1.65,0,0,1,.91-1.42l2.95-1.7a3.31,3.31,0,0,1,3.09,0l3,1.7a1.57,1.57,0,0,1,0,2.86l-2.95,1.71h0A3.14,3.14,0,0,1,53,109.6Z"/><path class="cls-4" d="M42.46,115.08l-2.94,1.7a2.41,2.41,0,0,1-2.16,0l-2.94-1.71a.65.65,0,0,1,0-1.23l2.95-1.71a2.39,2.39,0,0,1,2.15,0l2.94,1.71A.65.65,0,0,1,42.46,115.08Z"/><path class="cls-2" d="M35.23,114.45,37.84,116a1.5,1.5,0,0,0,1.21,0l2.61-1.51-2.61-1.52a1.5,1.5,0,0,0-1.21,0l-2.61,1.51ZM38.44,118a3.24,3.24,0,0,1-1.55-.39L34,115.89A1.58,1.58,0,0,1,34,113l2.94-1.7a3.31,3.31,0,0,1,3.09,0l2.94,1.7a1.66,1.66,0,0,1,.91,1.44,1.67,1.67,0,0,1-.91,1.43L40,117.59A3.24,3.24,0,0,1,38.44,118Z"/><path class="cls-4" d="M48.93,113.84l2.94-1.7a2.33,2.33,0,0,1,2.15,0l2.95,1.7a.66.66,0,0,1,0,1.24L54,116.78a2.39,2.39,0,0,1-2.15,0l-2.94-1.7A.66.66,0,0,1,48.93,113.84Z"/><path class="cls-2" d="M49.72,114.46,52.33,116a1.52,1.52,0,0,0,1.22,0l2.61-1.51L53.55,113a1.5,1.5,0,0,0-1.21,0l-2.62,1.51ZM53,118a3.08,3.08,0,0,1-1.55-.39l-2.95-1.7a1.59,1.59,0,0,1,0-2.87h0l3-1.7a3.32,3.32,0,0,1,3.08,0L57.44,113a1.67,1.67,0,0,1,.91,1.43,1.71,1.71,0,0,1-.91,1.44l-2.95,1.69A3.07,3.07,0,0,1,53,118Z"/><path class="cls-4" d="M70.68,101.27l2.95-1.7a2.39,2.39,0,0,1,2.15,0l2.94,1.71c.6.33.6.89,0,1.24l-2.94,1.69a2.33,2.33,0,0,1-2.15,0l-2.95-1.69A.66.66,0,0,1,70.68,101.27Z"/><path class="cls-2" d="M70.68,101.27h0Zm.81.62,2.61,1.51a1.42,1.42,0,0,0,1.21,0l2.61-1.51-2.61-1.5a1.42,1.42,0,0,0-1.21,0l-2.61,1.5Zm3.21,3.52a3.11,3.11,0,0,1-1.54-.38l-3-1.71a1.58,1.58,0,0,1,0-2.86l3-1.7a3.33,3.33,0,0,1,3.1,0l2.94,1.7a1.67,1.67,0,0,1,.91,1.43,1.66,1.66,0,0,1-.92,1.44l-3,1.7A3.17,3.17,0,0,1,74.7,105.41Z"/><path class="cls-4" d="M77.93,105.47l2.95-1.71a2.39,2.39,0,0,1,2.15,0L86,105.47a.65.65,0,0,1,0,1.24L83,108.41a2.41,2.41,0,0,1-2.16,0l-2.94-1.71A.65.65,0,0,1,77.93,105.47Z"/><path class="cls-2" d="M77.93,105.47h0Zm.8.61,2.61,1.52a1.5,1.5,0,0,0,1.21,0l2.62-1.51-2.61-1.52a1.57,1.57,0,0,0-1.22,0l-2.61,1.51ZM82,109.6a3.13,3.13,0,0,1-1.56-.38l-2.94-1.7a1.59,1.59,0,0,1,0-2.87l3-1.7a3.31,3.31,0,0,1,3.09,0l2.94,1.7a1.58,1.58,0,0,1,0,2.87l-2.94,1.7A3.09,3.09,0,0,1,82,109.6Z"/><path class="cls-4" d="M61.28,104.21l3-1.7a.66.66,0,0,0,0-1.24l-3-1.7a2.39,2.39,0,0,0-2.15,0l-3,1.69a.66.66,0,0,0,0,1.25l3,1.7A2.33,2.33,0,0,0,61.28,104.21Z"/><path class="cls-2" d="M57,101.89l2.62,1.51a1.42,1.42,0,0,0,1.21,0h0l2.61-1.51-2.61-1.51a1.5,1.5,0,0,0-1.21,0L57,101.89Zm3.22,3.52a3.17,3.17,0,0,1-1.54-.38l-2.94-1.71a1.65,1.65,0,0,1-.92-1.43,1.63,1.63,0,0,1,.92-1.43l2.94-1.71a3.34,3.34,0,0,1,3.09,0l3,1.7a1.68,1.68,0,0,1,.91,1.43,1.66,1.66,0,0,1-.92,1.43L61.75,105A3.18,3.18,0,0,1,60.2,105.41Z"/><path class="cls-4" d="M68.54,100l2.94-1.7a.66.66,0,0,0,0-1.25l-2.94-1.7a2.41,2.41,0,0,0-2.16,0l-2.94,1.7a.66.66,0,0,0,0,1.24L66.38,100A2.41,2.41,0,0,0,68.54,100Z"/><path class="cls-2" d="M64.24,97.7l2.61,1.51a1.45,1.45,0,0,0,1.22,0l2.6-1.51-2.6-1.51a1.45,1.45,0,0,0-1.22,0L64.24,97.7Zm4.3,2.33h0Zm-1.08,1.19a3.07,3.07,0,0,1-1.55-.38L63,99.13a1.57,1.57,0,0,1,0-2.86l2.94-1.7a3.33,3.33,0,0,1,3.1,0L72,96.27a1.58,1.58,0,0,1,0,2.86l-3,1.71h0A3.06,3.06,0,0,1,67.46,101.22Z"/><path class="cls-4" d="M63.43,105.46l2.94-1.7a2.41,2.41,0,0,1,2.16,0l2.94,1.7a.66.66,0,0,1,0,1.24l-2.94,1.7a2.35,2.35,0,0,1-2.16,0l-2.94-1.7A.66.66,0,0,1,63.43,105.46Z"/><path class="cls-2" d="M63.43,105.46h0Zm.8.62,2.61,1.52a1.48,1.48,0,0,0,1.22,0l2.61-1.51-2.61-1.51a1.52,1.52,0,0,0-1.22,0l-2.61,1.51Zm3.22,3.52a3.18,3.18,0,0,1-1.55-.38L63,107.51a1.58,1.58,0,0,1,0-2.86L65.9,103a3.33,3.33,0,0,1,3.1,0l2.94,1.7a1.66,1.66,0,0,1,.91,1.43,1.69,1.69,0,0,1-.91,1.44l-3,1.7A3.17,3.17,0,0,1,67.45,109.6Z"/><path class="cls-4" d="M56.17,118,73.62,108a2.39,2.39,0,0,1,2.15,0l3,1.71a.66.66,0,0,1,0,1.24L61.27,121a2.48,2.48,0,0,1-2.16,0l-2.94-1.71A.66.66,0,0,1,56.17,118Z"/><path class="cls-2" d="M57,118.65l2.6,1.51a1.45,1.45,0,0,0,1.22,0l17.11-9.88-2.61-1.52a1.48,1.48,0,0,0-1.2,0L57,118.65Zm3.2,3.52a3.17,3.17,0,0,1-1.54-.38l-2.94-1.71a1.58,1.58,0,0,1,0-2.86h0l17.45-10.09a3.29,3.29,0,0,1,3.08,0l3,1.7a1.58,1.58,0,0,1,0,2.87L61.73,121.79A3.18,3.18,0,0,1,60.18,122.17Z"/><path class="cls-4" d="M94.79,87.33l2.95-1.7a2.46,2.46,0,0,1,2.15,0l2.94,1.71a.65.65,0,0,1,0,1.24l-2.94,1.7a2.33,2.33,0,0,1-2.15,0l-2.95-1.7A.66.66,0,0,1,94.79,87.33Z"/><path class="cls-2" d="M94.79,87.33h0Zm.8.63,2.62,1.51a1.42,1.42,0,0,0,1.21,0L102,88l-2.61-1.51a1.5,1.5,0,0,0-1.21,0L95.59,88Zm3.22,3.52a3.07,3.07,0,0,1-1.54-.39l-3-1.7A1.65,1.65,0,0,1,93.41,88a1.68,1.68,0,0,1,.91-1.43l3-1.7a3.28,3.28,0,0,1,3.09,0l3,1.7a1.58,1.58,0,0,1,0,2.87l-2.94,1.69A3.13,3.13,0,0,1,98.81,91.48Z"/><path class="cls-4" d="M102.05,91.53l2.94-1.7a2.39,2.39,0,0,1,2.15,0l2.94,1.71c.6.34.6.89,0,1.23l-3,1.71a2.36,2.36,0,0,1-2.15,0L102,92.77A.65.65,0,0,1,102.05,91.53Z"/><path class="cls-2" d="M102.05,91.53h0Zm.79.62,2.61,1.52a1.57,1.57,0,0,0,1.22,0l2.6-1.51-2.6-1.52a1.52,1.52,0,0,0-1.22,0l-2.61,1.51Zm3.22,3.52a3.2,3.2,0,0,1-1.55-.38l-2.94-1.7a1.59,1.59,0,0,1,0-2.87l2.94-1.7a3.33,3.33,0,0,1,3.1,0l2.94,1.7a1.59,1.59,0,0,1,0,2.87l-3,1.7A3.17,3.17,0,0,1,106.06,95.67Z"/><path class="cls-4" d="M92.64,86.1l3-1.71a.66.66,0,0,0,0-1.25l-3-1.7a2.39,2.39,0,0,0-2.15,0l-2.94,1.7c-.6.35-.6.91,0,1.25l2.94,1.71A2.48,2.48,0,0,0,92.64,86.1Z"/><path class="cls-2" d="M88.35,83.77,91,85.28a1.46,1.46,0,0,0,1.21,0h0l2.61-1.51-2.61-1.51a1.42,1.42,0,0,0-1.21,0l-2.61,1.51Zm3.21,3.51A3.06,3.06,0,0,1,90,86.9l-3-1.7a1.59,1.59,0,0,1,0-2.87l3-1.7a3.28,3.28,0,0,1,3.09,0l3,1.7a1.58,1.58,0,0,1,0,2.86l-3,1.7A3.1,3.1,0,0,1,91.56,87.28Z"/><path class="cls-4" d="M87.54,91.53l2.94-1.7a2.41,2.41,0,0,1,2.16,0l2.94,1.7a.66.66,0,0,1,0,1.24l-2.94,1.7a2.35,2.35,0,0,1-2.16,0l-2.94-1.7A.66.66,0,0,1,87.54,91.53Z"/><path class="cls-2" d="M87.54,91.53h0Zm.81.62L91,93.66a1.46,1.46,0,0,0,1.21,0l2.61-1.51-2.61-1.51a1.5,1.5,0,0,0-1.21,0l-2.61,1.51Zm3.21,3.52A3.23,3.23,0,0,1,90,95.29l-2.94-1.7a1.71,1.71,0,0,1-.91-1.44,1.67,1.67,0,0,1,.91-1.43L90,89a3.31,3.31,0,0,1,3.09,0l2.94,1.7A1.63,1.63,0,0,1,97,92.15a1.68,1.68,0,0,1-.91,1.44l-2.94,1.7A3.2,3.2,0,0,1,91.56,95.67Z"/><path class="cls-4" d="M94.79,95.72,97.74,94a2.39,2.39,0,0,1,2.15,0l2.94,1.71c.6.34.6.9,0,1.23l-3,1.71a2.39,2.39,0,0,1-2.15,0L94.79,97A.65.65,0,0,1,94.79,95.72Z"/><path class="cls-2" d="M94.79,95.72h0Zm.8.62,2.61,1.52a1.57,1.57,0,0,0,1.22,0L102,96.35l-2.61-1.52a1.5,1.5,0,0,0-1.21,0l-2.62,1.51Zm3.22,3.52a3.17,3.17,0,0,1-1.54-.38l-3-1.7a1.59,1.59,0,0,1,0-2.88l3-1.7a3.34,3.34,0,0,1,3.09,0l2.94,1.71a1.59,1.59,0,0,1,0,2.87l-3,1.7A3.17,3.17,0,0,1,98.81,99.86Z"/><path class="cls-4" d="M78.13,94.47l3-1.7a.66.66,0,0,0,0-1.24l-3-1.71a2.37,2.37,0,0,0-2.14,0L73,91.52a.66.66,0,0,0,0,1.25L76,94.47A2.31,2.31,0,0,0,78.13,94.47Z"/><path class="cls-2" d="M73.84,92.14l2.62,1.52a1.5,1.5,0,0,0,1.21,0l2.61-1.51-2.61-1.51a1.42,1.42,0,0,0-1.21,0l-2.62,1.5Zm4.29,2.33h0Zm-1.07,1.19a3.17,3.17,0,0,1-1.54-.38l-3-1.7a1.59,1.59,0,0,1,0-2.87l3-1.7a3.31,3.31,0,0,1,3.09,0l3,1.7a1.58,1.58,0,0,1,0,2.86l-3,1.7h0A3.2,3.2,0,0,1,77.06,95.66Z"/><path class="cls-4" d="M85.39,90.28l3-1.7a.66.66,0,0,0,0-1.25l-3-1.7a2.43,2.43,0,0,0-2.15,0l-2.94,1.7a.66.66,0,0,0,0,1.25l2.94,1.7A2.39,2.39,0,0,0,85.39,90.28Z"/><path class="cls-2" d="M81.1,88l2.61,1.52a1.42,1.42,0,0,0,1.21,0h0L87.53,88l-2.61-1.51a1.42,1.42,0,0,0-1.21,0L81.1,88Zm3.22,3.53a3.08,3.08,0,0,1-1.55-.39l-2.94-1.7A1.66,1.66,0,0,1,78.91,88a1.64,1.64,0,0,1,.92-1.42l2.94-1.7a3.31,3.31,0,0,1,3.09,0l3,1.7a1.58,1.58,0,0,1,0,2.86l-3,1.7A3.07,3.07,0,0,1,84.32,91.48Z"/><path class="cls-4" d="M80.3,95.72,83.24,94a2.39,2.39,0,0,1,2.15,0l3,1.7a.65.65,0,0,1,0,1.24l-2.94,1.7a2.41,2.41,0,0,1-2.16,0L80.29,97A.65.65,0,0,1,80.3,95.72Z"/><path class="cls-2" d="M81.09,96.34l2.61,1.52a1.52,1.52,0,0,0,1.22,0l2.6-1.52-2.6-1.51a1.54,1.54,0,0,0-1.21,0l-2.62,1.52Zm3.22,3.52a3.18,3.18,0,0,1-1.55-.38l-2.94-1.7a1.59,1.59,0,0,1,0-2.88h0l2.94-1.7a3.31,3.31,0,0,1,3.09,0l3,1.71a1.59,1.59,0,0,1,0,2.87l-2.94,1.7A3.2,3.2,0,0,1,84.31,99.86Z"/><path class="cls-4" d="M87.54,99.91l2.94-1.7a2.35,2.35,0,0,1,2.16,0l2.94,1.7c.59.35.59.91,0,1.24l-2.94,1.71a2.41,2.41,0,0,1-2.16,0l-2.94-1.71C87,100.81,87,100.26,87.54,99.91Z"/><path class="cls-2" d="M88.34,100.53,91,102a1.42,1.42,0,0,0,1.21,0l2.61-1.5L92.17,99A1.42,1.42,0,0,0,91,99l-2.62,1.51Zm3.21,3.52a3,3,0,0,1-1.54-.39L87.07,102a1.65,1.65,0,0,1-.91-1.42,1.68,1.68,0,0,1,.91-1.44h0l3-1.7a3.31,3.31,0,0,1,3.09,0l2.94,1.7a1.68,1.68,0,0,1,.91,1.44,1.64,1.64,0,0,1-.91,1.42l-2.94,1.7A3,3,0,0,1,91.55,104.05Z"/><path class="cls-1" d="M67.36,145.41v-3.55h0a10.18,10.18,0,0,1-5.22-1.17l-40.46-23.4A3.84,3.84,0,0,1,19.69,115v3.56a3.86,3.86,0,0,0,1.94,2.26l40.46,23.4a10.07,10.07,0,0,0,5.22,1.15Z"/><path class="cls-2" d="M20.63,118.46a2.94,2.94,0,0,0,1.49,1.59l40.44,23.39a8.61,8.61,0,0,0,3.86,1v-1.7a10.52,10.52,0,0,1-4.79-1.26L21.16,118.1c-.17-.11-.36-.22-.53-.35v.71Zm46.73,27h0Zm-.24,1a10.85,10.85,0,0,1-5.49-1.29L21.16,121.66a4.81,4.81,0,0,1-2.37-2.8.75.75,0,0,1,0-.26V115a.94.94,0,0,1,1.84-.26,2.93,2.93,0,0,0,1.53,1.71l40.44,23.39a9,9,0,0,0,4.74,1,1.09,1.09,0,0,1,.69.27.9.9,0,0,1,.31.67v3.55a.94.94,0,0,1-.89,1h-.29Z"/><path class="cls-2" d="M50.11,69.25a.93.93,0,0,1-.47-1.74L67.28,57.32a.94.94,0,1,1,.94,1.62L50.58,69.13A1,1,0,0,1,50.11,69.25Z"/><path class="cls-2" d="M50.11,62.39a.94.94,0,0,1-.81-.47.92.92,0,0,1,.34-1.27L67.28,50.46a.92.92,0,0,1,1.28.33.94.94,0,0,1-.34,1.29L50.58,62.26A.9.9,0,0,1,50.11,62.39Z"/><path class="cls-2" d="M50.11,76.55a.94.94,0,0,1-.47-1.75l14.27-8.24a.92.92,0,0,1,1.28.34.94.94,0,0,1-.35,1.28L50.58,76.42A.9.9,0,0,1,50.11,76.55Z"/></svg>