<svg id="Calque_1" data-name="Calque 1" xmlns="http://www.w3.org/2000/svg" viewBox="0 0 155.91 155.91"><defs><style>.cls-1{fill:#cce5ce;}.cls-1,.cls-2,.cls-3,.cls-4{stroke:#2d2b6f;stroke-linecap:round;stroke-linejoin:round;stroke-width:2px;}.cls-2{fill:#8ec89a;}.cls-3{fill:none;}.cls-4{fill:#8f84ae;}</style></defs><polygon class="cls-1" points="144.91 69.18 69.92 112.42 13.8 79.99 88.69 36.76 144.91 69.18"/><polygon class="cls-2" points="69.97 126.6 13.8 94.18 13.8 79.99 69.97 112.42 69.97 126.6"/><polygon class="cls-2" points="144.91 83.37 69.97 126.72 69.97 112.53 144.91 69.18 144.91 83.37"/><line class="cls-3" x1="20.55" y1="87.22" x2="20.55" y2="94.59"/><line class="cls-3" x1="22.32" y1="88.49" x2="22.32" y2="95.86"/><line class="cls-3" x1="24.09" y1="89.41" x2="24.09" y2="96.78"/><line class="cls-3" x1="25.87" y1="90.46" x2="25.87" y2="97.83"/><line class="cls-3" x1="27.64" y1="91.46" x2="27.64" y2="98.83"/><line class="cls-3" x1="29.42" y1="92.35" x2="29.42" y2="99.72"/><line class="cls-3" x1="31.19" y1="93.62" x2="31.19" y2="100.99"/><line class="cls-3" x1="32.96" y1="94.76" x2="32.96" y2="102.13"/><line class="cls-3" x1="34.74" y1="95.81" x2="34.74" y2="103.18"/><line class="cls-3" x1="36.51" y1="96.81" x2="36.51" y2="104.18"/><line class="cls-3" x1="45.32" y1="101.63" x2="45.32" y2="109"/><line class="cls-3" x1="47.1" y1="102.9" x2="47.1" y2="110.27"/><line class="cls-3" x1="48.87" y1="103.82" x2="48.87" y2="111.18"/><line class="cls-3" x1="50.64" y1="104.86" x2="50.64" y2="112.23"/><line class="cls-3" x1="52.42" y1="105.86" x2="52.42" y2="113.23"/><line class="cls-3" x1="54.19" y1="106.76" x2="54.19" y2="114.13"/><line class="cls-3" x1="55.96" y1="108.02" x2="55.96" y2="115.39"/><line class="cls-3" x1="57.74" y1="109.17" x2="57.74" y2="116.54"/><line class="cls-3" x1="59.51" y1="110.22" x2="59.51" y2="117.59"/><line class="cls-3" x1="61.28" y1="111.22" x2="61.28" y2="118.59"/><polygon class="cls-4" points="85.03 113.58 80.29 116.4 80.29 111.66 81.78 110.77 82.14 109.64 82.95 109.15 83.49 109.76 85.03 108.84 85.03 113.58"/><polygon class="cls-4" points="92.3 108.97 87.56 111.78 87.56 107.04 89.05 106.15 89.4 105.02 90.21 104.54 90.76 105.14 92.3 104.23 92.3 108.97"/><polygon class="cls-4" points="99.56 104.81 94.82 107.62 94.82 102.88 96.32 101.99 96.67 100.86 97.48 100.38 98.03 100.98 99.56 100.07 99.56 104.81"/><polygon class="cls-4" points="106.83 100.7 102.09 103.52 102.09 98.78 103.59 97.89 103.94 96.75 104.75 96.27 105.29 96.88 106.83 95.96 106.83 100.7"/><polygon class="cls-4" points="114.1 96.95 109.36 99.76 109.36 95.02 110.85 94.13 111.21 93 112.02 92.52 112.56 93.12 114.1 92.2 114.1 96.95"/><polygon class="cls-4" points="121.37 92.78 116.63 95.59 116.63 90.85 118.12 89.97 118.47 88.83 119.28 88.35 119.83 88.95 121.37 88.04 121.37 92.78"/><polygon class="cls-4" points="128.63 88.58 123.89 91.4 123.89 86.66 125.39 85.77 125.74 84.63 126.55 84.15 127.1 84.75 128.63 83.84 128.63 88.58"/><polygon class="cls-4" points="135.9 84.47 131.16 87.28 131.16 82.54 132.66 81.65 133.01 80.52 133.82 80.03 134.36 80.64 135.9 79.72 135.9 84.47"/></svg>