<svg id="Calque_1" data-name="Calque 1" xmlns="http://www.w3.org/2000/svg" viewBox="0 0 155.91 155.91"><defs><style>.cls-1{fill:#cce5ce;}.cls-1,.cls-2,.cls-3,.cls-4,.cls-5{stroke:#2d2b6f;stroke-linejoin:round;stroke-width:1.5px;}.cls-1,.cls-2,.cls-5{stroke-linecap:square;}.cls-2{fill:#8ec89a;}.cls-3,.cls-4,.cls-5{fill:none;}.cls-3,.cls-4{stroke-linecap:round;}.cls-4{stroke-dasharray:0.05 2.18;}</style></defs><polygon class="cls-1" points="102.75 106.8 130.27 90.89 102.67 74.9 75.14 90.81 102.75 106.8"/><polygon class="cls-1" points="102.71 114.49 130.31 98.54 130.31 90.85 102.71 106.8 102.71 114.49"/><polygon class="cls-2" points="102.71 114.49 75.1 98.54 75.1 90.85 102.71 106.8 102.71 114.49"/><ellipse class="cls-1" cx="106.14" cy="108.67" rx="1.18" ry="1" transform="translate(-40.11 67.63) rotate(-30)"/><ellipse class="cls-1" cx="109.23" cy="106.82" rx="1.18" ry="1" transform="translate(-38.78 68.92) rotate(-30)"/><ellipse class="cls-1" cx="112.31" cy="105.11" rx="1.18" ry="1" transform="translate(-37.51 70.24) rotate(-30)"/><polygon class="cls-2" points="125.31 99.5 128.12 97.87 128.12 94.08 125.31 95.71 125.31 99.5"/><polygon class="cls-1" points="102.75 95.88 130.27 79.97 102.67 63.98 75.14 79.89 102.75 95.88"/><polygon class="cls-1" points="102.71 103.57 130.31 87.62 130.31 79.93 102.71 95.88 102.71 103.57"/><polygon class="cls-2" points="102.71 103.57 75.1 87.62 75.1 79.93 102.71 95.88 102.71 103.57"/><ellipse class="cls-1" cx="106.14" cy="97.75" rx="1.18" ry="1" transform="translate(-34.65 66.17) rotate(-30)"/><ellipse class="cls-1" cx="109.23" cy="95.9" rx="1.18" ry="1" transform="translate(-33.32 67.46) rotate(-30)"/><ellipse class="cls-1" cx="112.31" cy="94.18" rx="1.18" ry="1" transform="translate(-32.05 68.77) rotate(-30)"/><polygon class="cls-2" points="125.31 88.58 128.12 86.95 128.12 83.16 125.31 84.79 125.31 88.58"/><polygon class="cls-1" points="102.75 84.96 130.27 69.04 102.67 53.05 75.14 68.97 102.75 84.96"/><polygon class="cls-1" points="102.71 92.64 130.31 76.7 130.31 69.01 102.71 84.95 102.71 92.64"/><polygon class="cls-2" points="102.71 92.64 75.1 76.7 75.1 69.01 102.71 84.95 102.71 92.64"/><ellipse class="cls-1" cx="106.14" cy="86.82" rx="1.18" ry="1" transform="translate(-29.19 64.7) rotate(-30)"/><ellipse class="cls-1" cx="109.23" cy="84.98" rx="1.18" ry="1" transform="translate(-27.86 66) rotate(-30)"/><ellipse class="cls-1" cx="112.31" cy="83.26" rx="1.18" ry="1" transform="translate(-26.59 67.31) rotate(-30)"/><polygon class="cls-2" points="125.31 77.66 128.12 76.03 128.12 72.23 125.31 73.86 125.31 77.66"/><polygon class="cls-1" points="102.75 74.04 130.27 58.12 102.67 42.13 75.14 58.05 102.75 74.04"/><polygon class="cls-1" points="102.71 81.72 130.31 65.78 130.31 58.09 102.71 74.03 102.71 81.72"/><polygon class="cls-2" points="102.71 81.72 75.1 65.78 75.1 58.09 102.71 74.03 102.71 81.72"/><ellipse class="cls-1" cx="106.14" cy="75.9" rx="1.18" ry="1" transform="translate(-23.73 63.24) rotate(-30)"/><ellipse class="cls-1" cx="109.23" cy="74.06" rx="1.18" ry="1" transform="translate(-22.4 64.53) rotate(-30)"/><ellipse class="cls-1" cx="112.31" cy="72.34" rx="1.18" ry="1" transform="translate(-21.12 65.85) rotate(-30)"/><polygon class="cls-2" points="125.31 66.74 128.12 65.11 128.12 61.31 125.31 62.94 125.31 66.74"/><polygon class="cls-1" points="102.75 63.12 130.27 47.2 102.67 31.21 75.14 47.13 102.75 63.12"/><polygon class="cls-1" points="102.71 70.8 130.31 54.86 130.31 47.16 102.71 63.11 102.71 70.8"/><polygon class="cls-2" points="102.71 70.8 75.1 54.86 75.1 47.16 102.71 63.11 102.71 70.8"/><ellipse class="cls-1" cx="106.14" cy="64.98" rx="1.18" ry="1" transform="translate(-18.27 61.78) rotate(-30)"/><ellipse class="cls-1" cx="109.23" cy="63.14" rx="1.18" ry="1" transform="translate(-16.94 63.07) rotate(-30)"/><ellipse class="cls-1" cx="112.31" cy="61.42" rx="1.18" ry="1" transform="translate(-15.66 64.38) rotate(-30)"/><polygon class="cls-2" points="125.31 55.82 128.12 54.19 128.12 50.39 125.31 52.02 125.31 55.82"/><polygon class="cls-1" points="102.75 52.2 130.27 36.28 102.67 20.29 75.14 36.21 102.75 52.2"/><polygon class="cls-1" points="102.71 59.88 130.31 43.94 130.31 36.24 102.71 52.19 102.71 59.88"/><polygon class="cls-2" points="102.71 59.88 75.1 43.94 75.1 36.24 102.71 52.19 102.71 59.88"/><ellipse class="cls-1" cx="106.14" cy="54.06" rx="1.18" ry="1" transform="translate(-12.81 60.31) rotate(-30)"/><ellipse class="cls-1" cx="109.23" cy="52.22" rx="1.18" ry="1" transform="translate(-11.48 61.61) rotate(-30)"/><ellipse class="cls-1" cx="112.31" cy="50.5" rx="1.18" ry="1" transform="translate(-10.2 62.92) rotate(-30)"/><polygon class="cls-2" points="125.31 44.9 128.12 43.27 128.12 39.47 125.31 41.1 125.31 44.9"/><polygon class="cls-1" points="102.75 41.28 130.27 25.36 102.67 9.37 75.14 25.29 102.75 41.28"/><polygon class="cls-1" points="102.71 48.96 130.31 33.01 130.31 25.32 102.71 41.27 102.71 48.96"/><polygon class="cls-2" points="102.71 48.96 75.1 33.01 75.1 25.32 102.71 41.27 102.71 48.96"/><ellipse class="cls-1" cx="106.14" cy="43.14" rx="1.18" ry="1" transform="translate(-7.35 58.85) rotate(-30)"/><ellipse class="cls-1" cx="109.23" cy="41.3" rx="1.18" ry="1" transform="translate(-6.01 60.15) rotate(-30)"/><ellipse class="cls-1" cx="112.31" cy="39.58" rx="1.18" ry="1" transform="translate(-4.74 61.46) rotate(-30)"/><polygon class="cls-2" points="125.31 33.98 128.12 32.35 128.12 28.55 125.31 30.18 125.31 33.98"/><polygon class="cls-1" points="73.53 123.44 101.06 107.52 73.45 91.53 45.92 107.45 73.53 123.44"/><polygon class="cls-1" points="73.49 131.12 101.1 115.17 101.1 107.48 73.49 123.43 73.49 131.12"/><polygon class="cls-2" points="73.49 131.12 45.88 115.17 45.88 107.48 73.49 123.43 73.49 131.12"/><ellipse class="cls-1" cx="76.92" cy="125.3" rx="1.18" ry="1" transform="translate(-52.34 55.25) rotate(-30)"/><ellipse class="cls-1" cx="80.01" cy="123.46" rx="1.18" ry="1" transform="translate(-51.01 56.54) rotate(-30)"/><ellipse class="cls-1" cx="83.09" cy="121.74" rx="1.18" ry="1" transform="translate(-49.74 57.86) rotate(-30)"/><polygon class="cls-2" points="96.09 116.14 98.9 114.51 98.9 110.71 96.09 112.34 96.09 116.14"/><polygon class="cls-1" points="73.53 112.51 101.06 96.6 73.45 80.61 45.92 96.53 73.53 112.51"/><polygon class="cls-1" points="73.49 120.2 101.1 104.25 101.1 96.56 73.49 112.51 73.49 120.2"/><polygon class="cls-2" points="73.49 120.2 45.88 104.25 45.88 96.56 73.49 112.51 73.49 120.2"/><ellipse class="cls-1" cx="76.92" cy="114.38" rx="1.18" ry="1" transform="translate(-46.88 53.79) rotate(-30)"/><ellipse class="cls-1" cx="80.01" cy="112.53" rx="1.18" ry="1" transform="translate(-45.55 55.08) rotate(-30)"/><ellipse class="cls-1" cx="83.09" cy="110.82" rx="1.18" ry="1" transform="translate(-44.28 56.39) rotate(-30)"/><polygon class="cls-2" points="96.09 105.22 98.9 103.59 98.9 99.79 96.09 101.42 96.09 105.22"/><polygon class="cls-1" points="73.53 101.59 101.06 85.68 73.45 69.69 45.92 85.6 73.53 101.59"/><polygon class="cls-1" points="73.49 109.28 101.1 93.33 101.1 85.64 73.49 101.59 73.49 109.28"/><polygon class="cls-2" points="73.49 109.28 45.88 93.33 45.88 85.64 73.49 101.59 73.49 109.28"/><ellipse class="cls-1" cx="76.92" cy="103.46" rx="1.18" ry="1" transform="translate(-41.42 52.32) rotate(-30)"/><ellipse class="cls-1" cx="80.01" cy="101.61" rx="1.18" ry="1" transform="translate(-40.09 53.62) rotate(-30)"/><ellipse class="cls-1" cx="83.09" cy="99.9" rx="1.18" ry="1" transform="translate(-38.82 54.93) rotate(-30)"/><polygon class="cls-2" points="96.09 94.3 98.9 92.66 98.9 88.87 96.09 90.5 96.09 94.3"/><polygon class="cls-1" points="73.53 90.67 101.06 74.75 73.45 58.77 45.92 74.68 73.53 90.67"/><polygon class="cls-1" points="73.49 98.36 101.1 82.41 101.1 74.72 73.49 90.67 73.49 98.36"/><polygon class="cls-2" points="73.49 98.36 45.88 82.41 45.88 74.72 73.49 90.67 73.49 98.36"/><ellipse class="cls-1" cx="76.92" cy="92.54" rx="1.18" ry="1" transform="translate(-35.96 50.86) rotate(-30)"/><ellipse class="cls-1" cx="80.01" cy="90.69" rx="1.18" ry="1" transform="translate(-34.63 52.15) rotate(-30)"/><ellipse class="cls-1" cx="83.09" cy="88.97" rx="1.18" ry="1" transform="translate(-33.36 53.47) rotate(-30)"/><polygon class="cls-2" points="96.09 83.37 98.9 81.74 98.9 77.94 96.09 79.58 96.09 83.37"/><polygon class="cls-1" points="73.53 79.75 101.06 63.83 73.45 47.84 45.92 63.76 73.53 79.75"/><polygon class="cls-1" points="73.49 87.44 101.1 71.49 101.1 63.8 73.49 79.74 73.49 87.44"/><polygon class="cls-2" points="73.49 87.44 45.88 71.49 45.88 63.8 73.49 79.74 73.49 87.44"/><ellipse class="cls-1" cx="76.92" cy="81.62" rx="1.18" ry="1" transform="translate(-30.5 49.4) rotate(-30)"/><ellipse class="cls-1" cx="80.01" cy="79.77" rx="1.18" ry="1" transform="translate(-29.17 50.69) rotate(-30)"/><ellipse class="cls-1" cx="83.09" cy="78.05" rx="1.18" ry="1" transform="translate(-27.89 52) rotate(-30)"/><polygon class="cls-2" points="96.09 72.45 98.9 70.82 98.9 67.02 96.09 68.66 96.09 72.45"/><polygon class="cls-1" points="73.53 68.83 101.06 52.91 73.45 36.92 45.92 52.84 73.53 68.83"/><polygon class="cls-1" points="73.49 76.51 101.1 60.57 101.1 52.88 73.49 68.82 73.49 76.51"/><polygon class="cls-2" points="73.49 76.51 45.88 60.57 45.88 52.88 73.49 68.82 73.49 76.51"/><ellipse class="cls-1" cx="76.92" cy="70.69" rx="1.18" ry="1" transform="translate(-25.04 47.93) rotate(-30)"/><ellipse class="cls-1" cx="80.01" cy="68.85" rx="1.18" ry="1" transform="translate(-23.71 49.23) rotate(-30)"/><ellipse class="cls-1" cx="83.09" cy="67.13" rx="1.18" ry="1" transform="translate(-22.43 50.54) rotate(-30)"/><polygon class="cls-2" points="96.09 61.53 98.9 59.9 98.9 56.1 96.09 57.73 96.09 61.53"/><polygon class="cls-1" points="73.53 57.91 101.06 41.99 73.45 26 45.92 41.92 73.53 57.91"/><polygon class="cls-1" points="73.49 65.59 101.1 49.65 101.1 41.95 73.49 57.9 73.49 65.59"/><polygon class="cls-2" points="73.49 65.59 45.88 49.65 45.88 41.95 73.49 57.9 73.49 65.59"/><ellipse class="cls-1" cx="76.92" cy="59.77" rx="1.18" ry="1" transform="translate(-19.58 46.47) rotate(-30)"/><ellipse class="cls-1" cx="80.01" cy="57.93" rx="1.18" ry="1" transform="translate(-18.25 47.76) rotate(-30)"/><ellipse class="cls-1" cx="83.09" cy="56.21" rx="1.18" ry="1" transform="translate(-16.97 49.08) rotate(-30)"/><polygon class="cls-2" points="96.09 50.61 98.9 48.98 98.9 45.18 96.09 46.81 96.09 50.61"/><polygon class="cls-1" points="44.48 74.73 72.01 58.81 44.4 42.83 16.88 58.74 44.48 74.73"/><polygon class="cls-1" points="44.44 148 72.05 132.05 72.05 58.78 44.44 74.72 44.44 148"/><polygon class="cls-2" points="44.44 148 16.84 132.05 16.84 58.78 44.44 74.72 44.44 148"/><polygon class="cls-1" points="46.56 91.11 71.5 76.72 71.5 62.44 46.56 76.83 46.56 91.11"/><line class="cls-3" x1="68.83" y1="67.9" x2="68.81" y2="67.91"/><line class="cls-4" x1="66.92" y1="69" x2="50.44" y2="78.52"/><line class="cls-3" x1="49.49" y1="79.06" x2="49.47" y2="79.08"/><line class="cls-3" x1="68.83" y1="70.28" x2="68.81" y2="70.29"/><line class="cls-4" x1="66.92" y1="71.38" x2="50.44" y2="80.9"/><line class="cls-3" x1="49.49" y1="81.44" x2="49.47" y2="81.46"/><line class="cls-3" x1="68.83" y1="72.65" x2="68.81" y2="72.67"/><line class="cls-4" x1="66.92" y1="73.76" x2="50.44" y2="83.27"/><line class="cls-3" x1="49.49" y1="83.82" x2="49.47" y2="83.83"/><line class="cls-3" x1="68.83" y1="75.03" x2="68.81" y2="75.05"/><line class="cls-4" x1="66.92" y1="76.14" x2="50.44" y2="85.65"/><line class="cls-3" x1="49.49" y1="86.2" x2="49.47" y2="86.21"/><path class="cls-5" d="M47.15,87.5h0a1.85,1.85,0,0,0,2-1.72V81.56a1.85,1.85,0,0,0-2-1.71h0"/><path class="cls-5" d="M70.35,75h0a1.85,1.85,0,0,0,2-1.71V69.07a1.85,1.85,0,0,0-2-1.72h0"/><polygon class="cls-1" points="46.56 108.56 71.5 94.17 71.5 79.89 46.56 94.28 46.56 108.56"/><line class="cls-3" x1="68.83" y1="85.35" x2="68.81" y2="85.37"/><line class="cls-4" x1="66.92" y1="86.46" x2="50.44" y2="95.97"/><line class="cls-3" x1="49.49" y1="96.52" x2="49.47" y2="96.53"/><line class="cls-3" x1="68.83" y1="87.73" x2="68.81" y2="87.74"/><line class="cls-4" x1="66.92" y1="88.84" x2="50.44" y2="98.35"/><line class="cls-3" x1="49.49" y1="98.9" x2="49.47" y2="98.91"/><line class="cls-3" x1="68.83" y1="90.11" x2="68.81" y2="90.12"/><line class="cls-4" x1="66.92" y1="91.21" x2="50.44" y2="100.73"/><line class="cls-3" x1="49.49" y1="101.27" x2="49.47" y2="101.29"/><line class="cls-3" x1="68.83" y1="92.49" x2="68.81" y2="92.5"/><line class="cls-4" x1="66.92" y1="93.59" x2="50.44" y2="103.1"/><line class="cls-3" x1="49.49" y1="103.65" x2="49.47" y2="103.66"/><path class="cls-5" d="M47.15,105h0a1.85,1.85,0,0,0,2-1.71V99a1.85,1.85,0,0,0-2-1.72h0"/><path class="cls-5" d="M70.35,92.45h0a1.85,1.85,0,0,0,2-1.71V86.52a1.85,1.85,0,0,0-2-1.71h0"/><polygon class="cls-1" points="46.56 126.02 71.5 111.63 71.5 97.35 46.56 111.74 46.56 126.02"/><line class="cls-3" x1="68.83" y1="102.81" x2="68.81" y2="102.82"/><line class="cls-4" x1="66.92" y1="103.91" x2="50.44" y2="113.43"/><line class="cls-3" x1="49.49" y1="113.97" x2="49.47" y2="113.99"/><line class="cls-3" x1="68.83" y1="105.19" x2="68.81" y2="105.2"/><line class="cls-4" x1="66.92" y1="106.29" x2="50.44" y2="115.8"/><line class="cls-3" x1="49.49" y1="116.35" x2="49.47" y2="116.36"/><line class="cls-3" x1="68.83" y1="107.56" x2="68.81" y2="107.58"/><line class="cls-4" x1="66.92" y1="108.67" x2="50.44" y2="118.18"/><line class="cls-3" x1="49.49" y1="118.73" x2="49.47" y2="118.74"/><line class="cls-3" x1="68.83" y1="109.94" x2="68.81" y2="109.95"/><line class="cls-4" x1="66.92" y1="111.04" x2="50.44" y2="120.56"/><line class="cls-3" x1="49.49" y1="121.1" x2="49.47" y2="121.12"/><path class="cls-5" d="M47.15,122.4h0a1.85,1.85,0,0,0,2-1.71v-4.22a1.85,1.85,0,0,0-2-1.71h0"/><path class="cls-5" d="M70.35,109.91h0a1.85,1.85,0,0,0,2-1.72V104a1.85,1.85,0,0,0-2-1.71h0"/><polygon class="cls-1" points="46.56 143.47 71.5 129.08 71.5 114.8 46.56 129.19 46.56 143.47"/><line class="cls-3" x1="68.83" y1="120.26" x2="68.81" y2="120.27"/><line class="cls-4" x1="66.92" y1="121.37" x2="50.44" y2="130.88"/><line class="cls-3" x1="49.49" y1="131.43" x2="49.47" y2="131.44"/><line class="cls-3" x1="68.83" y1="122.64" x2="68.81" y2="122.65"/><line class="cls-4" x1="66.92" y1="123.74" x2="50.44" y2="133.26"/><line class="cls-3" x1="49.49" y1="133.8" x2="49.47" y2="133.82"/><line class="cls-3" x1="68.83" y1="125.02" x2="68.81" y2="125.03"/><line class="cls-4" x1="66.92" y1="126.12" x2="50.44" y2="135.64"/><line class="cls-3" x1="49.49" y1="136.18" x2="49.47" y2="136.19"/><line class="cls-3" x1="68.83" y1="127.39" x2="68.81" y2="127.41"/><line class="cls-4" x1="66.92" y1="128.5" x2="50.44" y2="138.01"/><line class="cls-3" x1="49.49" y1="138.56" x2="49.47" y2="138.57"/><path class="cls-5" d="M47.15,139.86h0a1.85,1.85,0,0,0,2-1.71v-4.23a1.85,1.85,0,0,0-2-1.71h0"/><path class="cls-5" d="M70.35,127.36h0a1.85,1.85,0,0,0,2-1.71v-4.22a1.85,1.85,0,0,0-2-1.72h0"/></svg>