<svg id="Calque_1" data-name="Calque 1" xmlns="http://www.w3.org/2000/svg" viewBox="0 0 155.91 155.91"><defs><style>.cls-1,.cls-8{fill:#cce5ce;}.cls-1,.cls-2,.cls-3,.cls-4,.cls-5,.cls-6,.cls-7,.cls-9{stroke:#2d2b6f;}.cls-1,.cls-10,.cls-2,.cls-3,.cls-4,.cls-5,.cls-6,.cls-7{stroke-linejoin:round;}.cls-1,.cls-10,.cls-2,.cls-3,.cls-4,.cls-5,.cls-6,.cls-7,.cls-9{stroke-width:2px;}.cls-2{fill:#8f84ae;}.cls-3,.cls-5{fill:#8ec89a;}.cls-4{fill:#c6bfd8;}.cls-5{stroke-linecap:round;}.cls-6{fill:#fde5da;}.cls-7{fill:#f18b6d;}.cls-10,.cls-9{fill:none;}.cls-9{stroke-miterlimit:10;}.cls-10{stroke:#009640;}</style></defs><polygon class="cls-1" points="69.7 145.53 29.46 122.42 29.46 42.56 69.7 65.67 69.7 145.53"/><polygon class="cls-2" points="59.81 121.73 49.09 127.99 26.24 114.65 45.26 101.72 60.42 110.45 59.81 121.73"/><polygon class="cls-1" points="126.71 39.93 87.86 62.35 47.87 39.19 86.72 16.77 126.71 39.93"/><polygon class="cls-1" points="108.3 43.25 69.45 65.67 29.46 42.51 68.31 20.09 108.3 43.25"/><polygon class="cls-3" points="98.55 54.67 58.56 31.7 68.31 20.09 108.3 43.05 98.55 54.67"/><polygon class="cls-1" points="69.7 96.07 108.3 73.82 108.3 43.32 69.7 65.57 69.7 96.07"/><polygon class="cls-1" points="126.71 112.72 69.77 145.42 69.7 95.9 126.65 63.2 126.71 112.72"/><polygon class="cls-1" points="74.42 148 69.6 145.53 69.6 95.45 74.42 97.92 74.42 148"/><polygon class="cls-1" points="108.49 80.64 126.71 70.06 126.71 39.56 108.49 50.14 108.49 80.64"/><polygon class="cls-1" points="131.48 114.89 74.53 147.58 74.47 98.07 131.42 65.37 131.48 114.89"/><polygon class="cls-1" points="131.45 65.37 74.5 98.07 69.73 95.9 126.68 63.2 131.45 65.37"/><polygon class="cls-3" points="121.25 36.57 92.73 20.07 104.34 12.15 132.86 28.66 121.25 36.57"/><polygon class="cls-2" points="131.62 12.39 110.92 24.23 110.92 42.49 131.62 30.66 131.62 12.39"/><polygon class="cls-1" points="125.16 34.22 118.41 38.15 118.41 44.07 125.16 40.15 125.16 34.22"/><polygon class="cls-4" points="119.6 53.62 139.81 41.88 131.13 36.98 110.92 48.72 119.6 53.62"/><polygon class="cls-1" points="60.42 94.74 49.3 88.21 49.3 79.24 60.42 85.77 60.42 94.74"/><polyline class="cls-5" points="30.72 105.61 49.64 88.13 60.42 94.86 60.42 124.2 56.1 121.73"/><polygon class="cls-3" points="38.03 67.2 38.03 59.82 59.81 72.82 59.81 79.91 35.71 87.83 12.73 74.75 38.03 67.2"/><polygon class="cls-6" points="48.95 121.41 26.24 108.24 41.57 99.48 64.28 112.65 48.95 121.41"/><polygon class="cls-7" points="48.69 125.57 26.24 112.6 26.24 108.44 48.69 121.41 48.69 125.57"/><polygon class="cls-7" points="49.09 125.57 64.28 116.8 64.28 112.64 49.09 121.41 49.09 125.57"/><rect class="cls-8" x="61.52" y="109.13" width="6.78" height="12.28"/><line class="cls-9" x1="60.42" y1="96.07" x2="60.42" y2="124.2"/><polygon class="cls-10" points="100.42 104.17 100.42 114.95 108.98 109.75 108.98 99.3 100.42 104.17"/><polyline class="cls-10" points="97.27 107.28 104.7 109.16 110.49 95.87"/></svg>