<svg xmlns="http://www.w3.org/2000/svg" viewBox="0 0 453.54 325.98"><defs><style>.cls-1{isolation:isolate;}.cls-2{font-size:8px;font-family:Marianne,arial,sans-serif;font-weight:500;}.cls-17,.cls-2,.cls-25,.cls-34,.cls-57{fill:#292574;}.cls-3{letter-spacing:0.01em;}.cls-4{letter-spacing:0em;}.cls-5{letter-spacing:0.02em;}.cls-6{letter-spacing:-0.02em;}.cls-7{letter-spacing:-0.01em;}.cls-8{letter-spacing:-0.07em;}.cls-9{letter-spacing:0em;}.cls-10{letter-spacing:-0.07em;}.cls-11{letter-spacing:-0.01em;}.cls-12{letter-spacing:0.01em;}.cls-13{letter-spacing:-0.07em;}.cls-14{letter-spacing:-0.03em;}.cls-15{letter-spacing:-0.01em;}.cls-16,.cls-63,.cls-64{fill:none;}.cls-16,.cls-18,.cls-19,.cls-20,.cls-21,.cls-22,.cls-23,.cls-24,.cls-25,.cls-26,.cls-27,.cls-28,.cls-32,.cls-33,.cls-34,.cls-35,.cls-36,.cls-50,.cls-51,.cls-52,.cls-53,.cls-54,.cls-55,.cls-56,.cls-57,.cls-59,.cls-63,.cls-64,.cls-66{stroke:#292574;}.cls-16,.cls-23,.cls-32,.cls-50{stroke-miterlimit:10;}.cls-18,.cls-31,.cls-66{fill:#f28f6a;}.cls-18,.cls-19,.cls-20,.cls-21,.cls-22,.cls-24,.cls-25,.cls-26,.cls-27,.cls-28,.cls-33,.cls-34,.cls-35,.cls-36,.cls-51,.cls-52,.cls-53,.cls-54,.cls-55,.cls-56,.cls-57,.cls-58,.cls-59,.cls-63,.cls-64,.cls-66{stroke-linecap:round;stroke-linejoin:round;}.cls-18,.cls-19,.cls-20,.cls-21,.cls-22{stroke-width:1.11px;}.cls-19,.cls-22,.cls-23,.cls-24,.cls-27,.cls-45,.cls-53{fill:#9ccd9f;}.cls-20,.cls-30,.cls-52,.cls-59{fill:#facab4;}.cls-21,.cls-38,.cls-51,.cls-55,.cls-65{fill:#fde5da;}.cls-22{opacity:0.5;}.cls-23,.cls-24,.cls-25,.cls-32,.cls-33{stroke-width:0.85px;}.cls-26,.cls-37{fill:#009e45;}.cls-26,.cls-27,.cls-28,.cls-34,.cls-35,.cls-36{stroke-width:1.11px;}.cls-28,.cls-29,.cls-54{fill:#d2e7d1;}.cls-32,.cls-33,.cls-35,.cls-49,.cls-56{fill:#887fb3;}.cls-36,.cls-47{fill:#c1bcdb;}.cls-39{fill:#fab650;}.cls-40{fill:#afbec5;}.cls-41{fill:#fccc81;}.cls-42{fill:#d69a3a;}.cls-43{fill:#556f7b;}.cls-44{fill:#fff;}.cls-46{fill:#cfd8dc;}.cls-46,.cls-65{mix-blend-mode:multiply;}.cls-48{fill:#f7a52c;}.cls-50{fill:#dfd4dd;}.cls-50,.cls-51,.cls-52,.cls-63{stroke-width:1.1px;}.cls-58{fill:#444c7d;stroke:#444c7d;}.cls-60{letter-spacing:0.02em;}.cls-61{letter-spacing:0.01em;}.cls-62{letter-spacing:-0.04em;}</style></defs><g class="cls-1"><g id="DESSINS"><text class="cls-2" transform="translate(63.29 113.93)"><tspan class="cls-3">EX</tspan><tspan class="cls-4" x="10.49" y="0">T</tspan><tspan class="cls-5" x="15.54" y="0">R</tspan><tspan class="cls-6" x="20.95" y="0">A</tspan><tspan class="cls-7" x="26.75" y="0">C</tspan><tspan x="32.7" y="0">TION </tspan><tspan x="-1.68" y="9">DES M</tspan><tspan class="cls-8" x="23.29" y="9">A</tspan><tspan class="cls-9" x="28.67" y="9">TIÈRES </tspan><tspan x="6.28" y="18">PREMIÈRES</tspan></text><text class="cls-2" transform="translate(217.05 140.97)"><tspan class="cls-10">F</tspan><tspan x="3.7" y="0">ABRI</tspan><tspan class="cls-11" x="22.39" y="0">C</tspan><tspan class="cls-8" x="28.32" y="0">A</tspan><tspan x="33.7" y="0">TION</tspan></text><text class="cls-2" transform="translate(351.52 232.71)">DI<tspan class="cls-11" x="9.02" y="0">S</tspan><tspan x="13.65" y="0">TRIB</tspan><tspan class="cls-12" x="31.46" y="0">U</tspan><tspan x="37.33" y="0">TION</tspan></text><text class="cls-2" transform="translate(256.37 303.52)"><tspan class="cls-3">U</tspan><tspan x="5.87" y="0">TILI</tspan><tspan class="cls-7" x="20.46" y="0">S</tspan><tspan class="cls-8" x="25.11" y="0">A</tspan><tspan class="cls-4" x="30.49" y="0">TION</tspan></text><text class="cls-2" transform="translate(47.22 303.52)">FIN DE VIE</text><text class="cls-2" transform="translate(135.94 249.82)"><tspan class="cls-13">V</tspan><tspan x="5.36" y="0">A</tspan><tspan class="cls-14" x="11.3" y="0">L</tspan><tspan x="15.32" y="0">ORI</tspan><tspan class="cls-15" x="29.86" y="0">S</tspan><tspan class="cls-8" x="34.5" y="0">A</tspan><tspan x="39.88" y="0">TION</tspan></text><path class="cls-16" d="M129.48,65.46c47.1-44.46,80.78-7.1,85.85-.85"/><polygon class="cls-17" points="210.04 64.74 210.16 63.74 215.05 64.33 215.28 59.41 216.28 59.46 216 65.46 210.04 64.74"/><polygon class="cls-18" points="64.73 283.62 96.1 265.51 100 239.34 68.08 257.77 64.73 283.62"/><polygon class="cls-19" points="99.7 241.81 100 239.34 68.08 257.77 67.76 260.25 99.7 241.81"/><path class="cls-20" d="M55.76,246.29c-4.65-2.68-8.95-3.5-12.51-2.71l3.34,29.57,18.14,10.47,3.35-25.85A41.82,41.82,0,0,0,55.76,246.29Z"/><path class="cls-19" d="M68.08,257.77a41.82,41.82,0,0,0-12.32-11.48c-4.65-2.68-8.95-3.5-12.51-2.71l.14,1.17c3.3-.37,7.16.54,11.29,2.92,4.61,2.66,9.51,7.69,13.08,12.59Z"/><path class="cls-21" d="M89.35,223.94c-5.48-3.17-10.54-4-14.63-2.89L40.05,241c4.1-1.12,9.15-.27,14.63,2.89A44.24,44.24,0,0,1,69,257.19l34.66-19.94A44.29,44.29,0,0,0,89.35,223.94Z"/><path class="cls-17" d="M73.21,275.77a1.65,1.65,0,0,1-.77,1c-.38.22-.67.15-.63-.18l2.35-17.52a1.63,1.63,0,0,1,.76-1c.39-.22.67-.14.64.18Z"/><path class="cls-17" d="M90.25,265.89a1.6,1.6,0,0,1-.77,1c-.38.23-.67.15-.63-.17L91.2,249.2a1.63,1.63,0,0,1,.76-1c.39-.23.68-.15.64.18Z"/><path class="cls-17" d="M78.74,272.56a1.67,1.67,0,0,1-.76,1c-.39.22-.68.15-.64-.18l2.35-17.52a1.65,1.65,0,0,1,.77-1c.38-.22.67-.15.63.18Z"/><path class="cls-17" d="M84.71,269.1a1.63,1.63,0,0,1-.76,1c-.39.23-.67.15-.64-.18l2.35-17.51a1.6,1.6,0,0,1,.77-1c.38-.23.67-.15.63.17Z"/><path class="cls-19" d="M57.64,263.46c0,2-1.43,3-3.18,2A6.94,6.94,0,0,1,51.3,260c0-2,1.44-2.88,3.16-1.83C57.18,259.84,57.64,261.45,57.64,263.46Z"/><path class="cls-20" d="M54.68,243.87c-5.48-3.16-10.53-4-14.63-2.89l1.89,3.27c3.6-.87,8-.08,12.74,2.66a44.47,44.47,0,0,1,13.21,12.27l1.12-2A44.24,44.24,0,0,0,54.68,243.87Z"/><path class="cls-19" d="M67.52,283.69a3.63,3.63,0,0,0,1.65,2.85c.91.53,1.65.1,1.65-1a3.63,3.63,0,0,0-1.65-2.85C68.26,282.21,67.52,282.64,67.52,283.69Z"/><path class="cls-19" d="M67.75,283.82a3.14,3.14,0,0,0,1.42,2.46c.78.45,1.42.08,1.42-.82A3.14,3.14,0,0,0,69.17,283C68.39,282.55,67.75,282.92,67.75,283.82Z"/><path class="cls-19" d="M68.33,284.16a1.84,1.84,0,0,0,.84,1.44c.46.27.83,0,.83-.48a1.83,1.83,0,0,0-.83-1.44C68.71,283.41,68.33,283.63,68.33,284.16Z"/><path class="cls-19" d="M70.38,282.07a1.11,1.11,0,0,0-1.2-.09l-1.13.62h0a1.17,1.17,0,0,1,1.12.14,3.63,3.63,0,0,1,1.65,2.85,1.15,1.15,0,0,1-.47,1.05l1.14-.63a1.1,1.1,0,0,0,.53-1.09A3.62,3.62,0,0,0,70.38,282.07Z"/><polygon class="cls-19" points="67.64 279.47 67.3 282.14 70.01 283.28 70.01 281.88 67.64 279.47"/><polygon class="cls-19" points="69.37 283.01 69.37 285.27 69.52 285.13 69.52 283.07 69.37 283.01"/><polygon class="cls-19" points="67.88 282.38 68.76 284.91 69.37 285.27 69.37 283.01 67.88 282.38"/><polygon class="cls-19" points="70.01 281.88 70.01 283.28 71.8 282.22 71.8 280.82 70.01 281.88"/><polygon class="cls-19" points="70.12 278.03 67.64 279.47 70.01 281.88 71.8 280.82 70.12 278.03"/><polygon class="cls-19" points="67.97 282.66 69.37 283.25 69.37 283.01 67.88 282.38 67.97 282.66"/><polygon class="cls-19" points="69.37 283.25 69.52 283.2 69.52 283.07 69.37 283.01 69.37 283.25"/><path class="cls-19" d="M91.79,269.74a3.65,3.65,0,0,0,1.65,2.85c.91.53,1.65.1,1.65-.95a3.66,3.66,0,0,0-1.65-2.86C92.53,268.26,91.79,268.68,91.79,269.74Z"/><path class="cls-19" d="M92,269.87a3.11,3.11,0,0,0,1.42,2.45c.78.46,1.42.09,1.42-.82a3.14,3.14,0,0,0-1.42-2.45C92.65,268.6,92,269,92,269.87Z"/><path class="cls-19" d="M92.6,270.2a1.85,1.85,0,0,0,.84,1.45c.46.27.83.05.83-.48a1.86,1.86,0,0,0-.83-1.45C93,269.46,92.6,269.67,92.6,270.2Z"/><path class="cls-19" d="M94.65,268.11a1.15,1.15,0,0,0-1.2-.09l-1.14.63h0a1.19,1.19,0,0,1,1.13.13,3.66,3.66,0,0,1,1.65,2.86,1.17,1.17,0,0,1-.47,1.05l1.13-.63a1.13,1.13,0,0,0,.54-1.09A3.68,3.68,0,0,0,94.65,268.11Z"/><polygon class="cls-19" points="91.91 265.52 91.57 268.19 94.28 269.33 94.28 267.93 91.91 265.52"/><polygon class="cls-19" points="93.64 269.06 93.64 271.31 93.79 271.17 93.79 269.12 93.64 269.06"/><polygon class="cls-19" points="92.14 268.43 93.03 270.96 93.64 271.31 93.64 269.06 92.14 268.43"/><polygon class="cls-19" points="94.28 267.93 94.28 269.33 96.07 268.27 96.07 266.87 94.28 267.93"/><polygon class="cls-19" points="94.39 264.07 91.91 265.52 94.28 267.93 96.07 266.87 94.39 264.07"/><polygon class="cls-19" points="92.24 268.7 93.64 269.29 93.64 269.06 92.14 268.43 92.24 268.7"/><polygon class="cls-19" points="93.64 269.29 93.79 269.24 93.79 269.12 93.64 269.06 93.64 269.29"/><path class="cls-17" d="M71.27,267.71l.67-5.11a1.86,1.86,0,0,0-.73-1.55l-.76-.58a.25.25,0,0,0-.29,0,.77.77,0,0,0-.34.58.25.25,0,0,0,.1.22h0l.87.65a.58.58,0,0,1,.22.47l-.63,5h0l-.82-.62h0a.25.25,0,0,0-.21,0,.7.7,0,0,0-.33.57.26.26,0,0,0,.08.21h0l.88.67a.8.8,0,0,0,.64.19h0a.86.86,0,0,0,.48-.25A.9.9,0,0,0,71.27,267.71Z"/><path class="cls-17" d="M70,267.61s.29.07.34-.29l-.82-.62h0a.25.25,0,0,0-.21,0,.48.48,0,0,0-.18.17Z"/><path class="cls-17" d="M71.21,261.05l-.76-.58a.25.25,0,0,0-.29,0,.48.48,0,0,0-.11.09l.07,0,.76.57a2.16,2.16,0,0,1,.74,1.69l-.74,5.46a.69.69,0,0,0,.21-.15.9.9,0,0,0,.18-.43l.67-5.11A1.86,1.86,0,0,0,71.21,261.05Z"/><path class="cls-17" d="M97,252.92l.67-5.12a1.87,1.87,0,0,0-.73-1.55l-.76-.57a.24.24,0,0,0-.29,0,.74.74,0,0,0-.34.58.23.23,0,0,0,.1.22h0l.87.65a.59.59,0,0,1,.22.48l-.63,5h0l-.83-.62v0a.21.21,0,0,0-.21,0,.71.71,0,0,0-.34.58.25.25,0,0,0,.09.2h0l.88.67a.76.76,0,0,0,.64.19h0a.86.86,0,0,0,.48-.25A.83.83,0,0,0,97,252.92Z"/><path class="cls-17" d="M95.76,252.81s.29.08.34-.29l-.83-.62v0a.21.21,0,0,0-.21,0,.58.58,0,0,0-.18.17Z"/><path class="cls-17" d="M96.93,246.25l-.76-.57a.24.24,0,0,0-.29,0l-.11.09.07.05.76.57a2.13,2.13,0,0,1,.74,1.68l-.74,5.47a1,1,0,0,0,.21-.16.83.83,0,0,0,.18-.42l.67-5.12A1.87,1.87,0,0,0,96.93,246.25Z"/><polygon class="cls-19" points="102.63 239.25 67.89 259.18 68.94 257.19 103.67 237.25 102.63 239.25"/><path class="cls-17" d="M73.51,251.18a44,44,0,0,0-12.68-11.05,23.93,23.93,0,0,0-11.58-3.36h0l-.69.46a22.83,22.83,0,0,1,12.13,3.41,42.84,42.84,0,0,1,12.39,10.79Z"/><path class="cls-17" d="M49.25,236.77a23.93,23.93,0,0,1,11.58,3.36,44,44,0,0,1,12.68,11.05l.43-.24a44,44,0,0,0-12.77-11.15A22.76,22.76,0,0,0,50,236.37l-.7.4Z"/><path class="cls-17" d="M97,237.39a44,44,0,0,0-12.69-11A23.87,23.87,0,0,0,72.7,223h0l-.69.45a22.9,22.9,0,0,1,12.13,3.41,43.06,43.06,0,0,1,12.4,10.8Z"/><path class="cls-17" d="M72.7,223a23.87,23.87,0,0,1,11.58,3.36,44,44,0,0,1,12.69,11l.42-.24A44,44,0,0,0,84.63,226a22.84,22.84,0,0,0-11.22-3.43l-.71.41Z"/><path class="cls-17" d="M89.68,241.92a43.73,43.73,0,0,0-12.68-11,23.93,23.93,0,0,0-11.58-3.36h0l-.69.45a22.86,22.86,0,0,1,12.12,3.41,42.93,42.93,0,0,1,12.4,10.8Z"/><path class="cls-17" d="M65.42,227.51A23.93,23.93,0,0,1,77,230.87a43.73,43.73,0,0,1,12.68,11l.43-.25a44,44,0,0,0-12.77-11.14,22.67,22.67,0,0,0-11.22-3.43l-.7.41Z"/><path class="cls-17" d="M81.88,246.43A43.92,43.92,0,0,0,69.2,235.37,24,24,0,0,0,57.62,232h0l-.69.46a22.77,22.77,0,0,1,12.12,3.41,43,43,0,0,1,12.4,10.79Z"/><path class="cls-17" d="M57.62,232a24,24,0,0,1,11.58,3.36,43.92,43.92,0,0,1,12.68,11.06l.43-.25A44.15,44.15,0,0,0,69.54,235a22.76,22.76,0,0,0-11.22-3.42l-.7.4Z"/><path class="cls-19" d="M51.85,258.2h0l0,0Z"/><path class="cls-19" d="M55.44,264.4Z"/><path class="cls-19" d="M57.56,261.93a5.62,5.62,0,0,0-2.54-4.4,1.75,1.75,0,0,0-1.85-.14h0l-1.24.76a1.78,1.78,0,0,1,1.78.18,5.62,5.62,0,0,1,2.54,4.4,1.81,1.81,0,0,1-.69,1.6l1.29-.78h0A1.82,1.82,0,0,0,57.56,261.93Z"/><path class="cls-19" d="M56.25,262.73c0,1.62-1.14,2.27-2.54,1.46a5.6,5.6,0,0,1-2.54-4.39c0-1.62,1.14-2.28,2.54-1.47A5.62,5.62,0,0,1,56.25,262.73Z"/><polygon class="cls-19" points="57.52 260.45 57.64 259.87 56.8 259.81 55.93 260.34 57.52 260.45"/><path class="cls-19" d="M59.56,250.32l-2,10.13-1.59-.11a5.49,5.49,0,0,1,.57,1.82l2.25.16,2.18-10.84C60.48,251.08,60,250.69,59.56,250.32Z"/><path class="cls-22" d="M60.85,251.88l.08-.4c-.45-.4-.91-.79-1.37-1.16l-.08.41C59.94,251.1,60.4,251.48,60.85,251.88Z"/><path class="cls-19" d="M60.93,251.48h0l-.08.4.68.14Z"/><polygon class="cls-19" points="65.86 228.56 60.95 231.4 60.18 231.17 65.09 228.34 65.86 228.56"/><path class="cls-17" d="M65.83,225.7h0a1.22,1.22,0,0,0-.66-.27h0a.47.47,0,0,0-.31.07l-4,2.32a1.33,1.33,0,0,0-.6,1v2.34a.22.22,0,0,0,.13.19.72.72,0,0,0,.64,0,.22.22,0,0,0,.13-.22v-2.1a.39.39,0,0,1,.19-.32l3.77-2.17v1.79h0v.05h0a.27.27,0,0,0,.13.13.72.72,0,0,0,.64,0,.29.29,0,0,0,.13-.14h0v-2.34A.44.44,0,0,0,65.83,225.7Z"/><path class="cls-17" d="M65.56,226.69c-.06-.17-.47-.1-.47-.1v1.79h0v.05h0a.27.27,0,0,0,.13.13.62.62,0,0,0,.36.07A18.14,18.14,0,0,0,65.56,226.69Z"/><path class="cls-17" d="M60.56,229.13a1.32,1.32,0,0,1,.61-1l4-2.32a.54.54,0,0,1,.31-.07h0a1.26,1.26,0,0,1,.41.11s0-.08-.09-.1h0a1.22,1.22,0,0,0-.66-.27h0a.47.47,0,0,0-.31.07l-4,2.32a1.33,1.33,0,0,0-.6,1v2.34a.22.22,0,0,0,.13.19.66.66,0,0,0,.2.06Z"/><polygon class="cls-23" points="150.07 208.65 142.18 208.65 143.62 141.6 148.64 141.6 150.07 208.65"/><path class="cls-24" d="M149.08,162.47a1.62,1.62,0,0,1,.85,1.29c0,1.13-1.7,2-3.8,2s-3.81-.91-3.81-2a1.62,1.62,0,0,1,.85-1.29"/><ellipse class="cls-25" cx="146.13" cy="141.6" rx="2.54" ry="1.25"/><path class="cls-24" d="M149.68,181.68a2,2,0,0,1,1,1.58c0,1.39-2.09,2.52-4.67,2.52s-4.67-1.13-4.67-2.52a2,2,0,0,1,1-1.58"/><polygon class="cls-23" points="160.43 202.57 152.54 202.57 153.98 135.53 159 135.53 160.43 202.57"/><path class="cls-24" d="M159.45,156.39a1.63,1.63,0,0,1,.84,1.29c0,1.13-1.7,2-3.8,2s-3.8-.92-3.8-2a1.61,1.61,0,0,1,.84-1.29"/><ellipse class="cls-25" cx="156.49" cy="135.53" rx="2.54" ry="1.25"/><path class="cls-24" d="M160,175.61a2,2,0,0,1,1,1.58c0,1.39-2.09,2.51-4.67,2.51s-4.67-1.12-4.67-2.51a2,2,0,0,1,1-1.58"/><polygon class="cls-23" points="170.79 197.81 162.91 197.81 164.34 130.77 169.36 130.77 170.79 197.81"/><path class="cls-24" d="M169.81,151.63a1.63,1.63,0,0,1,.84,1.29c0,1.13-1.7,2.05-3.8,2.05s-3.8-.92-3.8-2.05a1.61,1.61,0,0,1,.84-1.29"/><ellipse class="cls-25" cx="166.85" cy="130.77" rx="2.54" ry="1.25"/><path class="cls-24" d="M170.4,170.85a2,2,0,0,1,1,1.58c0,1.39-2.09,2.51-4.67,2.51s-4.67-1.12-4.67-2.51a2,2,0,0,1,1-1.58"/><polygon class="cls-26" points="160.77 233.72 141.98 222.62 141.98 201.06 160.77 212.16 160.77 233.72"/><polygon class="cls-27" points="189.8 216.88 160.77 233.74 160.77 212.18 189.8 195.31 189.8 216.88"/><polygon class="cls-28" points="189.59 195.08 160.77 211.95 142.2 201.06 171.02 184.2 189.59 195.08"/><polygon class="cls-26" points="176.78 235.19 167.28 229.58 167.28 218.69 176.78 224.3 176.78 235.19"/><polygon class="cls-27" points="191.44 226.68 176.78 235.2 176.78 224.3 191.44 215.78 191.44 226.68"/><polygon class="cls-28" points="191.34 215.67 176.78 224.19 167.39 218.69 181.95 210.17 191.34 215.67"/><polygon class="cls-29" points="146.62 219.51 147.39 218.38 149.13 219.38 149.13 218.65 150.58 221.39 149.13 222.46 149.13 221.73 147.11 220.56 146.62 219.51"/><polygon class="cls-29" points="145.14 216.29 146.99 213.56 148.76 215.74 146.45 219.14 145.14 216.29"/><polygon class="cls-29" points="155.54 222.78 153.97 221.88 153.11 219.64 152.56 219.68 153.28 217.7 155.43 219.46 154.88 219.5 155.88 222.11 155.54 222.78"/><polygon class="cls-29" points="154.49 224.83 150.84 222.73 150.84 220.38 155.41 223.01 154.49 224.83"/><polygon class="cls-29" points="149.69 211.26 150.48 213.28 149.6 214.5 150.15 215.19 147.99 214.43 147.3 211.62 147.84 212.31 148.87 210.88 149.69 211.26"/><polygon class="cls-29" points="152.2 212.42 154.11 217.29 152.35 217.46 149.97 211.39 152.2 212.42"/><path class="cls-30" d="M180.77,209.68l-3.21-1.86a.69.69,0,0,0-.69.08,2.19,2.19,0,0,0-1,1.71.69.69,0,0,0,.28.63l3.21,1.86a1.1,1.1,0,0,1,.39.67v4.41a.71.71,0,0,0,.41.57,2.2,2.2,0,0,0,2,0,.71.71,0,0,0,.41-.57v-4.41A3.78,3.78,0,0,0,180.77,209.68Z"/><path class="cls-31" d="M180.34,212.4a1.39,1.39,0,0,0-.48-.83l-3.94-2.28a1.87,1.87,0,0,0,0,.32.69.69,0,0,0,.28.63l3.21,1.86a1.1,1.1,0,0,1,.39.67v4.41a.71.71,0,0,0,.41.57l.17.08Z"/><path class="cls-30" d="M177.59,211.53l-3.21-1.86a.69.69,0,0,0-.69.08,2.16,2.16,0,0,0-1,1.71.72.72,0,0,0,.28.64l3.21,1.85a1.11,1.11,0,0,1,.38.67V219a.7.7,0,0,0,.41.57,2.2,2.2,0,0,0,2,0,.69.69,0,0,0,.4-.57v-4.41A3.79,3.79,0,0,0,177.59,211.53Z"/><path class="cls-31" d="M177.15,214.25a1.34,1.34,0,0,0-.48-.83l-3.93-2.28a1.22,1.22,0,0,0,0,.32.72.72,0,0,0,.28.64l3.21,1.85a1.11,1.11,0,0,1,.38.67V219a.7.7,0,0,0,.41.57l.17.08Z"/><path class="cls-30" d="M174.3,213.42l-3.21-1.86a.69.69,0,0,0-.68.07,2.2,2.2,0,0,0-1,1.72.67.67,0,0,0,.28.63l3.21,1.86a1.08,1.08,0,0,1,.38.67v4.41a.7.7,0,0,0,.4.57,2.2,2.2,0,0,0,2,0,.71.71,0,0,0,.41-.57v-4.41A3.74,3.74,0,0,0,174.3,213.42Z"/><path class="cls-31" d="M173.87,216.14a1.39,1.39,0,0,0-.48-.83L169.45,213a1.82,1.82,0,0,0,0,.32.67.67,0,0,0,.28.63l3.21,1.86a1.08,1.08,0,0,1,.38.67v4.41a.7.7,0,0,0,.4.57l.18.08Z"/><polygon class="cls-32" points="263.2 97.42 271.09 97.42 269.65 30.37 264.63 30.37 263.2 97.42"/><path class="cls-33" d="M264.19,51.24a1.62,1.62,0,0,0-.85,1.29c0,1.13,1.7,2,3.8,2s3.81-.91,3.81-2a1.62,1.62,0,0,0-.85-1.29"/><ellipse class="cls-25" cx="267.14" cy="30.37" rx="2.54" ry="1.25"/><path class="cls-33" d="M263.6,70.45a2,2,0,0,0-1,1.58c0,1.39,2.09,2.52,4.66,2.52s4.67-1.13,4.67-2.52a2,2,0,0,0-1-1.58"/><polygon class="cls-32" points="252.84 91.34 260.73 91.34 259.29 24.3 254.27 24.3 252.84 91.34"/><path class="cls-33" d="M253.83,45.16a1.62,1.62,0,0,0-.85,1.29c0,1.13,1.7,2,3.8,2s3.81-.92,3.81-2a1.62,1.62,0,0,0-.85-1.29"/><ellipse class="cls-25" cx="256.78" cy="24.3" rx="2.54" ry="1.25"/><path class="cls-33" d="M253.23,64.38a2,2,0,0,0-1,1.58c0,1.39,2.09,2.51,4.66,2.51s4.67-1.12,4.67-2.51a2,2,0,0,0-1-1.58"/><polygon class="cls-32" points="242.48 86.58 250.37 86.58 248.93 19.54 243.91 19.54 242.48 86.58"/><path class="cls-33" d="M243.47,40.4a1.62,1.62,0,0,0-.85,1.29c0,1.13,1.7,2.05,3.8,2.05s3.81-.92,3.81-2.05a1.62,1.62,0,0,0-.85-1.29"/><ellipse class="cls-25" cx="246.42" cy="19.54" rx="2.54" ry="1.25"/><path class="cls-33" d="M242.87,59.62a2,2,0,0,0-1,1.58c0,1.39,2.09,2.51,4.66,2.51s4.67-1.12,4.67-2.51a2,2,0,0,0-1-1.58"/><polygon class="cls-34" points="252.5 124.49 271.29 113.39 271.29 91.83 252.5 102.93 252.5 124.49"/><polygon class="cls-35" points="223.47 107.64 252.5 124.51 252.5 102.95 223.47 86.08 223.47 107.64"/><polygon class="cls-36" points="223.68 85.85 252.5 102.72 271.08 91.83 242.26 74.97 223.68 85.85"/><polygon class="cls-34" points="236.5 125.96 245.99 120.35 245.99 109.46 236.5 115.07 236.5 125.96"/><polygon class="cls-35" points="221.83 117.45 236.5 125.97 236.5 115.07 221.83 106.55 221.83 117.45"/><polygon class="cls-36" points="221.94 106.44 236.5 114.96 245.88 109.46 231.32 100.94 221.94 106.44"/><path class="cls-30" d="M232.5,98.45l3.21-1.86a.69.69,0,0,1,.69.08,2.19,2.19,0,0,1,1,1.71.69.69,0,0,1-.28.63l-3.21,1.86a1.08,1.08,0,0,0-.38.67V106a.71.71,0,0,1-.41.57,2.2,2.2,0,0,1-2,0,.71.71,0,0,1-.41-.57v-4.41A3.78,3.78,0,0,1,232.5,98.45Z"/><path class="cls-31" d="M232.94,101.17a1.37,1.37,0,0,1,.47-.83l3.94-2.28a1.22,1.22,0,0,1,0,.32.69.69,0,0,1-.28.63l-3.21,1.86a1.08,1.08,0,0,0-.38.67V106a.71.71,0,0,1-.41.57l-.17.08Z"/><path class="cls-30" d="M235.69,100.3l3.2-1.86a.69.69,0,0,1,.69.08,2.16,2.16,0,0,1,1,1.71.72.72,0,0,1-.28.64l-3.21,1.85a1.08,1.08,0,0,0-.38.67v4.41a.69.69,0,0,1-.4.57,2.2,2.2,0,0,1-2,0,.68.68,0,0,1-.41-.57v-4.41A3.78,3.78,0,0,1,235.69,100.3Z"/><path class="cls-31" d="M236.12,103a1.39,1.39,0,0,1,.48-.83l3.94-2.28a1.82,1.82,0,0,1,0,.32.72.72,0,0,1-.28.64l-3.21,1.85a1.08,1.08,0,0,0-.38.67v4.41a.69.69,0,0,1-.4.57l-.18.08Z"/><path class="cls-30" d="M239,102.19l3.21-1.86a.71.71,0,0,1,.69.07,2.23,2.23,0,0,1,1,1.72.69.69,0,0,1-.28.63l-3.21,1.86a1.1,1.1,0,0,0-.39.67v4.41a.71.71,0,0,1-.41.57,2.2,2.2,0,0,1-2,0,.71.71,0,0,1-.41-.57v-4.41A3.77,3.77,0,0,1,239,102.19Z"/><path class="cls-31" d="M239.4,104.91a1.39,1.39,0,0,1,.48-.83l3.94-2.28a1.87,1.87,0,0,1,0,.32.69.69,0,0,1-.28.63l-3.21,1.86a1.1,1.1,0,0,0-.39.67v4.41a.71.71,0,0,1-.41.57l-.17.08Z"/><path class="cls-17" d="M379.31,200.13c.77.45,1.4.09,1.4-.81a3.1,3.1,0,0,0-1.4-2.42c-.78-.45-1.4-.08-1.4.81a3.06,3.06,0,0,0,1.4,2.42Z"/><path class="cls-17" d="M379.31,199.45c.44.26.81.05.81-.47a1.82,1.82,0,0,0-.81-1.4c-.45-.26-.81-.05-.81.47a1.78,1.78,0,0,0,.81,1.4Z"/><path class="cls-17" d="M379,197.48c-.22.05-.35.25-.35.57a1.78,1.78,0,0,0,.81,1.4.64.64,0,0,0,.27.1.61.61,0,0,1-.45-.1,1.78,1.78,0,0,1-.81-1.4c0-.41.22-.62.53-.57Z"/><path class="cls-17" d="M379.31,199.08c.27.15.48,0,.48-.28a1.09,1.09,0,0,0-.48-.85c-.27-.15-.49,0-.49.29a1.08,1.08,0,0,0,.49.84Z"/><path class="cls-17" d="M380.71,199.32a3.1,3.1,0,0,0-1.4-2.42,1,1,0,0,0-1-.1l.69-.4a1,1,0,0,1,1,.1,3.09,3.09,0,0,1,1.4,2.42,1,1,0,0,1-.41.9l-.7.41h0a1,1,0,0,0,.41-.91Z"/><path class="cls-17" d="M379.42,195.69a2.56,2.56,0,0,1-1-1.16,2.44,2.44,0,0,1,.05-2.1l3.23-6.51,6.14,2.46-4.16,8.94,15.81,9.13v.84l-20.1-11.6Zm7.26-6.92L382.23,187l-3.06,6.18a1.54,1.54,0,0,0-.11,1.26,1,1,0,0,0,.34.42l3.52,2Z"/><path class="cls-17" d="M381.44,196.86a3.52,3.52,0,0,1-.51,1.44c-.44.69-1.65.9-1.91.39s.49-.25.85-1.38a5,5,0,0,0,.17-1.26Z"/><path class="cls-17" d="M381.3,196.77a3.59,3.59,0,0,1-.51,1.45c-.44.69-1.66.9-1.91.39s.48-.26.85-1.38a5,5,0,0,0,.17-1.27Z"/><polygon class="cls-17" points="399.52 206.45 383.71 197.32 384.5 196.86 400.31 205.99 399.52 206.45"/><polygon class="cls-17" points="387.87 188.38 388.36 188.57 384.5 196.86 383.71 197.32 387.87 188.38"/><polygon class="cls-17" points="380.2 194.38 383.25 196.14 382.92 196.86 379.4 194.84 380.2 194.38"/><path class="cls-17" d="M379,193.55a2.08,2.08,0,0,1,.15-.39l3.06-6.18.48.19L380,192.7a1.87,1.87,0,0,0-.16.47,1.3,1.3,0,0,0,.06.79.89.89,0,0,0,.34.42l-.8.46a1,1,0,0,1-.34-.42,1.34,1.34,0,0,1,0-.87Z"/><path class="cls-17" d="M400.38,212.29c.77.45,1.4.09,1.4-.8a3.11,3.11,0,0,0-1.4-2.43c-.78-.44-1.4-.08-1.4.81a3.06,3.06,0,0,0,1.4,2.42Z"/><path class="cls-17" d="M400.38,211.61c.44.26.81,0,.81-.46a1.82,1.82,0,0,0-.81-1.41c-.45-.26-.81-.05-.81.47a1.76,1.76,0,0,0,.81,1.4Z"/><path class="cls-17" d="M400.1,209.64c-.22.05-.36.25-.36.57a1.77,1.77,0,0,0,.82,1.4.64.64,0,0,0,.27.1.61.61,0,0,1-.45-.1,1.76,1.76,0,0,1-.81-1.4c0-.4.22-.62.53-.57Z"/><path class="cls-17" d="M400.38,211.24c.26.15.48,0,.48-.28a1.08,1.08,0,0,0-.48-.84c-.27-.16-.49,0-.49.28a1.08,1.08,0,0,0,.49.84Z"/><path class="cls-17" d="M401.78,211.49a3.11,3.11,0,0,0-1.4-2.43,1,1,0,0,0-1-.1l.7-.4a1,1,0,0,1,1,.1,3.09,3.09,0,0,1,1.4,2.42,1,1,0,0,1-.41.91l-.7.4h0a1,1,0,0,0,.41-.9Z"/><path class="cls-17" d="M398.29,206.39a8.42,8.42,0,0,0,.51,2,14,14,0,0,0,1.72,2.71l.19-.11c.22-.19-.49-.82-.85-2.36a7.38,7.38,0,0,1-.17-1.47Z"/><path class="cls-17" d="M398.12,206.48a8.43,8.43,0,0,0,.51,2c.44,1.2,1.65,2.81,1.91,2.59s-.48-.81-.85-2.36a7.32,7.32,0,0,1-.17-1.46Z"/><path class="cls-37" d="M374.62,160.25a.34.34,0,0,1,.12.27l-.18,1.2c0,.05,0,.08-.07.08s-.08,0-.13-.05l-3-2.8c-.71-.65-.47-1.84.4-1.12Z"/><path class="cls-37" d="M374.54,161.76a.05.05,0,0,0,0,0l.18-1.2a.22.22,0,0,0,0-.14.32.32,0,0,0-.1-.13l-1.32-1.13-1.5-1.29,0,0h0a.59.59,0,0,0-.53-.18h0a1.06,1.06,0,0,1,1.47,0l2.59,2.21a.32.32,0,0,1,.12.26l-.18,1.15a.19.19,0,0,1-.07.14l-.62.36h0s0,0,0,0Z"/><path class="cls-37" d="M360,164.66h0l11.45-6.61c.54-.28,1.15.86.67,1.16l-11.43,6.61a.34.34,0,0,1-.36,0,1.05,1.05,0,0,1-.47-.83.33.33,0,0,1,.14-.31Z"/><path class="cls-37" d="M363.12,167.2a.28.28,0,0,1,.11.26l-.18,1.21a.08.08,0,0,1-.07.08.14.14,0,0,1-.12-.05l-3-2.8c-.71-.65-.47-1.85.4-1.13Z"/><path class="cls-37" d="M363,168.71s0,0,0,0l.18-1.21a.24.24,0,0,0,0-.14.34.34,0,0,0-.09-.12l-1.32-1.14-1.51-1.29h0a.62.62,0,0,0-.54-.18h0a1.07,1.07,0,0,1,1.47,0l2.59,2.21a.35.35,0,0,1,.12.27l-.17,1.15a.2.2,0,0,1-.08.14l-.62.36h0l0,0Z"/><path class="cls-17" d="M375.64,162.13a2.38,2.38,0,0,1,.24.58l5.83,22.64,4.64,1.86L376.53,163a4.55,4.55,0,0,0-.49-.89,3.81,3.81,0,0,0-.65-.73l-.48-.43.06-.41.51.46a4.5,4.5,0,0,1,.79.88,5.16,5.16,0,0,1,.59,1.08l10.12,25-5.53-2.22-5.93-23a1.19,1.19,0,0,0-.15-.35,1.73,1.73,0,0,0-.23-.29l-.41-.46,0-.32.47.41a2.34,2.34,0,0,1,.39.49Z"/><path class="cls-17" d="M375.88,162.71a2.38,2.38,0,0,0-.24-.58,2.34,2.34,0,0,0-.39-.49l-.47-.41.2-.09.57.5a2.34,2.34,0,0,1,.39.49,2.38,2.38,0,0,1,.24.58L382,185.35l4.28,1.72.06.14-4.64-1.86Z"/><path class="cls-17" d="M376.86,162.92a5.16,5.16,0,0,0-.59-1.08,4.5,4.5,0,0,0-.79-.88l-.51-.46.19-.09.62.55a4.5,4.5,0,0,1,.79.88,5.16,5.16,0,0,1,.59,1.08l10.12,25-.35-.14Z"/><polygon class="cls-17" points="396.2 182.51 396.39 182.63 396.52 185.46 397.46 186.03 397.47 186.47 396.35 185.79 396.2 182.51"/><polygon class="cls-17" points="394.62 181.47 394.82 181.61 395.02 184.54 395.95 185.11 395.97 185.55 394.85 184.87 394.62 181.47"/><polygon class="cls-17" points="397.77 183.54 397.95 183.66 398.03 186.38 398.97 186.95 398.97 187.38 397.86 186.7 397.77 183.54"/><polygon class="cls-17" points="396.35 181.72 397.36 182.38 397.37 182.83 396.18 182.04 396.04 179.27 396.24 179.41 396.35 181.72"/><polygon class="cls-17" points="397.93 182.75 398.95 183.42 398.95 183.86 397.76 183.08 397.69 180.44 397.87 180.58 397.93 182.75"/><polygon class="cls-17" points="394.88 185.34 395.08 185.46 395.25 188 396.11 188.46 396.13 188.89 395.08 188.33 394.88 185.34"/><polygon class="cls-17" points="385.66 179.74 385.92 179.89 386.54 183.36 387.38 183.81 387.46 184.27 386.37 183.69 385.66 179.74"/><polygon class="cls-17" points="384.07 178.77 384.34 178.93 385.06 182.57 385.9 183.02 385.98 183.48 384.89 182.9 384.07 178.77"/><polygon class="cls-17" points="387.23 180.69 387.48 180.84 388.02 184.15 388.85 184.59 388.92 185.05 387.84 184.48 387.23 180.69"/><polygon class="cls-17" points="393.37 184.42 393.58 184.55 393.81 187.24 394.67 187.69 394.69 188.13 393.64 187.57 393.37 184.42"/><polygon class="cls-17" points="391.85 183.5 392.07 183.63 392.38 186.47 393.22 186.92 393.26 187.36 392.2 186.8 391.85 183.5"/><polygon class="cls-17" points="390.33 182.57 390.56 182.71 390.93 185.7 391.77 186.15 391.82 186.59 390.76 186.03 390.33 182.57"/><polygon class="cls-17" points="380.82 176.79 381.11 176.97 382.04 180.97 382.89 181.42 382.99 181.89 381.87 181.29 380.82 176.79"/><polygon class="cls-17" points="384.14 177.93 385.08 178.5 385.17 178.99 383.97 178.26 383.12 173.96 383.39 174.13 384.14 177.93"/><polygon class="cls-17" points="382.52 176.94 383.47 177.52 383.57 178.01 382.35 177.27 381.39 172.83 381.67 173.01 382.52 176.94"/><polygon class="cls-17" points="382.46 177.79 382.74 177.96 383.56 181.77 384.4 182.22 384.49 182.69 383.39 182.1 382.46 177.79"/><polygon class="cls-17" points="385.74 178.9 386.68 179.47 386.76 179.95 385.57 179.23 384.82 175.07 385.08 175.24 385.74 178.9"/><polygon class="cls-17" points="380.87 175.94 381.84 176.53 381.94 177.02 380.7 176.27 379.63 171.68 379.92 171.87 380.87 175.94"/><polygon class="cls-17" points="387.32 179.86 388.26 180.43 388.32 180.9 387.15 180.19 386.5 176.17 386.75 176.33 387.32 179.86"/><polygon class="cls-17" points="388.79 181.64 389.03 181.78 389.48 184.93 390.32 185.37 390.37 185.82 389.31 185.26 388.79 181.64"/><polygon class="cls-17" points="399.34 184.56 399.51 184.68 399.53 187.29 400.82 188.05 400.82 188.48 399.36 187.62 399.34 184.56"/><polygon class="cls-17" points="399.32 181.61 399.49 181.74 399.51 183.78 400.82 184.62 400.82 185.06 399.34 184.11 399.32 181.61"/><polygon class="cls-17" points="399.36 188.07 399.54 188.17 399.55 190.29 400.82 190.96 400.82 191.38 399.38 190.62 399.36 188.07"/><polygon class="cls-17" points="393.33 183.95 393.02 180.43 393.23 180.57 393.5 183.62 394.43 184.18 394.46 184.63 393.33 183.95"/><polygon class="cls-17" points="397.96 190.31 398.14 190.41 398.18 191.98 399.01 192.31 399.01 192.71 398.01 192.31 397.96 190.31"/><path class="cls-17" d="M400.37,192.83a.91.91,0,0,1-.91.06l-.07,0v-1.79l.18.09v1.37l.06,0a.9.9,0,0,0,.91-.06l.12-.12a1,1,0,0,1-.29.45Z"/><polygon class="cls-17" points="396.38 186.25 396.57 186.37 396.68 188.77 397.55 189.23 397.56 189.65 396.51 189.09 396.38 186.25"/><polygon class="cls-17" points="397.87 187.16 398.05 187.27 398.12 189.53 398.99 190 398.99 190.42 397.94 189.86 397.87 187.16"/><polygon class="cls-17" points="396.53 189.55 396.73 189.66 396.81 191.43 397.62 191.75 397.63 192.15 396.64 191.76 396.53 189.55"/><polygon class="cls-17" points="384.9 174.23 385.94 174.91 386.02 175.4 384.73 174.56 384.03 170.66 384.29 170.85 384.9 174.23"/><polygon class="cls-17" points="381.45 171.97 382.51 172.67 382.61 173.18 381.28 172.3 380.36 168.03 380.64 168.23 381.45 171.97"/><polygon class="cls-17" points="383.19 173.11 384.24 173.8 384.33 174.3 383.02 173.44 382.21 169.35 382.49 169.55 383.19 173.11"/><polygon class="cls-17" points="386.59 175.34 387.62 176.01 387.69 176.5 386.42 175.66 385.82 171.94 386.07 172.12 386.59 175.34"/><polygon class="cls-17" points="376.28 165.11 376.6 165.33 377.67 169.5 378.98 170.36 379.1 170.88 377.5 169.83 376.28 165.11"/><polygon class="cls-17" points="377.64 170.37 377.95 170.57 379.04 174.83 380.18 175.52 380.29 176.02 378.87 175.16 377.64 170.37"/><polygon class="cls-17" points="379.68 170.82 380.76 171.52 380.87 172.03 379.51 171.14 378.47 166.67 378.76 166.88 379.68 170.82"/><polygon class="cls-17" points="394.75 180.67 395.77 181.34 395.79 181.79 394.58 181 394.39 178.08 394.59 178.22 394.75 180.67"/><polygon class="cls-17" points="379.01 175.69 379.31 175.87 380.4 180.09 381.36 180.6 381.47 181.08 380.23 180.42 379.01 175.69"/><polygon class="cls-17" points="390.44 181.76 391.36 182.32 391.41 182.78 390.26 182.09 389.8 178.32 390.03 178.47 390.44 181.76"/><path class="cls-17" d="M376.09,164.51l-.36.21,5.59,21.36,18.2,7.28a1.11,1.11,0,0,0,1.14-.07,1.4,1.4,0,0,0,.46-1.15v-9.69Zm24.73,26.87-1.44-.76,0-2.55,1.46.86Zm0-2.9-1.46-.86,0-3.06,1.48.95Zm-16-13.41,1.28.84.66,4-1.19-.72Zm.35,3.92-1.2-.73-.85-4.3,1.3.85Zm1.33-2.82,1.26.82.56,3.91-1.17-.71Zm1.66,1.08,1.24.81.47,3.79-1.15-.71Zm1.63,1.07,1.23.81.39,3.65-1.14-.7Zm1.63,1.06,1.21.8.31,3.53L391.8,183Zm1.6,1.05,1.21.79.23,3.42-1.13-.69Zm1.59,1,1.2.79.16,3.29-1.13-.68Zm1.59,1,1.19.78.08,3.18-1.12-.68Zm1.29,4.42.07,2.72-1.05-.56-.13-2.84Zm-1.36,2-1.05-.56-.2-3L396,186Zm-1.44-.76-1.05-.56-.27-3.15,1.12.68Zm-1.43-.77-1.06-.56-.35-3.3,1.13.69Zm-1.44-.77-1.06-.56-.43-3.46,1.13.69Zm-1.45-.77-1.06-.56-.52-3.62,1.15.69Zm-1.45-.77-1.08-.57-.61-3.79,1.16.71Zm-1.46-.78-1.09-.58-.71-4,1.18.72Zm-1.48-.79-1.09-.58-.82-4.13,1.19.72Zm-1.49-.79-1.1-.59-.93-4.31,1.21.73Zm-2.14-5.42-1-4.44,1.33.86.85,4.32Zm-.41-.25-1.24-.75-1.07-4.59,1.35.88Zm-2.43-5.88-1-4.47,1.47,1.06.93,4.31Zm.85-3.11,1.44,1,.81,4.12-1.33-.88Zm1.85,1.32,1.41,1,.71,3.93-1.31-.86Zm1.82,1.31,1.38,1,.61,3.75-1.29-.84Zm1.79,1.28,1.36,1,.51,3.58-1.27-.83Zm1.76,1.26,1.33,1,.43,3.41-1.25-.82Zm1.73,1.24,1.32.95.34,3.25-1.24-.81Zm1.71,1.23,1.3.93.27,3.1-1.23-.8Zm1.69,1.21,1.29.92.2,2.95L393,180Zm1.68,1.2,1.26.91.14,2.8-1.21-.79Zm1.65,1.19,1.26.9.07,2.66-1.19-.79Zm1.65,1.17,1.24.9,0,2.52-1.19-.78Zm1.26,3.87,0,3.07-1.11-.68-.09-3.16Zm0,6.11-1-.56-.08-2.7,1.11.67Zm0,.45v1.84l-1-.4-.05-2Zm-1.37,1.28-1-.39-.11-2.21,1,.56Zm-1.37-.55-1-.39-.16-2.41,1,.55Zm-1.37-.54-1-.39-.23-2.63,1.05.55Zm-1.36-.55-1-.39-.31-2.85,1.05.56Zm-1.35-.54-1-.39-.38-3.07,1.05.56Zm-1.36-.54-1-.39-.47-3.3,1.05.56Zm-1.35-.54-1-.39-.57-3.53,1.07.56Zm-1.35-.55-1-.39-.68-3.76,1.08.57Zm-1.36-.54-1-.39-.79-4,1.08.58Zm-1.36-.54-1-.4-.91-4.25,1.09.58Zm-1.37-.55-1-.4-1.05-4.5,1.11.59Zm-2.16-5.42-1.05-4.5,1.23.75.94,4.35Zm-.4-.21-1.24-.66L379,175.69l1.41.85Zm-3.83-10.71,1.58,1,1.07,4.61-1.42-.87Zm-1.36-5.26,1.77,1.26,1.05,4.51-1.6-1Zm24.54,17.55v2.4l-1.48-.95,0-2.5Zm-.45,10.17a.91.91,0,0,1-.91.06l-.07,0v-1.79l1.35.72v.12a1.14,1.14,0,0,1-.36.92Zm-20-11.89,1.23.65,1.06,4.57-1.06-.43Z"/><polygon class="cls-17" points="388.89 180.81 389.82 181.38 389.88 181.85 388.72 181.14 388.16 177.25 388.4 177.41 388.89 180.81"/><polygon class="cls-17" points="401.16 182.48 375.77 164.29 376.11 164.09 401.51 182.28 401.16 182.48"/><polygon class="cls-17" points="388.26 176.43 389.28 177.09 389.34 177.57 388.09 176.75 387.58 173.2 387.82 173.37 388.26 176.43"/><polygon class="cls-17" points="391.54 178.57 392.55 179.23 392.59 179.7 391.36 178.9 391.02 175.67 391.24 175.83 391.54 178.57"/><polygon class="cls-17" points="389.9 177.5 390.92 178.17 390.97 178.64 389.73 177.83 389.31 174.44 389.54 174.61 389.9 177.5"/><polygon class="cls-17" points="393.15 179.63 394.16 180.29 394.19 180.75 392.98 179.95 392.71 176.88 392.93 177.03 393.15 179.63"/><polygon class="cls-17" points="393.68 188.04 393.89 188.15 394.08 190.34 394.87 190.65 394.89 191.06 393.91 190.67 393.68 188.04"/><polygon class="cls-17" points="392.25 187.27 392.47 187.39 392.73 189.79 393.5 190.1 393.53 190.51 392.56 190.12 392.25 187.27"/><polygon class="cls-17" points="390.82 186.51 391.05 186.63 391.37 189.25 392.13 189.56 392.18 189.97 391.2 189.58 390.82 186.51"/><polygon class="cls-17" points="395.11 188.8 395.31 188.9 395.44 190.88 396.24 191.2 396.26 191.6 395.27 191.21 395.11 188.8"/><polygon class="cls-17" points="380.36 180.94 380.65 181.09 381.76 185.41 382.55 185.72 382.65 186.16 381.59 185.73 380.36 180.94"/><polygon class="cls-17" points="391.97 182.69 392.9 183.26 392.94 183.71 391.8 183.02 391.42 179.38 391.64 179.53 391.97 182.69"/><polygon class="cls-17" points="383.5 182.61 383.77 182.75 384.58 186.53 385.31 186.82 385.39 187.26 384.41 186.86 383.5 182.61"/><polygon class="cls-17" points="384.99 183.4 385.25 183.54 385.95 187.08 386.68 187.37 386.76 187.8 385.78 187.41 384.99 183.4"/><polygon class="cls-17" points="389.38 185.74 389.61 185.87 390.02 188.71 390.77 189.01 390.82 189.43 389.85 189.04 389.38 185.74"/><polygon class="cls-17" points="381.99 181.81 382.27 181.96 383.21 185.98 383.94 186.27 384.03 186.71 383.04 186.31 381.99 181.81"/><polygon class="cls-17" points="386.46 184.19 386.72 184.32 387.31 187.63 388.05 187.92 388.12 188.34 387.14 187.95 386.46 184.19"/><polygon class="cls-17" points="387.92 184.97 388.17 185.1 388.67 188.17 389.41 188.47 389.47 188.89 388.5 188.5 387.92 184.97"/><path class="cls-17" d="M375.65,191l1,.42-3.5,2.07-.12.07.38.16,3.61-2.14.94.42-3.42,2-.15.09.39.15,3.55-2.1.95.41-3.35,2-.17.1.38.16,3.5-2.08.94.42-3.33,2-.14.08.38.15,3.46-2,.94.41-3.27,1.93-.15.09.38.15,3.4-2,.94.41-3.23,1.91-.14.08.38.15,3.36-2,.93.41-3.17,1.88-.14.08.38.16,3.3-2,.94.41-3.27,1.94.38.15,3.25-1.93.95.42-3.22,1.9.38.15,3.2-1.89.95.41-3.16,1.88.38.15,3.15-1.87.95.42L386.59,199l.38.15,3.1-1.83,1,.42L388,199.57l.39.1,11.08-6.34-.05-.47-.33.14-3.86,2.29-1-.42,3.78-2.23v-.33l-.33.14-3.82,2.26-1-.41,3.75-2.21v-.33l-.33.14-3.79,2.25-1-.41,3.71-2.19v-.34l-.32.14-3.76,2.23-1-.41,3.68-2.17v-.33l-.32.14L389.86,193l-.95-.41,3.64-2.15v-.34l-.33.15-3.69,2.18-1-.4,3.62-2.13v-.34l-.32.15-3.67,2.16-.95-.4,3.59-2.12V189l-.33.14-3.63,2.15-.95-.4,3.55-2.1v-.33l-.33.14-3.6,2.13-.95-.4,3.52-2.08V188l-.33.15-3.57,2.11-.95-.41,3.49-2.06v-.33l-.33.14-3.53,2.09-1-.4,3.46-2v-.34l-.33.15-3.5,2.07-1-.41,3.42-2v-.34l-.33.15-3.47,2-.92-.39-.44-.09.05.29.95.4-3.21,1.9-1-.43-.43-.06.05.3,1,.42-3.53,2.09-.14.08.39.15Zm14.75,6.13,3.47-2,1,.41-3.48,2.06Zm-1.31-.58,3.44-2,1,.41L390,197Zm-1.31-.58,3.42-2,1,.41-3.44,2Zm-1.31-.58,3.4-2,.95.4-3.41,2Zm-1.3-.58,3.37-2,1,.4-3.39,2Zm-1.3-.57,3.35-2,.95.41-3.36,2Zm-1.3-.58,3.33-2,1,.41-3.34,2Zm-1.3-.57,3.31-2,.95.41-3.32,2Zm-1.3-.58,3.29-1.94.95.41-3.3,1.95Zm-1.3-.57,3.26-1.93.95.4-3.27,1.94Zm-1.31-.58,3.23-1.92,1,.41-3.25,1.92Zm-1.32-.59,3.21-1.9,1,.41L377,191.2Z"/><path class="cls-17" d="M375.6,190.71l.95.42-3.62,2.14.39.16,3.6-2.14.95.42-3.57,2.11.38.15,3.56-2.1.94.41-3.52,2.09.38.15,3.51-2.07.94.41-3.47,2,.38.15,3.45-2,.94.41-3.41,2,.38.15,3.4-2,.94.41-3.37,2,.38.16,3.35-2,.94.41-3.32,2,.38.15,3.31-2,.94.42-3.27,1.93.38.15,3.25-1.92.94.41-3.21,1.9.38.16,3.2-1.9.95.42-3.17,1.87.38.15,3.16-1.86.95.42-3.11,1.84.38.15L390,197l1,.42-3.06,1.81.38.16,11.09-6.57-.38-.15L395.15,195l-1-.41,3.83-2.27-.38-.16-3.83,2.27-1-.41,3.8-2.25-.38-.16-3.79,2.25-1-.41,3.77-2.23-.38-.15-3.76,2.22-.95-.4,3.73-2.21-.38-.16-3.72,2.21-1-.41,3.71-2.19-.38-.15-3.7,2.19-1-.41,3.67-2.17-.38-.15-3.66,2.17-1-.41,3.64-2.15-.38-.15L385.84,191l-.95-.4,3.6-2.13-.37-.16-3.6,2.13-1-.4,3.58-2.12-.38-.15-3.57,2.11-.95-.41,3.54-2.09-.38-.15-3.54,2.09-1-.41,3.51-2.08-.38-.15-3.5,2.07-1-.41,3.48-2.06-.39-.15-3.46,2.05-.92-.39-.39.21.94.39-3.2,1.9-1-.43-.37.24,1,.42-3.67,2.17.38.16Zm14.75,6.13,3.47-2.05,1,.41-3.48,2.06Zm-1.32-.58,3.45-2,1,.41L390,196.68Zm-1.31-.58,3.42-2,1,.41-3.43,2Zm-1.3-.58,3.4-2,.95.41-3.41,2Zm-1.3-.57,3.37-2,.95.4-3.39,2Zm-1.3-.58,3.35-2,.95.4-3.37,2Zm-1.3-.57,3.33-2,.95.4-3.35,2Zm-1.3-.58,3.31-2,1,.4-3.33,2Zm-1.3-.57,3.28-1.95,1,.41-3.3,1.95Zm-1.31-.58,3.26-1.93,1,.41-3.28,1.94Zm-1.31-.58,3.24-1.92,1,.41-3.25,1.93Zm-1.32-.58,3.22-1.91,1,.42-3.24,1.91Z"/><polygon class="cls-17" points="378.86 175.13 375.46 177 375.38 176.71 378.45 175.02 378.86 175.13"/><polygon class="cls-17" points="381.58 185.88 378.27 187.82 378.2 187.53 381.27 185.74 381.58 185.88"/><polygon class="cls-17" points="373.96 189.98 372.79 185.36 373.03 185.22 374.27 190.13 370.9 192.07 370.84 191.78 373.96 189.98"/><polygon class="cls-17" points="374.57 189.61 377.57 187.88 376.4 183.22 376.64 183.08 377.88 188.03 374.64 189.89 374.57 189.61"/><polygon class="cls-17" points="374.98 177.84 375.21 177.7 376.51 182.55 373.28 184.46 373.2 184.18 376.2 182.41 374.98 177.84"/><polygon class="cls-17" points="373.86 172.46 375.08 177.17 371.84 179.08 371.77 178.79 374.75 176.97 373.62 172.6 373.86 172.46"/><polygon class="cls-17" points="380.23 180.42 376.89 182.33 376.81 182.04 379.85 180.25 380.23 180.42"/><polygon class="cls-17" points="377.5 169.83 374.11 171.7 374.04 171.44 377.09 169.72 377.5 169.83"/><polygon class="cls-17" points="372.49 167.2 373.72 171.93 370.48 173.83 370.41 173.54 373.41 171.78 372.25 167.34 372.49 167.2"/><polygon class="cls-17" points="368.87 169.31 370.1 174.05 366.66 176.06 366.58 175.78 369.79 173.91 368.62 169.46 368.87 169.31"/><polygon class="cls-17" points="370 174.72 370.24 174.58 371.46 179.3 368.02 181.32 367.95 181.04 371.15 179.16 370 174.72"/><polygon class="cls-17" points="371.36 179.97 371.6 179.83 372.9 184.69 369.46 186.71 369.39 186.43 372.58 184.54 371.36 179.97"/><polygon class="cls-17" points="376.11 164.09 376.15 164.56 365.04 170.95 364.62 170.75 376.11 164.09"/><path class="cls-17" d="M364.87,171.05l5.8,21.58,10.91-6.11-.14-.55-3.17,1.85-1.24-5,3.33-1.92-.13-.52-3.34,1.91-1.3-4.79,3.42-1.85-.15-.56-3.4,1.88-1.22-4.78,3.4-1.86-.14-.54-3.4,1.87L372.88,167l3.4-1.87-.13-.55Zm8.85.88-3.24,1.9-1.23-4.74,3.24-1.89Zm1.36,5.24-3.24,1.91-1.22-4.72,3.24-1.9Zm1.43,5.38-3.23,1.91-1.3-4.85,3.23-1.91Zm-1.87,7.34-1.23-4.9,3.23-1.91,1.24,4.95Zm-5-2.67,3.37-2,1.24,4.91-3.37,1.94Zm-1.5-5.37,3.44-2,1.3,4.86-3.44,2Zm-1.36-5.25,3.44-2,1.22,4.72-3.44,2Zm-.14-.54-1.24-4.74,3.45-2,1.23,4.73Z"/><polygon class="cls-31" points="380.66 176.09 370.58 181.91 377.9 186.13 387.98 180.31 380.66 176.09"/><polygon class="cls-31" points="375.11 184.52 373.46 183.57 383.45 177.69 385.13 178.66 375.11 184.52"/><polygon class="cls-31" points="374.2 184 384.29 178.18 384.36 178.22 374.27 184.04 374.2 184"/><path class="cls-31" d="M383.79,182.73l-1.68,1Z"/><path class="cls-31" d="M380.66,176.08h0a.16.16,0,0,0-.16,0h0l-10.08,5.82.16,0,9.85-5.69h0Z"/><path class="cls-31" d="M370.58,190.72l7.32,4.22c.13.08.23,0,.23-.13v-8.28a.49.49,0,0,0-.23-.4l-7.32-4.22c-.13-.08-.23,0-.23.13v8.28A.52.52,0,0,0,370.58,190.72Z"/><path class="cls-31" d="M370.55,182l7.31,4.22a.48.48,0,0,1,.2.24l.07,0a.49.49,0,0,0-.23-.4l-7.32-4.22c-.13-.08-.23,0-.23.13h0S370.46,182,370.55,182Z"/><path class="cls-31" d="M378.06,186.49a.48.48,0,0,0-.2-.24L370.55,182c-.09-.05-.16,0-.2,0h0l7.78,4.49Z"/><polygon class="cls-31" points="375.11 184.52 375.11 186.07 373.46 184.82 373.46 183.57 375.11 184.52"/><polygon class="cls-31" points="388.21 180.71 378.13 186.53 378.13 194.81 388.21 188.99 388.21 180.71"/><path class="cls-31" d="M381.33,192.31l-.33.19.09.13a.08.08,0,0,0,.05,0h.05l.14-.08v.06l.11-.25-.11-.12Z"/><path class="cls-31" d="M381.29,192.09h-.18l-.11.27a.54.54,0,0,0,0,.08.07.07,0,0,0,0,0l.18-.11Z"/><path class="cls-31" d="M381.84,191.74l.05-.06-.2.1-.09.25,0-.06.16.24.09-.24a.14.14,0,0,0,0-.07.15.15,0,0,0,0-.06Z"/><path class="cls-31" d="M381.48,192.22v.25l.22-.12.06-.06,0-.06-.09-.13Z"/><path class="cls-31" d="M381.42,191.9h-.05l.17-.42-.18.1-.06,0a.28.28,0,0,0,0,.07l-.07.18h-.05l.08.16Z"/><path class="cls-31" d="M381.76,191.63l-.11-.15,0,0h0l-.1.24.11.15Z"/><path class="cls-31" d="M380.53,193a.13.13,0,0,1,0-.09v-.21l0,0,0,0v.21a.43.43,0,0,1,0,.14.29.29,0,0,1-.11.11h0v0l.19-.11.2-.11v0h0A.11.11,0,0,1,380.53,193Z"/><path class="cls-31" d="M380.21,192.17v.34a.18.18,0,0,0,.07.16.15.15,0,0,0,.17,0,.44.44,0,0,0,.18-.18.47.47,0,0,0,.07-.24v-.34l-.25.14Z"/><polygon class="cls-31" points="379.7 192.77 380.04 192.57 379.87 192.37 379.7 192.77"/><polygon class="cls-31" points="379.91 192.72 379.87 192.74 379.83 192.76 379.83 193.3 379.87 193.28 379.91 193.26 379.91 192.72"/><polygon class="cls-31" points="379.48 192.59 379.31 193 379.65 192.8 379.48 192.59"/><polygon class="cls-31" points="379.44 193.53 379.48 193.51 379.52 193.49 379.52 192.94 379.48 192.96 379.44 192.98 379.44 193.53"/><polygon class="cls-31" points="379.37 193.68 379.37 193.73 379.97 193.38 379.97 193.33 379.97 193.29 379.37 193.64 379.37 193.68"/><path class="cls-31" d="M378.48,193.51a.12.12,0,0,1,.07-.07s.08,0,.08,0a.15.15,0,0,1,.08-.12s.08,0,.08,0a.17.17,0,0,1,.08-.11c.05,0,.09,0,.09,0a.15.15,0,0,1,.08-.12s.08,0,.08,0a.17.17,0,0,1,.08-.11s.06,0,.07,0C379.1,192.7,378.64,193,378.48,193.51Z"/><path class="cls-31" d="M379,193.9c-.08,0-.08,0-.08,0v-.55l0,0,0,0v.54s0,.13.14,0a.28.28,0,0,0,.11-.2l-.05,0A.19.19,0,0,1,379,193.9Z"/><polygon class="cls-31" points="387.7 187.89 387.66 187.91 387.66 188.83 387.71 188.81 387.7 187.89"/><polygon class="cls-31" points="387.58 187.96 387.58 188.88 387.62 188.86 387.62 187.94 387.58 187.96"/><polygon class="cls-31" points="387.5 188.01 387.5 188.93 387.54 188.9 387.54 187.99 387.5 188.01"/><polygon class="cls-31" points="387.21 188.18 387.21 189.09 387.26 189.07 387.26 188.15 387.21 188.18"/><polygon class="cls-31" points="387.32 188.12 387.33 189.03 387.46 188.95 387.45 188.04 387.32 188.12"/><polygon class="cls-31" points="386.13 188.81 386.13 189.72 386.26 189.65 386.26 188.74 386.13 188.81"/><polygon class="cls-31" points="387.07 188.27 387.07 189.18 387.18 189.11 387.18 188.2 387.07 188.27"/><polygon class="cls-31" points="386.92 188.35 386.92 189.26 387.04 189.2 387.03 188.29 386.92 188.35"/><polygon class="cls-31" points="386.65 188.51 386.65 189.42 386.74 189.37 386.74 188.46 386.65 188.51"/><polygon class="cls-31" points="385.66 189.08 385.66 189.99 385.76 189.94 385.76 189.03 385.66 189.08"/><polygon class="cls-31" points="386.81 188.41 386.81 189.32 386.89 189.28 386.88 188.37 386.81 188.41"/><polygon class="cls-31" points="385.54 189.15 385.54 190.06 385.62 190.02 385.61 189.11 385.54 189.15"/><polygon class="cls-31" points="385.44 189.21 385.44 190.12 385.51 190.08 385.51 189.17 385.44 189.21"/><polygon class="cls-31" points="385.28 189.3 385.28 190.21 385.36 190.17 385.35 189.26 385.28 189.3"/><polygon class="cls-31" points="385.14 189.38 385.14 190.29 385.22 190.25 385.21 189.34 385.14 189.38"/><polygon class="cls-31" points="385.03 189.45 385.03 190.36 385.1 190.31 385.1 189.41 385.03 189.45"/><polygon class="cls-31" points="384.89 189.53 384.89 190.44 384.96 190.4 384.96 189.49 384.89 189.53"/><polygon class="cls-31" points="386.05 188.85 386.05 189.77 386.09 189.74 386.09 188.83 386.05 188.85"/><polygon class="cls-31" points="385.96 188.91 385.96 189.82 386.01 189.79 386 188.88 385.96 188.91"/><polygon class="cls-31" points="385.88 188.95 385.88 189.87 385.92 189.84 385.92 188.93 385.88 188.95"/><polygon class="cls-31" points="385.8 189 385.8 189.91 385.84 189.89 385.84 188.97 385.8 189"/><polygon class="cls-31" points="384.63 189.67 384.63 190.59 384.68 190.56 384.67 189.65 384.63 189.67"/><polygon class="cls-31" points="384.81 189.57 384.81 190.49 384.85 190.46 384.85 189.55 384.81 189.57"/><polygon class="cls-31" points="384.45 189.78 384.45 190.69 384.5 190.67 384.49 189.75 384.45 189.78"/><polygon class="cls-31" points="384.55 189.72 384.55 190.64 384.59 190.61 384.59 189.7 384.55 189.72"/><polygon class="cls-31" points="384.31 189.85 384.31 190.77 384.36 190.75 384.36 189.83 384.31 189.85"/><polygon class="cls-31" points="384.23 189.9 384.23 190.82 384.27 190.8 384.27 189.88 384.23 189.9"/><polygon class="cls-31" points="386.55 188.57 386.55 189.47 386.6 189.45 386.6 188.54 386.55 188.57"/><polygon class="cls-31" points="386.47 188.61 386.47 189.52 386.51 189.5 386.51 188.59 386.47 188.61"/><polygon class="cls-31" points="386.31 188.71 386.31 189.62 386.35 189.59 386.35 188.68 386.31 188.71"/><path class="cls-31" d="M378.13,194.81h0a.18.18,0,0,1-.07.15h0l10.08-5.82a.16.16,0,0,0,.07-.15Z"/><polygon class="cls-31" points="373.46 183.84 375.11 184.79 375.11 184.66 373.46 183.71 373.46 183.84"/><path class="cls-31" d="M388,180.31l-1.13.65-9,5.17a.49.49,0,0,1,.23.4l4.25-2.45,5.83-3.37A.49.49,0,0,0,388,180.31Z"/><path class="cls-31" d="M375.22,186.55l-2-1.14c-.18-.1-.33,0-.33.19a.71.71,0,0,0,.33.56l2,1.14c.18.1.33,0,.33-.19A.71.71,0,0,0,375.22,186.55Z"/><path class="cls-31" d="M375.32,187.22l-2-1.14a.71.71,0,0,1-.33-.56.24.24,0,0,1,0-.15c-.09,0-.14.1-.14.23a.71.71,0,0,0,.33.56l2,1.14c.13.07.24,0,.29,0A.29.29,0,0,1,375.32,187.22Z"/><polygon class="cls-31" points="374.27 184.04 374.27 184.19 374.2 184.15 374.2 184 374.27 184.04"/><polygon class="cls-31" points="376.95 185.01 377.97 185.6 381.76 183.4 380.74 182.81 376.95 185.01"/><path class="cls-31" d="M380.68,183l.8.46-.05,0-.79-.46Zm-.12.07.79.46,0,0-.79-.46Zm-.08.05.79.46,0,0-.79-.45Zm-.28.16.79.46,0,0-.79-.46Zm.11-.06.79.46.13-.08-.79-.45Zm-1.19.69.79.46.13-.08-.79-.45Zm.94-.54.79.45.11-.06-.79-.45Zm-.15.09.79.45.11-.07-.78-.45Zm-.27.15.79.46.09-.06-.79-.45Zm-1,.57.79.45.09,0-.79-.45Zm1.14-.66.79.45.07,0-.78-.45Zm-1.26.73.79.45.07,0-.79-.45Zm-.1.06.78.45.08,0-.79-.45Zm-.16.09.79.45.07,0-.79-.45Zm-.13.08.78.45.07,0-.78-.45Zm-.12.06.79.46.07,0-.79-.46Zm-.14.09.79.45.07,0-.79-.46Zm1.15-.67.79.45,0,0-.79-.46Zm-.08,0,.79.45,0,0L379,184Zm-.09,0,.79.46,0,0-.79-.45Zm-.08,0,.79.46,0,0-.79-.45Zm-1.16.67.79.46,0,0-.79-.45Zm.18-.1.79.46,0,0-.79-.45Zm-.36.21.79.45.05,0-.79-.46Zm.1-.06.79.46,0,0-.79-.45Zm-.24.13.8.46,0,0-.8-.46Zm-.08.05.79.46.05,0-.8-.45Zm2.32-1.33.78.45,0,0-.78-.46Zm-.09.05.79.45,0,0-.78-.45Zm-.16.09.79.45,0,0-.79-.45Z"/><polygon class="cls-38" points="379.62 162.21 372.72 166.2 379.17 169.93 386.07 165.93 379.62 162.21"/><polygon class="cls-31" points="376.71 168.51 375.26 167.67 382.08 163.63 383.56 164.48 376.71 168.51"/><path class="cls-31" d="M381.43,168h0l0,0-.22.13-.22.12h0a.1.1,0,0,0,0-.19l-.2-.12,0,0,0,0,.21.12a.38.38,0,0,0,.16,0A.39.39,0,0,0,381.43,168Zm-1.25-.48-.28.16.33.2a.65.65,0,0,0,.29.07.58.58,0,0,0,.28-.07.17.17,0,0,0,0-.33l-.34-.2Zm-.57.68.4-.23-.51-.06Zm.31-.1-.05,0,0,0,.54.31.05,0,0,0Zm-.86.07.1.29.4-.23Zm.87.55,0,0,0,0-.54-.32,0,0-.05,0Zm0,.11,0,0,.7-.4,0,0,0,0-.7.4Zm-1.72.2a.07.07,0,0,1,0-.06.19.19,0,0,1,.16,0s0-.06,0-.09a.19.19,0,0,1,.16,0s0-.06,0-.09a.19.19,0,0,1,.16,0s0-.06,0-.09a.19.19,0,0,1,.16,0s0-.06,0-.09a.2.2,0,0,1,.11,0C378.51,168.39,378,168.7,378.23,169.07Zm1.26.06a.17.17,0,0,1-.16,0l-.55-.32,0,0,0,0,.54.31a.28.28,0,0,0,.29,0c.12-.06,0-.15,0-.15l-.06,0A.05.05,0,0,1,379.49,169.13Z"/><polygon class="cls-31" points="375.46 164.61 376.92 163.77 383.4 167.48 381.91 168.34 375.46 164.61"/><path class="cls-39" d="M382.38,168.06l.5-.28Z"/><path class="cls-40" d="M379.62,162.21h0a.12.12,0,0,0-.14,0h0l-6.91,4h.15l6.7-3.88h0Z"/><path class="cls-41" d="M376.92,163.77a.12.12,0,0,0-.14,0h0l-1.46.85a.14.14,0,0,1,.14,0h0l1.26-.73.2-.11Z"/><path class="cls-30" d="M372.72,180l6.45,3.73c.11.06.2,0,.2-.12V170.28a.44.44,0,0,0-.2-.35l-6.45-3.73c-.11-.06-.21,0-.21.12v13.29A.45.45,0,0,0,372.72,180Z"/><path class="cls-39" d="M372.69,166.31l6.45,3.73a.4.4,0,0,1,.17.21l.06,0a.44.44,0,0,0-.2-.35l-6.45-3.73c-.11-.06-.21,0-.21.12h0A.13.13,0,0,1,372.69,166.31Z"/><path class="cls-31" d="M379.31,170.25a.4.4,0,0,0-.17-.21l-6.45-3.73a.13.13,0,0,0-.17,0h0l6.86,4Z"/><polygon class="cls-31" points="376.71 168.51 376.71 169.88 375.26 168.77 375.26 167.67 376.71 168.51"/><polygon class="cls-38" points="386.28 166.29 379.38 170.28 379.37 183.57 386.28 179.57 386.28 166.29"/><polygon class="cls-31" points="382.15 169.7 383.61 168.66 383.61 167.83 382.15 168.67 382.15 169.7"/><path class="cls-40" d="M379.37,183.57h0a.16.16,0,0,1-.05.13h0l6.89-4a.15.15,0,0,0,.07-.14Z"/><polygon class="cls-31" points="375.26 167.9 376.71 168.74 376.71 168.63 375.26 167.79 375.26 167.9"/><path class="cls-31" d="M386.08,165.93l-1,.58-5.91,3.42a.44.44,0,0,1,.2.35l3.75-2.16,3.16-1.83A.47.47,0,0,0,386.08,165.93Z"/><path class="cls-31" d="M382.15,168.69l1.46-.85a.46.46,0,0,0-.21-.36l-1.49.86A.46.46,0,0,1,382.15,168.69Z"/><path class="cls-31" d="M376.81,170.29l-1.73-1c-.16-.09-.29,0-.29.17a.62.62,0,0,0,.29.49l1.73,1a.18.18,0,0,0,.29-.17A.64.64,0,0,0,376.81,170.29Z"/><path class="cls-31" d="M376.9,170.89l-1.73-1a.62.62,0,0,1-.29-.49.23.23,0,0,1,0-.13c-.07,0-.12.09-.12.2a.62.62,0,0,0,.29.49l1.73,1a.18.18,0,0,0,.26,0A.27.27,0,0,1,376.9,170.89Z"/><polygon class="cls-42" points="375.98 168.08 375.98 168.22 375.91 168.18 375.91 168.05 375.98 168.08"/><path class="cls-43" d="M382.56,180.87l.1.12-.1.25v-.07l-.14.08-.06,0a0,0,0,0,1,0,0l-.09-.13.33-.19Zm-.33.1a.54.54,0,0,0,0,.08v0l.19-.11.11-.28h-.19Zm.83-.61,0-.05-.19.09-.09.25.05-.06.16.24.09-.23a.21.21,0,0,0,0-.08.08.08,0,0,0,0-.05Zm-.35.48v.25l.21-.12.06-.06,0-.06-.1-.13Zm-.13-.63a.14.14,0,0,0-.06,0,.17.17,0,0,0,0,.06l-.07.18h-.05l.09.15.19-.13h-.05l.17-.42Zm.24-.12h0l-.1.24.12.16.18-.23-.11-.15Zm-1.05,1.5a.11.11,0,0,1,0-.09v-.2l0,0,0,0v.2a.27.27,0,0,1,0,.14.36.36,0,0,1-.1.11h0v0l.19-.11.19-.11v0h0S381.79,181.61,381.77,181.59Zm-.08-.32Zm-.25-.48v.34a.15.15,0,0,0,.08.15.17.17,0,0,0,.17,0,.59.59,0,0,0,.17-.18.49.49,0,0,0,.07-.24v-.34l-.24.14Zm-.5.6.34-.2-.17-.2Zm.13,0v.54l0,0,0,0v-.54l0,0Zm-.52.24.35-.2-.18-.2Zm.14,0v.53l0,0,0,0v-.54l0,0Zm-.08.69v0l.6-.34v-.09l-.6.34Zm-.88-.18a.23.23,0,0,1,.07-.07s.08,0,.08,0A.16.16,0,0,1,380,182c.05,0,.08,0,.08,0a.15.15,0,0,1,.08-.11c.05,0,.08,0,.08,0a.17.17,0,0,1,.09-.12s.08,0,.08,0a.14.14,0,0,1,.08-.11.06.06,0,0,1,.07,0C380.35,181.31,379.89,181.58,379.73,182.11Zm.5.39c-.08,0-.08,0-.08,0v-.54l0,0h0v.54s0,.13.13.05a.31.31,0,0,0,.12-.2l-.05,0A.17.17,0,0,1,380.23,182.5Z"/><polygon class="cls-44" points="372.98 178.15 372.98 179.51 377.35 182.02 377.35 180.67 372.98 178.15"/><path class="cls-43" d="M377.16,180.7v1.06l-.05,0v-1.06Zm-.15-.08v1l.05,0v-1.06Zm-.09-.05v1.05l.05,0V180.6Zm-.32-.19v1.05l0,0v-1.05Zm.12.08v1l.15.09v-1Zm-1.37-.79v1.05l.15.08v-1Zm1.08.62v1.05l.13.07v-1Zm-.17-.09v1l.13.07v-1ZM376,180v1.05l.11.06v-1Zm-1.13-.65v1l.11.06v-1Zm1.32.76v1l.08,0v-1Zm-1.46-.83v1l.08,0v-1Zm-.12-.07v1l.09.05v-1Zm-.18-.1v1l.08.05v-1.05Zm-.16-.1v1l.08,0v-1Zm-.12-.07v1l.08,0v-1Zm-.17-.09v1l.09,0v-1Zm1.33.75v1l.05,0v-1.05Zm-.1-.05v1.05l0,0v-1Zm-.09-.05v1l.05,0v-1.05Zm-.1-.06v1.05l0,0v-1.05Zm-1.33-.77v1l.05,0v-1Zm.2.12v1l.05,0v-1.05Zm-.41-.24v1.05l.05,0v-1Zm.11.06v1l0,0v-1Zm-.27-.16v1.06l.05,0v-1.06Zm-.09-.05v1.05l.05,0v-1.05Zm2.66,1.54V181l.05,0v-1Zm-.1,0v1l.05,0v-1Zm-.18-.11v1l.05,0v-1Z"/><polygon class="cls-45" points="388.84 180.72 379.17 186.31 386.19 190.36 395.86 184.78 388.84 180.72"/><polygon class="cls-45" points="383.52 188.82 381.94 187.9 391.52 182.27 393.13 183.2 383.52 188.82"/><polygon class="cls-45" points="382.65 188.31 392.32 182.73 392.39 182.77 382.72 188.35 382.65 188.31"/><path class="cls-45" d="M391.84,187.1l-1.61.93Z"/><path class="cls-45" d="M388.84,180.72h0a.16.16,0,0,0-.15,0h0L379,186.29l.15,0,9.45-5.46h0Z"/><path class="cls-45" d="M379.17,194.76l7,4.05c.12.07.22,0,.22-.13v-7.93a.49.49,0,0,0-.22-.39l-7-4.05c-.12-.07-.22,0-.22.13v7.94A.49.49,0,0,0,379.17,194.76Z"/><path class="cls-45" d="M379.14,186.43l7,4a.44.44,0,0,1,.19.23l.06,0a.49.49,0,0,0-.22-.39l-7-4.05c-.12-.07-.22,0-.22.13h0A.14.14,0,0,1,379.14,186.43Z"/><path class="cls-45" d="M386.35,190.71a.44.44,0,0,0-.19-.23l-7-4a.14.14,0,0,0-.19,0h0l7.46,4.31Z"/><polygon class="cls-45" points="383.52 188.82 383.52 190.31 381.94 189.1 381.94 187.9 383.52 188.82"/><polygon class="cls-45" points="396.08 185.16 386.41 190.75 386.41 198.68 396.08 193.1 396.08 185.16"/><path class="cls-45" d="M389.49,196.29l-.32.18.09.13,0,0a.08.08,0,0,0,.05,0l.14-.07v.06l.1-.24-.1-.12Z"/><path class="cls-45" d="M389.45,196.08l-.18,0-.1.27a.35.35,0,0,0,0,.07v0l.18-.1Z"/><path class="cls-45" d="M390,195.74l0-.06-.19.1-.08.23,0,0,.15.23.1-.22a.35.35,0,0,0,0-.07.15.15,0,0,0,0-.06Z"/><path class="cls-45" d="M389.63,196.2v.24l.21-.12a.2.2,0,0,0,.05,0,.21.21,0,0,0,0-.06l-.09-.13Z"/><path class="cls-45" d="M389.57,195.9h-.05l.16-.4-.17.1a.1.1,0,0,0-.05,0l0,.06-.06.17h-.05l.08.15Z"/><path class="cls-45" d="M389.9,195.64l-.11-.15h-.09l-.09.23.11.15Z"/><path class="cls-45" d="M388.72,196.93a.1.1,0,0,1,0-.09v-.2l0,0,0,0v.2a.27.27,0,0,1,0,.14.24.24,0,0,1-.1.1h0v0l.18-.1.19-.11v0h0S388.75,197,388.72,196.93Z"/><path class="cls-45" d="M388.41,196.16v.32c0,.07,0,.13.07.15a.16.16,0,0,0,.16,0,.42.42,0,0,0,.17-.18.43.43,0,0,0,.07-.23v-.33l-.24.14Z"/><polygon class="cls-45" points="387.92 196.73 388.25 196.54 388.08 196.34 387.92 196.73"/><polygon class="cls-45" points="388.12 196.68 388.08 196.7 388.05 196.72 388.05 197.24 388.08 197.22 388.12 197.2 388.12 196.68"/><polygon class="cls-45" points="387.71 196.56 387.55 196.95 387.88 196.75 387.71 196.56"/><polygon class="cls-45" points="387.68 197.46 387.71 197.44 387.75 197.41 387.75 196.89 387.71 196.91 387.68 196.93 387.68 197.46"/><polygon class="cls-45" points="387.6 197.6 387.6 197.65 388.18 197.31 388.18 197.27 388.18 197.23 387.6 197.56 387.6 197.6"/><path class="cls-45" d="M386.75,197.44a.14.14,0,0,1,.06-.07c.05,0,.08,0,.08,0a.15.15,0,0,1,.08-.11s.08,0,.08,0a.13.13,0,0,1,.08-.11s.08,0,.08,0a.13.13,0,0,1,.08-.11s.07,0,.07,0a.18.18,0,0,1,.08-.12h.07C387.35,196.66,386.91,196.92,386.75,197.44Z"/><path class="cls-45" d="M387.23,197.81c-.07,0-.07,0-.07,0v-.52l0,0h0v.52s0,.13.14.05a.31.31,0,0,0,.11-.19l-.05,0A.15.15,0,0,1,387.23,197.81Z"/><polygon class="cls-45" points="395.6 192.04 395.56 192.07 395.56 192.95 395.6 192.93 395.6 192.04"/><polygon class="cls-45" points="395.48 192.12 395.48 193 395.52 192.97 395.52 192.09 395.48 192.12"/><polygon class="cls-45" points="395.4 192.17 395.4 193.04 395.44 193.02 395.44 192.14 395.4 192.17"/><polygon class="cls-45" points="395.13 192.32 395.13 193.2 395.17 193.18 395.17 192.3 395.13 192.32"/><polygon class="cls-45" points="395.23 192.27 395.24 193.14 395.36 193.07 395.36 192.19 395.23 192.27"/><polygon class="cls-45" points="394.08 192.93 394.09 193.81 394.21 193.73 394.21 192.86 394.08 192.93"/><polygon class="cls-45" points="394.99 192.41 394.99 193.28 395.1 193.22 395.1 192.35 394.99 192.41"/><polygon class="cls-45" points="394.85 192.49 394.85 193.36 394.96 193.3 394.96 192.43 394.85 192.49"/><polygon class="cls-45" points="394.58 192.64 394.58 193.52 394.68 193.46 394.68 192.59 394.58 192.64"/><polygon class="cls-45" points="393.64 193.19 393.64 194.06 393.73 194.01 393.73 193.14 393.64 193.19"/><polygon class="cls-45" points="394.74 192.55 394.75 193.42 394.81 193.38 394.81 192.51 394.74 192.55"/><polygon class="cls-45" points="393.52 193.26 393.53 194.13 393.6 194.09 393.59 193.22 393.52 193.26"/><polygon class="cls-45" points="393.43 193.31 393.43 194.19 393.5 194.15 393.49 193.28 393.43 193.31"/><polygon class="cls-45" points="393.28 193.4 393.28 194.27 393.35 194.23 393.34 193.36 393.28 193.4"/><polygon class="cls-45" points="393.14 193.48 393.14 194.35 393.21 194.31 393.21 193.44 393.14 193.48"/><polygon class="cls-45" points="393.03 193.54 393.04 194.41 393.1 194.37 393.1 193.5 393.03 193.54"/><polygon class="cls-45" points="392.9 193.62 392.9 194.49 392.97 194.45 392.97 193.58 392.9 193.62"/><polygon class="cls-45" points="394.01 192.97 394.01 193.85 394.05 193.83 394.05 192.95 394.01 192.97"/><polygon class="cls-45" points="393.93 193.02 393.93 193.9 393.97 193.87 393.97 193 393.93 193.02"/><polygon class="cls-45" points="393.85 193.07 393.85 193.94 393.89 193.92 393.89 193.04 393.85 193.07"/><polygon class="cls-45" points="393.77 193.11 393.77 193.99 393.81 193.96 393.81 193.09 393.77 193.11"/><polygon class="cls-45" points="392.65 193.76 392.65 194.64 392.69 194.61 392.69 193.73 392.65 193.76"/><polygon class="cls-45" points="392.82 193.66 392.82 194.54 392.86 194.51 392.86 193.64 392.82 193.66"/><polygon class="cls-45" points="392.48 193.86 392.48 194.74 392.52 194.71 392.52 193.83 392.48 193.86"/><polygon class="cls-45" points="392.57 193.8 392.57 194.68 392.61 194.66 392.61 193.78 392.57 193.8"/><polygon class="cls-45" points="392.35 193.93 392.35 194.81 392.39 194.79 392.39 193.91 392.35 193.93"/><polygon class="cls-45" points="392.26 193.98 392.27 194.86 392.31 194.84 392.31 193.95 392.26 193.98"/><polygon class="cls-45" points="394.49 192.7 394.5 193.57 394.54 193.54 394.54 192.67 394.49 192.7"/><polygon class="cls-45" points="394.41 192.74 394.42 193.62 394.46 193.59 394.45 192.72 394.41 192.74"/><polygon class="cls-45" points="394.26 192.83 394.26 193.71 394.3 193.68 394.3 192.81 394.26 192.83"/><path class="cls-45" d="M386.41,198.68h0a.18.18,0,0,1-.06.15h0l9.66-5.58c.05,0,.07-.07.07-.15Z"/><polygon class="cls-45" points="381.94 188.16 383.52 189.07 383.52 188.95 381.94 188.04 381.94 188.16"/><path class="cls-45" d="M395.86,184.78l-1.08.62-8.59,5a.49.49,0,0,1,.22.39l4.08-2.36,5.59-3.23A.46.46,0,0,0,395.86,184.78Z"/><path class="cls-45" d="M383.62,190.76l-1.88-1.09c-.17-.1-.31,0-.31.18a.69.69,0,0,0,.31.54l1.88,1.09c.18.1.32,0,.32-.18A.68.68,0,0,0,383.62,190.76Z"/><path class="cls-45" d="M383.72,191.4l-1.88-1.09a.68.68,0,0,1-.32-.54.33.33,0,0,1,0-.14c-.08,0-.13.1-.13.22a.69.69,0,0,0,.31.54l1.88,1.09c.13.07.23.05.28,0A.26.26,0,0,1,383.72,191.4Z"/><polygon class="cls-45" points="382.72 188.35 382.72 188.5 382.65 188.46 382.65 188.31 382.72 188.35"/><polygon class="cls-45" points="385.28 189.28 386.26 189.85 389.9 187.74 388.92 187.18 385.28 189.28"/><path class="cls-45" d="M388.86,187.33l.77.44-.05,0-.76-.44Zm-.12.07.77.44,0,0-.77-.44Zm-.07,0,.76.43,0,0-.76-.44Zm-.27.15.76.44,0,0-.76-.43Zm.11-.06.75.44.13-.08-.76-.43Zm-1.14.66.75.44.13-.07-.76-.44Zm.9-.52.75.44.11-.06-.76-.44Zm-.14.09.75.43.11-.06-.76-.44Zm-.27.15.76.43.09,0-.76-.44Zm-.94.54.76.44.09-.06-.76-.43Zm1.1-.63.76.43.06,0-.75-.43Zm-1.21.7.75.43.07,0-.75-.43Zm-.1.06.75.43.07,0-.75-.43Zm-.15.08.76.44.06,0-.75-.44Zm-.13.08.75.43.07,0-.75-.43Zm-.11.06.76.43.06,0-.75-.43Zm-.13.08.75.43.07,0-.75-.43Zm1.09-.64.76.43,0,0-.75-.44Zm-.07,0,.75.44.05,0-.76-.44Zm-.08.05.76.44,0,0-.76-.43Zm-.08,0,.76.44,0,0-.76-.44Zm-1.11.65.76.44,0,0L386,189Zm.17-.1.75.44,0,0-.75-.43Zm-.34.2.75.43,0,0-.75-.44Zm.09-.06.76.44,0,0-.76-.44Zm-.23.13.76.44,0,0-.76-.44Zm-.08.05.76.44,0,0-.76-.44Zm2.22-1.28.76.43,0,0-.76-.43Zm-.08.05.76.43,0,0-.76-.44Zm-.15.09.75.43,0,0-.75-.44Z"/><polygon class="cls-46" points="396.24 188.91 386.58 194.41 386.58 191.02 396.24 185.51 396.24 188.91"/><polygon class="cls-46" points="386.26 179.65 379.37 183.57 379.4 176.56 386.28 172.63 386.26 179.65"/><polygon class="cls-47" points="387.36 173.11 397.03 178.69 390.01 182.74 380.34 177.16 387.36 173.11"/><polygon class="cls-17" points="392.68 181.2 394.26 180.28 384.68 174.65 383.07 175.58 392.68 181.2"/><path class="cls-48" d="M384.36,179.48l1.61.93Z"/><path class="cls-49" d="M387.36,173.11h0a.14.14,0,0,1,.15,0h0l9.68,5.59H397l-9.45-5.46h0Z"/><path class="cls-47" d="M397,187.14l-7,4.06c-.12.07-.22,0-.22-.13v-7.94a.51.51,0,0,1,.22-.39l7-4.05c.12-.07.22,0,.22.13v7.94A.49.49,0,0,1,397,187.14Z"/><path class="cls-41" d="M397.06,178.81l-7,4.05a.54.54,0,0,0-.19.23l-.06,0a.51.51,0,0,1,.22-.39l7-4.05c.12-.07.22,0,.22.13h0A.14.14,0,0,0,397.06,178.81Z"/><path class="cls-49" d="M389.85,183.09a.54.54,0,0,1,.19-.23l7-4.05a.14.14,0,0,1,.19,0h0l-7.46,4.31Z"/><polygon class="cls-17" points="392.68 181.2 392.68 182.69 394.26 181.49 394.26 180.28 392.68 181.2"/><polygon class="cls-17" points="380.12 177.54 389.79 183.13 389.79 191.07 380.12 185.48 380.12 177.54"/><path class="cls-17" d="M386.71,188.67l.32.18-.09.13a0,0,0,0,1,0,0h0l-.14-.08V189l-.1-.24.1-.12Z"/><path class="cls-17" d="M386.75,188.46h.18l.1.26a.56.56,0,0,1,0,.07v.06l-.18-.11Z"/><path class="cls-17" d="M386.23,188.12l-.05-.05.19.09.08.24,0-.06-.15.23-.09-.22a.2.2,0,0,1,0-.07.15.15,0,0,1,0-.06Z"/><path class="cls-17" d="M386.57,188.59v.23l-.21-.11s0,0-.05-.06l0-.05.09-.14Z"/><path class="cls-17" d="M386.63,188.28h.05l-.16-.4.17.1.06.05,0,.06.06.18h0l-.08.15Z"/><path class="cls-17" d="M386.31,188l.1-.14,0,0h.05l.09.23-.11.15Z"/><path class="cls-17" d="M387.48,189.31s0-.05,0-.09V189l0,0,0,0v.19a.27.27,0,0,0,0,.14.55.55,0,0,0,.1.11h0v0l-.18-.1-.19-.11v0h0S387.45,189.33,387.48,189.31Z"/><path class="cls-17" d="M387.79,188.54v.32a.18.18,0,0,1-.07.16.19.19,0,0,1-.16,0,.59.59,0,0,1-.17-.18.43.43,0,0,1-.07-.23v-.32l.24.13Z"/><polygon class="cls-17" points="388.28 189.11 387.95 188.92 388.12 188.72 388.28 189.11"/><polygon class="cls-17" points="388.08 189.06 388.12 189.08 388.15 189.1 388.15 189.62 388.12 189.6 388.08 189.58 388.08 189.06"/><polygon class="cls-17" points="388.49 188.94 388.65 189.33 388.32 189.14 388.49 188.94"/><polygon class="cls-17" points="388.53 189.84 388.49 189.82 388.45 189.8 388.45 189.27 388.49 189.29 388.53 189.32 388.53 189.84"/><polygon class="cls-17" points="388.6 189.99 388.6 190.03 388.02 189.69 388.02 189.65 388.02 189.61 388.6 189.94 388.6 189.99"/><path class="cls-17" d="M389.45,189.82a.13.13,0,0,0-.06-.07c-.05,0-.08,0-.08,0a.15.15,0,0,0-.08-.11s-.08,0-.08,0a.13.13,0,0,0-.08-.11s-.08,0-.08,0a.14.14,0,0,0-.07-.11c-.05,0-.08,0-.08,0a.15.15,0,0,0-.08-.11.06.06,0,0,0-.07,0C388.85,189,389.29,189.3,389.45,189.82Z"/><path class="cls-17" d="M389,190.19c.08.05.08,0,.08,0v-.53l0,0h0v.53s0,.12-.13,0a.27.27,0,0,1-.12-.19l.06,0A.13.13,0,0,0,389,190.19Z"/><polygon class="cls-17" points="380.6 184.43 380.64 184.45 380.64 185.33 380.6 185.31 380.6 184.43"/><polygon class="cls-17" points="380.72 184.5 380.72 185.38 380.68 185.36 380.68 184.47 380.72 184.5"/><polygon class="cls-17" points="380.8 184.55 380.8 185.43 380.76 185.4 380.76 184.53 380.8 184.55"/><polygon class="cls-17" points="381.07 184.71 381.07 185.58 381.03 185.56 381.03 184.68 381.07 184.71"/><polygon class="cls-17" points="380.97 184.65 380.96 185.52 380.84 185.45 380.84 184.58 380.97 184.65"/><polygon class="cls-17" points="382.12 185.31 382.11 186.19 381.99 186.11 381.99 185.24 382.12 185.31"/><polygon class="cls-17" points="381.21 184.79 381.21 185.66 381.1 185.6 381.1 184.73 381.21 184.79"/><polygon class="cls-17" points="381.35 184.87 381.35 185.75 381.24 185.68 381.25 184.81 381.35 184.87"/><polygon class="cls-17" points="381.62 185.03 381.62 185.9 381.52 185.84 381.52 184.97 381.62 185.03"/><polygon class="cls-17" points="382.56 185.57 382.56 186.45 382.47 186.39 382.47 185.52 382.56 185.57"/><polygon class="cls-17" points="381.46 184.93 381.46 185.81 381.39 185.77 381.39 184.89 381.46 184.93"/><polygon class="cls-17" points="382.68 185.64 382.68 186.51 382.61 186.47 382.61 185.6 382.68 185.64"/><polygon class="cls-17" points="382.78 185.7 382.77 186.57 382.71 186.53 382.71 185.66 382.78 185.7"/><polygon class="cls-17" points="382.93 185.78 382.92 186.66 382.86 186.62 382.86 185.74 382.93 185.78"/><polygon class="cls-17" points="383.06 185.86 383.06 186.73 382.99 186.69 382.99 185.82 383.06 185.86"/><polygon class="cls-17" points="383.17 185.92 383.17 186.8 383.1 186.76 383.1 185.88 383.17 185.92"/><polygon class="cls-17" points="383.3 186 383.3 186.88 383.23 186.84 383.23 185.96 383.3 186"/><polygon class="cls-17" points="382.19 185.35 382.19 186.23 382.15 186.21 382.15 185.33 382.19 185.35"/><polygon class="cls-17" points="382.27 185.4 382.27 186.28 382.23 186.25 382.23 185.38 382.27 185.4"/><polygon class="cls-17" points="382.35 185.45 382.35 186.32 382.31 186.3 382.31 185.43 382.35 185.45"/><polygon class="cls-17" points="382.43 185.49 382.43 186.37 382.39 186.35 382.39 185.47 382.43 185.49"/><polygon class="cls-17" points="383.55 186.14 383.55 187.02 383.51 186.99 383.51 186.12 383.55 186.14"/><polygon class="cls-17" points="383.38 186.04 383.38 186.92 383.34 186.9 383.34 186.02 383.38 186.04"/><polygon class="cls-17" points="383.72 186.24 383.72 187.12 383.68 187.09 383.68 186.22 383.72 186.24"/><polygon class="cls-17" points="383.63 186.19 383.63 187.06 383.59 187.04 383.59 186.16 383.63 186.19"/><polygon class="cls-17" points="383.86 186.31 383.86 187.19 383.81 187.17 383.81 186.29 383.86 186.31"/><polygon class="cls-17" points="383.94 186.36 383.94 187.24 383.89 187.22 383.89 186.33 383.94 186.36"/><polygon class="cls-17" points="381.71 185.08 381.71 185.95 381.67 185.93 381.67 185.05 381.71 185.08"/><polygon class="cls-17" points="381.79 185.13 381.79 186 381.75 185.97 381.75 185.1 381.79 185.13"/><polygon class="cls-17" points="381.94 185.22 381.94 186.09 381.9 186.06 381.9 185.19 381.94 185.22"/><path class="cls-41" d="M389.79,191.07h0a.16.16,0,0,0,.06.14h0l-9.66-5.58c-.05,0-.07-.07-.07-.15Z"/><polygon class="cls-42" points="394.26 180.54 392.68 181.46 392.68 181.34 394.26 180.42 394.26 180.54"/><path class="cls-49" d="M380.34,177.16l1.08.63,8.59,5a.51.51,0,0,0-.22.39l-4.08-2.35-5.59-3.24A.49.49,0,0,1,380.34,177.16Z"/><path class="cls-49" d="M392.58,183.14l1.88-1.09c.17-.1.31,0,.31.18a.69.69,0,0,1-.31.54l-1.88,1.09c-.18.1-.32,0-.32-.18A.68.68,0,0,1,392.58,183.14Z"/><path class="cls-17" d="M392.48,183.79l1.88-1.09a.69.69,0,0,0,.32-.54.33.33,0,0,0,0-.15c.08,0,.13.1.13.22a.69.69,0,0,1-.31.54l-1.88,1.09c-.13.07-.23,0-.28,0A.25.25,0,0,0,392.48,183.79Z"/><polygon class="cls-42" points="393.48 180.74 393.49 180.88 393.55 180.84 393.55 180.7 393.48 180.74"/><path class="cls-17" d="M390,188.91v9.65L401.51,192v-9.73Zm4,4v-3l3.31-1.91v3Zm3.31-1.46v2.46l-3.31,1.91v-2.46Zm-3.31-2V187l3.31-1.91v2.42Zm7.06-4.08-3.37,1.95V184.9l3.37-2Zm0,3.42-3.37,2v-3l3.37-2Zm0,2.91-3.37,2v-2.47l3.37-1.94Zm-10.71,3.72,3.26-1.88V196l-3.26,1.89Zm0-3.41,3.26-1.89v3L390.41,195Zm0-2.87,3.26-1.89v2.43l-3.26,1.88Z"/><polygon class="cls-17" points="397.37 185.12 397.37 187.54 394.06 189.45 394.06 189.06 397.06 187.33 397.06 185.3 397.37 185.12"/><polygon class="cls-17" points="401.2 182.06 401.2 182.46 390.02 188.91 389.71 188.7 401.2 182.06"/><polygon class="cls-17" points="401.12 191.7 397.75 193.65 397.75 193.25 400.81 191.49 400.81 189.42 401.12 189.24 401.12 191.7"/><polygon class="cls-17" points="401.12 188.79 397.75 190.74 397.75 190.34 400.81 188.58 400.81 186 401.12 185.82 401.12 188.79"/><polygon class="cls-17" points="401.12 182.95 401.12 185.38 397.75 187.32 397.75 186.93 400.81 185.16 400.81 183.13 401.12 182.95"/><polygon class="cls-17" points="397.37 190.96 394.06 192.87 394.06 192.47 397.06 190.75 397.06 188.17 397.37 187.99 397.37 190.96"/><polygon class="cls-17" points="397.37 193.87 394.06 195.78 394.06 195.38 397.06 193.66 397.06 191.59 397.37 191.41 397.37 193.87"/><polygon class="cls-17" points="393.67 193.09 390.41 194.97 390.41 194.58 393.36 192.88 393.36 190.3 393.67 190.13 393.67 193.09"/><polygon class="cls-17" points="393.68 196 390.41 197.89 390.41 197.49 393.36 195.79 393.36 193.72 393.68 193.54 393.68 196"/><polygon class="cls-17" points="393.67 187.25 393.67 189.68 390.41 191.56 390.41 191.16 393.36 189.46 393.36 187.43 393.67 187.25"/><path class="cls-17" d="M389.27,200a1.05,1.05,0,0,0,.3-.15h0a1.09,1.09,0,0,0,.35-.52,1.79,1.79,0,0,0,.1-.64v-.14l.39-.22v.22a1.4,1.4,0,0,1-.45,1.15,2.45,2.45,0,0,1-.72.31Z"/><path class="cls-17" d="M396.61,195a.76.76,0,0,0,.23-.3l.51-.29a1.3,1.3,0,0,1-.45,1.05,1.13,1.13,0,0,1-1.14.08l-.23-.09.53-.3a.85.85,0,0,0,.55-.15Z"/><path class="cls-17" d="M397.35,194.38l.4-.23a1.33,1.33,0,0,1-.45,1.06,3.31,3.31,0,0,1-.5.29h0l.1-.07a1.33,1.33,0,0,0,.45-1.05Z"/><path class="cls-17" d="M396.61,195a.85.85,0,0,1-.55.15l.78-.45a.76.76,0,0,1-.23.3Z"/><path class="cls-17" d="M392.92,197.08a.81.81,0,0,0,.23-.31l.51-.29a1.34,1.34,0,0,1-.45,1.06,1.13,1.13,0,0,1-1.14.07l-.23-.09.53-.3a.79.79,0,0,0,.55-.14Z"/><path class="cls-17" d="M393.66,196.48l.4-.22a1.33,1.33,0,0,1-.45,1.05,3.79,3.79,0,0,1-.5.3h0l.1-.07a1.34,1.34,0,0,0,.45-1.06Z"/><path class="cls-17" d="M392.92,197.08a.79.79,0,0,1-.55.14l.78-.45a.81.81,0,0,1-.23.31Z"/><path class="cls-17" d="M400.37,192.83a1,1,0,0,0,.23-.3l.51-.29a1.33,1.33,0,0,1-.45,1,1.11,1.11,0,0,1-1.14.07l-.23-.09.53-.3a.79.79,0,0,0,.55-.14Z"/><path class="cls-17" d="M401.11,192.24l.4-.23a1.33,1.33,0,0,1-.45,1.05,3.79,3.79,0,0,1-.5.3h0l.1-.07a1.33,1.33,0,0,0,.45-1Z"/><path class="cls-17" d="M400.37,192.83a.79.79,0,0,1-.55.14l.78-.44a1,1,0,0,1-.23.3Z"/><polygon class="cls-17" points="388.02 213.17 372.21 204.05 373 203.59 388.81 212.71 388.02 213.17"/><polygon class="cls-17" points="388.81 212.73 400.31 205.99 400.31 206.83 388.81 213.57 388.81 212.73"/><polygon class="cls-17" points="388.81 212.73 400.31 205.99 399.57 205.57 388.07 212.31 388.81 212.73"/><path class="cls-17" d="M386.79,213.11a8.66,8.66,0,0,0,.5,2,17.58,17.58,0,0,0,1.6,2.74,2.73,2.73,0,0,0,.32-.15c.22-.18-.49-.81-.85-2.36a6.55,6.55,0,0,1-.17-1.46Z"/><path class="cls-17" d="M386.62,213.21a8.31,8.31,0,0,0,.51,2c.44,1.2,1.65,2.82,1.91,2.6s-.49-.82-.85-2.36A7.32,7.32,0,0,1,388,214Z"/><path class="cls-17" d="M367.91,202.41a2.58,2.58,0,0,1-1-1.15,2.44,2.44,0,0,1,.05-2.1l3.23-6.51,6.14,2.45-4.16,9L388,213.17V214l-20.11-11.61Zm7.27-6.91-4.45-1.79-3.06,6.18a1.54,1.54,0,0,0-.11,1.26.91.91,0,0,0,.34.41l3.52,2Z"/><path class="cls-17" d="M370,203.62a4.3,4.3,0,0,1-.57,1.41c-.44.69-1.66.9-1.91.39s.48-.26.85-1.38a5,5,0,0,0,.17-1.27Z"/><path class="cls-17" d="M369.8,203.5a3.78,3.78,0,0,1-.51,1.45c-.44.68-1.66.9-1.91.38s.48-.25.85-1.37a5.07,5.07,0,0,0,.17-1.27Z"/><path class="cls-17" d="M387.93,219.41c.77.45,1.4.09,1.4-.81a3.1,3.1,0,0,0-1.4-2.42c-.77-.45-1.4-.08-1.4.81a3.09,3.09,0,0,0,1.4,2.42Z"/><path class="cls-17" d="M387.93,218.73c.45.26.81.05.81-.47a1.79,1.79,0,0,0-.81-1.4c-.45-.26-.81-.05-.81.47a1.78,1.78,0,0,0,.81,1.4Z"/><path class="cls-17" d="M387.65,216.76c-.21.05-.35.25-.35.57a1.78,1.78,0,0,0,.81,1.4.68.68,0,0,0,.28.1.64.64,0,0,1-.46-.1,1.78,1.78,0,0,1-.81-1.4c0-.41.22-.62.53-.57Z"/><path class="cls-17" d="M387.93,218.36c.27.15.49,0,.49-.28a1.1,1.1,0,0,0-.49-.85c-.27-.15-.49,0-.49.29a1.08,1.08,0,0,0,.49.84Z"/><path class="cls-17" d="M389.33,218.6a3.1,3.1,0,0,0-1.4-2.42,1,1,0,0,0-1-.1l.69-.4a1,1,0,0,1,1,.1,3.06,3.06,0,0,1,1.4,2.42,1,1,0,0,1-.41.9l-.7.41h0a1,1,0,0,0,.41-.91Z"/><path class="cls-49" d="M366.86,207.25c.77.45,1.4.08,1.4-.81a3.1,3.1,0,0,0-1.4-2.42c-.77-.45-1.4-.09-1.4.81a3.1,3.1,0,0,0,1.4,2.42Z"/><path class="cls-17" d="M366.86,206.57c.45.26.81.05.81-.47a1.79,1.79,0,0,0-.81-1.4c-.45-.26-.81,0-.81.47a1.79,1.79,0,0,0,.81,1.4Z"/><path class="cls-17" d="M366.58,204.6c-.21,0-.35.25-.35.57a1.79,1.79,0,0,0,.81,1.4.68.68,0,0,0,.28.1.64.64,0,0,1-.46-.1,1.79,1.79,0,0,1-.81-1.4c0-.41.22-.62.53-.57Z"/><path class="cls-17" d="M366.86,206.2c.27.15.49,0,.49-.28a1.1,1.1,0,0,0-.49-.85c-.27-.15-.49,0-.49.28a1.1,1.1,0,0,0,.49.85Z"/><path class="cls-17" d="M368.26,206.44a3.1,3.1,0,0,0-1.4-2.42.93.93,0,0,0-1-.1l.69-.4a1,1,0,0,1,1,.09A3.1,3.1,0,0,1,369,206a1,1,0,0,1-.41.9l-.7.41h0a1,1,0,0,0,.41-.91Z"/><polygon class="cls-17" points="376.37 195.1 376.86 195.3 373 203.59 372.21 204.05 376.37 195.1"/><polygon class="cls-17" points="388.02 213.17 388.81 212.71 388.81 213.56 388.02 214.02 388.02 213.17"/><polygon class="cls-17" points="368.69 201.1 371.75 202.87 371.42 203.59 367.9 201.56 368.69 201.1"/><path class="cls-17" d="M367.52,200.28a2.08,2.08,0,0,1,.15-.39l3.06-6.18.47.19-2.74,5.53a1.87,1.87,0,0,0-.16.47,1.31,1.31,0,0,0,.05.79.91.91,0,0,0,.34.41l-.79.46a.91.91,0,0,1-.34-.41,1.34,1.34,0,0,1,0-.87Z"/><polygon class="cls-17" points="372.4 189.17 372.67 189.32 373.49 193.1 374.22 193.39 374.3 193.82 373.32 193.43 372.4 189.17"/><polygon class="cls-17" points="370.89 188.37 371.18 188.52 372.11 192.55 372.84 192.84 372.93 193.27 371.94 192.88 370.89 188.37"/><polygon class="cls-17" points="373.89 189.97 374.15 190.11 374.86 193.65 375.59 193.94 375.66 194.37 374.68 193.97 373.89 189.97"/><polygon class="cls-17" points="377.16 182.99 378.19 183.66 378.25 184.14 376.99 183.32 376.48 179.77 376.73 179.94 377.16 182.99"/><path class="cls-17" d="M364.74,170.9l5.49,21.75,18.19,7.28a1.15,1.15,0,0,0,1.15-.07,1.43,1.43,0,0,0,.45-1.16V189Zm24.89,27-1.34-.72,0-2.56,1.36.83Zm0-2.9-1.36-.83,0-3.05,1.38.91Zm-15.9-13.37,1.28.83.65,4.05-1.18-.72Zm.35,3.91-1.21-.73-.84-4.3,1.3.85Zm1.33-2.82,1.26.83.56,3.91-1.17-.71Zm1.65,1.09,1.25.81.47,3.78-1.16-.7Zm1.64,1.07,1.23.8.39,3.66-1.15-.7Zm1.62,1.06,1.22.79.31,3.54-1.14-.69Zm1.61,1.05,1.2.79.23,3.41-1.13-.69Zm1.59,1,1.2.78.15,3.3-1.12-.68Zm1.58,1,1.19.78.09,3.18-1.12-.68Zm1.29,4.42.08,2.73-1.05-.56-.14-2.84Zm-1.36,2-1-.56-.2-3,1.12.67Zm-1.43-.77-1.05-.56-.27-3.14,1.12.68Zm-1.44-.76-1.05-.57-.35-3.29,1.13.68Zm-1.44-.77-1.06-.56-.43-3.46,1.14.69Zm-1.44-.77-1.07-.57-.52-3.62,1.15.7Zm-1.46-.78-1.07-.57-.61-3.78,1.16.7Zm-1.46-.77-1.08-.58-.71-4,1.17.72Zm-1.47-.79-1.1-.58-.81-4.14,1.19.73Zm-1.49-.79-1.11-.59-.93-4.32,1.22.74Zm-2.15-5.43-.95-4.44,1.32.87.86,4.32Zm-.4-.24-1.24-.76-1.07-4.59,1.35.89Zm-2.44-5.88-1-4.47,1.48,1.06.93,4.3Zm.85-3.12,1.45,1,.81,4.11-1.34-.87Zm1.86,1.33,1.41,1,.71,3.93-1.32-.86Zm1.81,1.3,1.39,1,.61,3.75-1.29-.84Zm1.79,1.28,1.36,1,.52,3.58-1.27-.83Zm1.76,1.27,1.34.95.43,3.42-1.26-.82Zm1.74,1.24,1.31.94.35,3.26-1.24-.81Zm1.71,1.22,1.3.94.27,3.1-1.23-.81Zm1.69,1.22,1.28.92.2,2.94-1.21-.79Zm1.67,1.19,1.27.91.13,2.81-1.2-.79Zm1.66,1.19,1.26.9.07,2.66-1.2-.78Zm1.64,1.18,1.25.89,0,2.52-1.2-.78Zm1.27,3.87,0,3.07-1.12-.68-.08-3.17Zm0,6.1-1-.56-.07-2.69,1.1.67Zm0,.45,0,1.84-1-.4-.06-2Zm-1.36,1.29-1-.4-.1-2.2,1,.55Zm-1.38-.55-1-.39-.16-2.42,1,.56Zm-1.36-.55-1-.39-.23-2.63,1,.56Zm-1.36-.54-1-.39-.3-2.85,1,.56Zm-1.36-.54-1-.39-.39-3.07,1,.55Zm-1.35-.55-1-.39-.48-3.29,1.06.56Zm-1.35-.54-1-.39-.57-3.53,1.06.57Zm-1.36-.54-1-.39-.67-3.77,1.07.58Zm-1.36-.54-1-.4-.79-4,1.09.58Zm-1.36-.55-1-.39-.92-4.26,1.1.59Zm-1.37-.55-1-.39-1.05-4.51L372,189Zm-2.15-5.41-1-4.5,1.23.75.94,4.35Zm-.4-.21-1.25-.67-1.22-4.73,1.41.86Zm-3.83-10.71,1.58,1,1.07,4.62-1.42-.87Zm-1.36-5.27,1.76,1.27,1.05,4.5-1.59-1Zm24.44,17.52v2.4l-1.39-.91v-2.5Zm-.36,10.2a.9.9,0,0,1-.91.06l-.06,0v-1.79l1.34.71v.13a1.12,1.12,0,0,1-.36.91Zm-20-11.89,1.23.66,1.06,4.56-1.06-.42Z"/><polygon class="cls-17" points="376.14 187.26 376.39 187.41 376.92 190.71 377.76 191.16 377.82 191.62 376.75 191.04 376.14 187.26"/><polygon class="cls-17" points="377.79 187.38 378.72 187.95 378.78 188.41 377.62 187.71 377.06 183.82 377.3 183.97 377.79 187.38"/><polygon class="cls-17" points="374.57 186.3 374.82 186.46 375.45 189.93 376.29 190.38 376.36 190.84 375.28 190.26 374.57 186.3"/><polygon class="cls-17" points="380.76 190.07 380.98 190.2 381.28 193.04 382.13 193.49 382.16 193.93 381.11 193.37 380.76 190.07"/><polygon class="cls-17" points="377.69 188.2 377.93 188.35 378.38 191.49 379.22 191.94 379.28 192.39 378.21 191.82 377.69 188.2"/><polygon class="cls-17" points="379.23 189.14 379.46 189.28 379.84 192.27 380.68 192.72 380.72 193.16 379.67 192.59 379.23 189.14"/><polygon class="cls-17" points="371.42 183.51 372.38 184.09 372.48 184.58 371.25 183.84 370.3 179.39 370.58 179.58 371.42 183.51"/><polygon class="cls-17" points="374.65 185.47 375.58 186.04 375.66 186.52 374.48 185.8 373.73 181.63 373.99 181.81 374.65 185.47"/><polygon class="cls-17" points="373.05 184.49 373.99 185.07 374.08 185.55 372.88 184.82 372.02 180.52 372.3 180.7 373.05 184.49"/><polygon class="cls-17" points="382.27 190.99 382.49 191.12 382.72 193.8 383.57 194.26 383.6 194.69 382.55 194.13 382.27 190.99"/><polygon class="cls-17" points="369.73 183.36 370.02 183.53 370.95 187.53 371.8 187.98 371.9 188.46 370.77 187.86 369.73 183.36"/><polygon class="cls-17" points="369.78 182.5 370.74 183.09 370.85 183.59 369.61 182.83 368.54 178.24 368.83 178.43 369.78 182.5"/><polygon class="cls-17" points="371.36 184.35 371.64 184.52 372.46 188.34 373.31 188.79 373.4 189.26 372.29 188.67 371.36 184.35"/><polygon class="cls-17" points="372.98 185.33 373.24 185.5 373.96 189.14 374.8 189.59 374.89 190.05 373.79 189.47 372.98 185.33"/><polygon class="cls-17" points="388.23 188.18 388.4 188.31 388.41 190.35 389.63 191.15 389.63 191.59 388.24 190.68 388.23 188.18"/><path class="cls-17" d="M389.27,199.39a.9.9,0,0,1-.91.06l-.06,0v-1.79l.17.09v1.37l.07,0a.91.91,0,0,0,.9-.05.8.8,0,0,0,.13-.13.86.86,0,0,1-.3.45Z"/><polygon class="cls-17" points="382.23 190.51 381.93 187 382.14 187.14 382.4 190.19 383.33 190.75 383.36 191.2 382.23 190.51"/><polygon class="cls-17" points="388.27 194.63 388.44 194.74 388.46 196.86 389.63 197.49 389.63 197.91 388.29 197.19 388.27 194.63"/><polygon class="cls-17" points="388.25 191.13 388.42 191.24 388.44 193.85 389.63 194.58 389.63 195.01 388.26 194.18 388.25 191.13"/><polygon class="cls-17" points="386.86 196.88 387.05 196.98 387.09 198.54 387.91 198.87 387.92 199.27 386.92 198.87 386.86 196.88"/><polygon class="cls-17" points="385.1 189.07 385.3 189.2 385.43 192.03 386.37 192.59 386.38 193.03 385.26 192.35 385.1 189.07"/><polygon class="cls-17" points="383.52 188.04 383.72 188.17 383.92 191.11 384.85 191.67 384.88 192.12 383.75 191.44 383.52 188.04"/><polygon class="cls-17" points="385.28 192.82 385.48 192.94 385.59 195.33 386.45 195.79 386.47 196.22 385.42 195.66 385.28 192.82"/><polygon class="cls-17" points="386.68 190.1 386.86 190.22 386.94 192.94 387.88 193.51 387.88 193.95 386.76 193.27 386.68 190.1"/><polygon class="cls-17" points="385.44 196.12 385.63 196.22 385.72 198 386.52 198.32 386.54 198.72 385.55 198.32 385.44 196.12"/><polygon class="cls-17" points="386.78 193.73 386.96 193.84 387.02 196.09 387.9 196.56 387.9 196.98 386.85 196.42 386.78 193.73"/><polygon class="cls-17" points="376.23 186.43 377.16 187 377.23 187.47 376.06 186.76 375.41 182.73 375.66 182.9 376.23 186.43"/><polygon class="cls-17" points="379.34 188.32 380.27 188.89 380.32 189.35 379.17 188.65 378.7 184.89 378.93 185.04 379.34 188.32"/><polygon class="cls-17" points="375.5 181.9 376.53 182.57 376.6 183.06 375.32 182.23 374.72 178.5 374.98 178.69 375.5 181.9"/><polygon class="cls-17" points="378.81 184.07 379.83 184.73 379.88 185.21 378.64 184.4 378.22 181.01 378.45 181.18 378.81 184.07"/><polygon class="cls-17" points="366.42 176.27 366.73 176.09 367.88 176.91 368 177.44 366.41 176.4 366.42 176.27"/><polygon class="cls-17" points="370.36 178.54 371.42 179.24 371.52 179.74 370.18 178.87 369.26 174.59 369.55 174.8 370.36 178.54"/><polygon class="cls-17" points="372.09 179.68 373.14 180.36 373.24 180.86 371.92 180 371.12 175.92 371.39 176.12 372.09 179.68"/><polygon class="cls-17" points="368.58 177.38 369.67 178.09 369.78 178.6 368.41 177.71 367.37 173.24 367.67 173.45 368.58 177.38"/><polygon class="cls-17" points="386.84 189.32 387.85 189.98 387.86 190.42 386.67 189.64 386.59 187.01 386.78 187.14 386.84 189.32"/><polygon class="cls-17" points="390.02 189.01 365.05 171.12 364.91 170.57 390.19 188.69 390.02 189.01"/><polygon class="cls-17" points="385.25 188.28 386.27 188.94 386.28 189.39 385.08 188.61 384.95 185.83 385.14 185.97 385.25 188.28"/><polygon class="cls-17" points="383.66 187.24 384.67 187.9 384.69 188.36 383.49 187.57 383.29 184.65 383.5 184.79 383.66 187.24"/><polygon class="cls-17" points="382.06 186.19 383.07 186.85 383.1 187.31 381.89 186.52 381.62 183.45 381.83 183.6 382.06 186.19"/><polygon class="cls-17" points="380.44 185.13 381.46 185.8 381.5 186.26 380.27 185.46 379.93 182.23 380.15 182.39 380.44 185.13"/><polygon class="cls-17" points="373.81 180.8 374.85 181.48 374.93 181.97 373.64 181.13 372.94 177.22 373.2 177.41 373.81 180.8"/><polygon class="cls-17" points="382.59 194.6 382.8 194.71 382.99 196.9 383.77 197.22 383.8 197.62 382.82 197.23 382.59 194.6"/><polygon class="cls-17" points="381.16 193.84 381.38 193.96 381.63 196.36 382.4 196.67 382.44 197.08 381.46 196.69 381.16 193.84"/><polygon class="cls-17" points="379.73 193.07 379.95 193.2 380.28 195.82 381.04 196.12 381.08 196.54 380.11 196.15 379.73 193.07"/><polygon class="cls-17" points="378.28 192.31 378.52 192.43 378.93 195.28 379.68 195.58 379.73 196 378.75 195.6 378.28 192.31"/><polygon class="cls-17" points="380.88 189.26 381.81 189.82 381.85 190.28 380.71 189.59 380.32 185.95 380.54 186.09 380.88 189.26"/><polygon class="cls-17" points="384.02 195.36 384.22 195.47 384.35 197.45 385.14 197.77 385.16 198.17 384.18 197.78 384.02 195.36"/><polygon class="cls-17" points="383.78 191.91 383.98 192.03 384.16 194.57 385.01 195.03 385.03 195.46 383.99 194.9 383.78 191.91"/><polygon class="cls-17" points="376.83 191.53 377.08 191.66 377.57 194.74 378.31 195.03 378.38 195.45 377.4 195.06 376.83 191.53"/><polygon class="cls-17" points="369.42 186.84 370.3 187.33 370.38 187.65 369.13 186.98 369.42 186.84"/><polygon class="cls-17" points="368.03 181.41 369.08 182.07 369.2 182.59 368.11 181.93 367.77 181.72 367.74 181.57 368.03 181.41"/><polygon class="cls-17" points="375.37 190.75 375.62 190.89 376.22 194.19 376.95 194.49 377.02 194.91 376.05 194.52 375.37 190.75"/><path class="cls-17" d="M364.38,169.66a2.26,2.26,0,0,0-.25-.58,2.11,2.11,0,0,0-.39-.49l-.47-.41.2-.09.57.5a2.11,2.11,0,0,1,.39.49,2.26,2.26,0,0,1,.25.58l5.84,22.21,4.05,1.63.21.51-4.48-1.81Z"/><path class="cls-17" d="M365.35,169.86a5.93,5.93,0,0,0-.58-1.08,4.78,4.78,0,0,0-.8-.87l-.51-.46.19-.1.62.56a4.41,4.41,0,0,1,.79.87,5.42,5.42,0,0,1,.59,1.08l10.1,24.72-.27.29Z"/><path class="cls-17" d="M364.13,169.08a2.26,2.26,0,0,1,.25.58l5.92,22.54,4.48,1.81L365,169.91a4.32,4.32,0,0,0-.48-.9,4.15,4.15,0,0,0-.66-.72l-.48-.43.06-.41.51.46a4.78,4.78,0,0,1,.8.87,5.93,5.93,0,0,1,.58,1.08l10.13,25-5.54-2.22L364,169.6a1.19,1.19,0,0,0-.15-.35,1.33,1.33,0,0,0-.23-.3l-.4-.45,0-.32.47.41a2.11,2.11,0,0,1,.39.49Z"/><polygon class="cls-17" points="387.83 199.69 382.94 197.73 387.29 200.23 388.13 199.87 387.83 199.69"/><path class="cls-50" d="M310.87,277.05A15.78,15.78,0,0,1,309,277a10.66,10.66,0,0,1-3.06-.81,4.4,4.4,0,0,1-2-1.68,4,4,0,0,1,0-4c.65-1.15,2.47-3.08,7.29-3.1h.05a8.51,8.51,0,0,1,5.19,1.54,4.74,4.74,0,0,1,2,3.44.14.14,0,0,1-.14.15.13.13,0,0,1-.15-.13,4.47,4.47,0,0,0-1.92-3.22,8.2,8.2,0,0,0-5-1.49h-.05c-4.67,0-6.42,1.86-7,3a3.74,3.74,0,0,0,0,3.73,4.1,4.1,0,0,0,1.9,1.56,10.2,10.2,0,0,0,3,.79c3.43.41,7.11-.41,8.58-1.91a3.53,3.53,0,0,0,.65-3.92c-.7-1.69-2.82-3.7-6.49-3.75-5.54-.08-10.18,1.92-13.9,3.52a26.43,26.43,0,0,1-4.61,1.7c-.47.1-.75.26-.78.44-.06.34.59.83.83,1a.14.14,0,0,1,0,.2.15.15,0,0,1-.2,0c-.11-.07-1.06-.68-1-1.27.06-.32.39-.54,1-.67a26.91,26.91,0,0,0,4.55-1.68,56.28,56.28,0,0,1,6.29-2.4,25.4,25.4,0,0,1,7.73-1.15,8.35,8.35,0,0,1,4.36,1.21,6,6,0,0,1,2.4,2.72,3.8,3.8,0,0,1-.71,4.23,7.45,7.45,0,0,1-3.79,1.77A15.47,15.47,0,0,1,310.87,277.05Z"/><path class="cls-50" d="M309.9,277.37a11.51,11.51,0,0,1-3.51-.53,4.61,4.61,0,0,1-3.36-3.9,4.92,4.92,0,0,1,.65-3,7.08,7.08,0,0,1,2.66-2.6,11.78,11.78,0,0,1,3.75-1.32,18.1,18.1,0,0,1,5.05-.37A9.6,9.6,0,0,1,319,266.9a.14.14,0,0,1,.06.19.14.14,0,0,1-.2.06c-2.58-1.37-4.62-1.56-8.7-.82a11.37,11.37,0,0,0-3.66,1.29c-2.17,1.26-3.39,3.29-3.17,5.29a4.32,4.32,0,0,0,3.16,3.65A12,12,0,0,0,316.7,275a3.29,3.29,0,0,0,1.55-2.7.15.15,0,0,1,.14-.16.15.15,0,0,1,.15.14,3.54,3.54,0,0,1-1.66,2.95,10.85,10.85,0,0,1-4.75,1.92A13.08,13.08,0,0,1,309.9,277.37Z"/><path class="cls-50" d="M318.25,272.52h.29v-.2h0a2.3,2.3,0,0,0,0-.26h-.29a2.4,2.4,0,0,1,0,.28v.19Z"/><path class="cls-51" d="M297.49,271.33v1.31c0,.06-.05.11-.16.14h0l0,0h0v0a.09.09,0,0,0,0-.05h0V271.4s0,0,0,0,0,0,0-.06v-.11l0,0v0l0,0h0l0,0,0,0,0-.05-.08-.09-.12-.14-.2-.22-.31-.35-.25-.29-.13-.14-.06-.07,0,0,0,0h0l0,0h0l0,0h0c.22.26.45.51.67.76l.66.75,0,0v0l0,0v0h0v.08Z"/><path class="cls-51" d="M297.38,271.44v1.23h0a.09.09,0,0,1,0,.05v0h0l0,0h0l-2.71.8h0v0a.06.06,0,0,1,0,0v0h0v-1.31a.13.13,0,0,1,0-.06V272l0,0V272l0,0,0,0h0l0,0,0,0-.05-.05-.07-.09h0l.1,0,0,0,0,0h0s0,0,0-.06v0l-.15-.38v0l0,0h0l0,0,0,0,0,0h-.09l-.32.09-.1-.12-.25-.28-.12-.14-.07-.07,0,0v0h0v0s0,0,0,0h0l2.72-.79h.08l0,0,0,0,.06.07.13.14.25.29.31.35.2.22.12.14.08.09,0,.05,0,0,0,0h0l0,0v0l0,0v.11s0,0,0,.06,0,0,0,0Z"/><path class="cls-51" d="M294.9,270.85v7.46c0,.35-.28.64-.89.83l.06,0a.38.38,0,0,0,.09-.09l0-.09,0-.11a1.93,1.93,0,0,0,0-.27v-.07h0v-7a1.41,1.41,0,0,0,0-.2c0-.1,0-.2,0-.3s0-.21-.07-.32a1.09,1.09,0,0,0,0-.17l-.06-.17c0-.06,0-.12-.07-.19l-.07-.14a.91.91,0,0,0-.07-.14l-.09-.16-.13-.17h0l0,0,0,0,0,0-.07-.07-.11-.13-.17-.19-.27-.31c-.15-.17-.3-.33-.44-.5s-.47-.53-.71-.8l-1.12-1.27-1.8-2-1.44-1.63-.72-.81-.36-.41-.18-.2-.09-.1,0-.06h0l0,0-.05-.05-.1-.08-.13-.06h-.1a1.35,1.35,0,0,1,.29,0,.82.82,0,0,1,.31,0,1,1,0,0,1,.23.08.65.65,0,0,1,.16.09,1.33,1.33,0,0,1,.19.14l.09.1,3.81,4.31,3.81,4.32.08.1a.55.55,0,0,1,.09.14l.08.14.06.15,0,.07v.07h0v0a.85.85,0,0,1,0,.17.88.88,0,0,1,0,.16A.92.92,0,0,1,294.9,270.85Z"/><path class="cls-51" d="M294.27,271.44v7h0v.07a1.93,1.93,0,0,1,0,.27l0,.11,0,.09a.38.38,0,0,1-.09.09l-.06,0-15.54,4.58,0,0a.2.2,0,0,0,.09-.09,1.55,1.55,0,0,0,.08-.2,1.12,1.12,0,0,0,0-.27v-.07h0v-7a1.48,1.48,0,0,0,0-.21c0-.1,0-.2,0-.3s-.05-.21-.07-.32a.84.84,0,0,1-.05-.17l-.06-.16a1.08,1.08,0,0,0-.08-.19l-.06-.15s-.05-.09-.07-.14l-.1-.16-.13-.17h0l0,0,0,0,0-.05a.46.46,0,0,0-.07-.07l-.1-.12-.17-.2a4.12,4.12,0,0,1-.28-.31c-.15-.16-.29-.33-.44-.5l0-.05.57-.17a.89.89,0,0,0,.26-.12.41.41,0,0,0,.16-.16l0,0a.51.51,0,0,0,.05-.32.75.75,0,0,0,0-.16l-.81-2.21,0-.09-.06-.12a1,1,0,0,0-.12-.16l-.07-.09-.14-.12a1.18,1.18,0,0,0-.19-.11,1,1,0,0,0-.3-.09,1.06,1.06,0,0,0-.25,0l-.24,0h0l-1.79.53-.58-.66L271.83,267l-.72-.82-.36-.41-.18-.2-.09-.1-.05,0h0l0,0,0-.05a.39.39,0,0,0-.1-.08.31.31,0,0,0-.12-.05H270l15.55-4.57h.11l.13.06.1.08.05.05,0,0h0l0,.06.09.1.18.2.36.41.72.81,1.44,1.63,1.8,2,1.12,1.27c.24.27.47.54.71.8s.29.33.44.5l.27.31.17.19.11.13.07.07,0,0,0,0,0,0h0l.13.17.09.16a.91.91,0,0,1,.07.14l.07.14c0,.07,0,.13.07.19l.06.17a1.09,1.09,0,0,1,0,.17c0,.11.05.21.07.32s0,.2,0,.3A1.41,1.41,0,0,1,294.27,271.44Z"/><path class="cls-51" d="M276.85,272.67l0,.05c.15.17.29.34.44.5a4.12,4.12,0,0,0,.28.31l.17.2.1.12a.46.46,0,0,1,.07.07l0,.05,0,0,0,0h0l.13.17.1.16c0,.05,0,.09.07.14l.06.15a1.08,1.08,0,0,1,.08.19l.06.16a.84.84,0,0,0,.05.17c0,.11.05.22.07.32s0,.2,0,.3a1.48,1.48,0,0,1,0,.21v7h0v.07a1.12,1.12,0,0,1,0,.27,1.55,1.55,0,0,1-.08.2.2.2,0,0,1-.09.09l0,0a1.54,1.54,0,0,1-.3,0,1,1,0,0,1-.3,0l-.2-.06-.21-.11-.19-.15-.09-.1-.78-.88h0l-.31-.35h0l0-.07a.59.59,0,0,1,0-.08h0a.73.73,0,0,1-.06-.3l-6.82-11v-4.22a.81.81,0,0,1,0-.16.5.5,0,0,1,0-.12,1.6,1.6,0,0,1,.05-.21l.08-.18a1.25,1.25,0,0,1,.16-.22,1,1,0,0,1,.26-.23,1.23,1.23,0,0,1,.31-.14h.12a.31.31,0,0,1,.12.05.39.39,0,0,1,.1.08l0,.05,0,0h0l.05,0,.09.1.18.2.36.41.72.82,1.44,1.63.58.66Z"/><path class="cls-52" d="M269.25,270.63V266.7s0,0,0,0v0h0l0,0h.07l0,0h0l.05.05.09.11.18.2.36.41.72.81c.45.52.9,1,1.36,1.54l3.78,4.29.36.41c.09.1.18.21.28.31l.17.19.1.12.07.08,0,.05,0,0,0,0h0l0,0,0,0,0,0v0l0,0s0,0,0,0v0s0,0,0,.07,0,.05,0,.07v7.08h0v0a.13.13,0,0,1,0,.06v0l0,0s0,0,0,0h0l0,0H277l0,0,0,0-.05,0-.07-.09-.12-.13-.2-.22-.31-.36-.25-.28Z"/><path class="cls-51" d="M277.86,272.19l0,0a.41.41,0,0,1-.16.16.89.89,0,0,1-.26.12l0-.1,0-.08h0v0l0-.1-.3-.8-.47-1.28-.09-.25-.05-.12,0-.06,0-.06v0h0a1,1,0,0,0-.06-.16,1.19,1.19,0,0,0-.08-.16l-.08-.13L276,269l-.08-.09-.08-.08-.07-.05-.08,0h-.08l.24,0a1.06,1.06,0,0,1,.25,0,1,1,0,0,1,.3.09,1.18,1.18,0,0,1,.19.11l.14.12.07.09a1,1,0,0,1,.12.16l.06.12,0,.09.81,2.21a.75.75,0,0,1,0,.16A.51.51,0,0,1,277.86,272.19Z"/><path class="cls-51" d="M277.42,272.5l-.57.17a.59.59,0,0,0-.14.06l-.13.07a1.1,1.1,0,0,0-.21.22l-.14.19-.1.19c0,.06-.05.11-.07.17l-.06.15h0l0,0s0,.06,0,.09a1.36,1.36,0,0,0,0,.2v7.58a.73.73,0,0,0,.06.3h0a.59.59,0,0,0,0,.08l0,.07h0l.31.35h-.07l-7.88,2.32h0l1-.44c.12-.06.19-.25.19-.54v-8.21a3,3,0,0,0-.19-1c-.33-.91-.67-1.81-1-2.72-.21-.55-.5-.9-.71-.84l1.35-.39.13,0,.49-.15,2-.57.46-.14.53-.15,1-.29.18-.05,1.79-.53h.09l.08,0,.07.05.08.08.08.09.07.11.08.13a1.19,1.19,0,0,1,.08.16,1,1,0,0,1,.06.16h0v0l0,.06,0,.06.05.12.09.25.47,1.28.3.8,0,.1v0h0l0,.08Z"/><path class="cls-52" d="M269.67,275.59v8.21c0,.29-.07.48-.19.54l-1,.44h0c-.2.06-.5-.29-.7-.84l-1-2.83a2.75,2.75,0,0,1-.16-.85v-8.22c0-.29.07-.48.19-.54l1-.44h0c.21-.06.5.29.71.84.33.91.67,1.81,1,2.72A3,3,0,0,1,269.67,275.59Z"/><path class="cls-52" d="M264,276c0,.22-.05.35-.14.38l-2.68.79h0a1.07,1.07,0,0,1-.25,0,.75.75,0,0,1-.26-.05.46.46,0,0,1-.16-.07l-.09-.06-.08-.06,0-.05h0l0,0,0-.06,0-.05,0-.05,0,0a.19.19,0,0,1,0-.07s0,0,0,0a.13.13,0,0,1,0-.06v-.05a.13.13,0,0,1,0-.06s0-.05,0-.07v-.07a.19.19,0,0,1,0-.08s0,0,0-.07l0-.09a.61.61,0,0,1,.07-.14.82.82,0,0,1,.19-.22.85.85,0,0,1,.3-.15h0l2.67-.79q.11,0,.24.12A2,2,0,0,1,264,276Z"/><path class="cls-51" d="M268.5,274.68c0,.23-.06.36-.15.39l-1.8.53-2.73.8c.1,0,.15-.16.15-.38a2,2,0,0,0-.39-1.15q-.13-.15-.24-.12l2.26-.67.95-.27,1.32-.39q.11,0,.24.12A2,2,0,0,1,268.5,274.68Z"/><path class="cls-52" d="M264,283.38c0,.22-.05.36-.14.38l-1.72.51-1,.28h0a.72.72,0,0,1-.25,0,.75.75,0,0,1-.26,0l-.16-.07-.09-.06-.08-.07s0,0,0,0h0v0l0,0a.2.2,0,0,1-.06-.09l0,0,0,0a.08.08,0,0,1,0,0l0-.07s0,0,0-.06v-.05a.13.13,0,0,1,0-.06.15.15,0,0,0,0-.07v-.08a.25.25,0,0,1,0-.08s0,0,0-.06l0-.09a1,1,0,0,1,.07-.15,1.3,1.3,0,0,1,.19-.22,1.05,1.05,0,0,1,.3-.15h0l2.67-.78c.07,0,.15,0,.24.12A1.93,1.93,0,0,1,264,283.38Z"/><path class="cls-51" d="M268.5,282.05c0,.22-.06.36-.15.38l-1.05.31-3.48,1c.1,0,.15-.16.15-.38a1.93,1.93,0,0,0-.39-1.14c-.09-.11-.17-.14-.24-.12l3.37-1,1.16-.34c.07,0,.15,0,.24.13A1.93,1.93,0,0,1,268.5,282.05Z"/><path class="cls-51" d="M322.76,268.68l-.78,1.63a.51.51,0,0,1-.18.2h0s0-.06,0-.11l.78-1.63a.4.4,0,0,1,.18-.2h0S322.79,268.62,322.76,268.68Z"/><path class="cls-51" d="M321.76,270.51l-2.44-1.87s0-.06,0-.11l2.44,1.87C321.74,270.45,321.74,270.49,321.76,270.51Z"/><polygon class="cls-51" points="322.55 268.77 321.77 270.4 319.33 268.53 319.6 267.97 319.64 267.89 319.82 267.5 319.92 267.3 319.93 267.28 320.11 266.9 322.55 268.77"/><path class="cls-51" d="M322.73,268.57a.4.4,0,0,0-.18.2l-2.44-1.87a.59.59,0,0,1,.18-.2Z"/><path class="cls-51" d="M322.77,268.57h0l-2.44-1.87h0Z"/><path class="cls-51" d="M323.46,269.7l-.5,1.05,0,.05-.08,0a.1.1,0,0,0,.06-.05l.5-1a.19.19,0,0,0-.05-.21l-.8-.61.07,0,0,0,.76.58A.19.19,0,0,1,323.46,269.7Z"/><path class="cls-51" d="M323.39,269.73l-.5,1a.1.1,0,0,1-.06.05s-.07,0-.11,0l-.72-.55-.08-.06.62-1.29.8.61A.19.19,0,0,1,323.39,269.73Z"/><path class="cls-51" d="M323.35,269.71c-.17.34-.33.68-.49,1a.08.08,0,0,1-.13,0l-.25-.19a.11.11,0,0,1,0-.15c.16-.35.33-.69.49-1a.09.09,0,0,1,.13,0l.25.19A.16.16,0,0,1,323.35,269.71Z"/><path class="cls-51" d="M322.83,270.68s0,0-.05,0l-.27-.21a.06.06,0,0,1,0-.07s0,0,.06,0l.26.21S322.84,270.66,322.83,270.68Z"/><path class="cls-51" d="M322.9,270.54a0,0,0,0,1-.06,0l-.26-.2a.05.05,0,0,1,0-.07s0,0,.05,0l.27.2A.07.07,0,0,1,322.9,270.54Z"/><path class="cls-51" d="M323,270.4s0,0-.06,0l-.27-.2a.07.07,0,0,1,0-.07,0,0,0,0,1,.06,0l.27.2A.07.07,0,0,1,323,270.4Z"/><path class="cls-51" d="M323,270.26s0,0-.06,0l-.26-.2a.07.07,0,0,1,0-.07,0,0,0,0,1,.06,0l.26.2A.07.07,0,0,1,323,270.26Z"/><path class="cls-51" d="M323.1,270.13s0,0-.06,0l-.27-.21s0-.05,0-.07,0,0,.05,0l.27.21A.06.06,0,0,1,323.1,270.13Z"/><path class="cls-51" d="M323.16,270s0,0-.05,0l-.27-.21a.06.06,0,0,1,0-.07s0,0,.06,0l.26.21S323.17,270,323.16,270Z"/><path class="cls-51" d="M323.23,269.85a0,0,0,0,1-.06,0l-.26-.2a.07.07,0,0,1,0-.07s0,0,.06,0l.26.21A.06.06,0,0,1,323.23,269.85Z"/><path class="cls-51" d="M323.3,269.71a0,0,0,0,1-.06,0l-.27-.2a.07.07,0,0,1,0-.07,0,0,0,0,1,.06,0l.27.2A.07.07,0,0,1,323.3,269.71Z"/><path class="cls-51" d="M319.64,267.9l0,.07-.87-.68s0,0,0-.09Z"/><polygon class="cls-51" points="319.82 267.5 319.64 267.89 318.74 267.2 318.92 266.81 319.82 267.5"/><path class="cls-51" d="M319.92,267.3l-.1.2-.9-.69a.39.39,0,0,1,.15-.16Z"/><path class="cls-51" d="M319.93,267.28v0l-.85-.65h0Z"/><path class="cls-16" d="M176.31,137A101.44,101.44,0,0,1,212,97.48"/><polygon class="cls-17" points="211.52 102.75 210.54 102.52 211.66 97.72 206.78 96.96 206.94 95.97 212.87 96.9 211.52 102.75"/><path class="cls-16" d="M250.85,282.3a100.75,100.75,0,0,1-52.92-25.64"/><polygon class="cls-17" points="203.14 255.74 203.17 256.74 198.24 256.88 198.74 261.79 197.75 261.89 197.14 255.91 203.14 255.74"/><path class="cls-16" d="M352.82,237.6A101.38,101.38,0,0,1,328,262.82"/><polygon class="cls-17" points="328.28 257.55 329.26 257.74 328.33 262.58 333.22 263.16 333.11 264.15 327.14 263.45 328.28 257.55"/><path class="cls-16" d="M281.84,82.66a100.5,100.5,0,0,1,47.57,20.82"/><polygon class="cls-17" points="324.28 104.75 324.18 103.75 329.09 103.27 328.25 98.41 329.24 98.24 330.25 104.16 324.28 104.75"/><polygon class="cls-53" points="356.27 86.45 311.2 60.4 311.2 39.62 356.27 65.67 356.27 86.45"/><polygon class="cls-54" points="373.58 55.51 328.48 29.5 311.18 39.45 356.28 65.46 373.58 55.51"/><polygon class="cls-53" points="373.69 76.64 356.42 86.6 356.42 65.52 373.69 55.57 373.69 76.64"/><path class="cls-55" d="M373.39,58.48,357.88,67S367.09,78,369,83.38c1.76,5,1.17,14.92,1.17,14.92l14.93-8.5S388,62.87,373.39,58.48Z"/><path class="cls-54" d="M382.47,69,369,76.65a31.89,31.89,0,0,1,2.05,10.24l13.47-7.61S383.35,70.21,382.47,69Z"/><polygon class="cls-56" points="381.88 86.89 374.86 90.69 374.86 88.65 381.88 84.84 381.88 86.89"/><ellipse class="cls-56" cx="362.12" cy="92.59" rx="1.65" ry="2.4" transform="translate(-7.93 145.21) rotate(-22.44)"/><polygon class="cls-57" points="356.42 90.36 312.51 64.31 312.51 61.39 356.42 86.85 356.42 90.36"/><polygon class="cls-58" points="360.22 88.35 356.42 90.4 356.42 86.6 360.22 84.55 360.22 88.35"/><path class="cls-59" d="M357.88,67l.29,21.36s4.1.88,5.86,2.64,2.05,5.27,2.05,5.27l4.09,2S372.52,71.38,357.88,67Z"/><ellipse class="cls-56" cx="319.2" cy="68.44" rx="1.65" ry="2.4" transform="translate(-1.96 127) rotate(-22.44)"/><ellipse class="cls-56" cx="325.24" cy="71.61" rx="1.65" ry="2.4" transform="translate(-2.71 129.54) rotate(-22.44)"/><text class="cls-2" transform="translate(339.7 113.93)">T<tspan class="cls-60" x="5.06" y="0">R</tspan><tspan x="10.46" y="0">ANS</tspan><tspan class="cls-61" x="27.81" y="0">P</tspan><tspan x="32.6" y="0">O</tspan><tspan class="cls-62" x="39.27" y="0">R</tspan><tspan x="44.21" y="0">T</tspan></text><path class="cls-16" d="M247,296s-64.63,30.11-139.85,6.21"/><polygon class="cls-17" points="111.51 299.24 111.95 300.14 107.52 302.31 110 306.57 109.14 307.07 106.11 301.88 111.51 299.24"/><path class="cls-16" d="M348,120.33a101.73,101.73,0,0,1,18.14,30.36"/><polygon class="cls-17" points="361.05 149.12 361.48 148.21 365.93 150.34 367.73 145.75 368.66 146.12 366.47 151.71 361.05 149.12"/><polygon class="cls-63" points="259.59 264.64 258.75 266.63 259.38 266.46 259.25 268.22 260.02 265.94 259.38 266.09 259.59 264.64"/><polygon class="cls-63" points="252.56 267.12 254.21 268.52 253.57 268.65 254.48 270.17 252.76 268.47 253.4 268.32 252.56 267.12"/><polygon class="cls-63" points="249.54 273.18 251.68 272.88 251.35 273.44 253.09 273.77 250.68 273.93 251 273.35 249.54 273.18"/><line class="cls-64" x1="86.08" y1="77.84" x2="121.76" y2="98.44"/><polygon class="cls-64" points="100.73 74.66 88.81 81.54 86.89 80.42 98.81 73.54 100.73 74.66"/><polygon class="cls-64" points="124.8 88.56 112.88 95.44 110.95 94.31 122.87 87.43 124.8 88.56"/><polygon class="cls-64" points="119.99 85.78 108.07 92.66 106.14 91.53 118.06 84.65 119.99 85.78"/><polygon class="cls-64" points="115.17 83 103.25 89.88 101.33 88.75 113.25 81.88 115.17 83"/><polygon class="cls-64" points="110.36 80.22 98.44 87.1 96.51 85.98 108.43 79.1 110.36 80.22"/><polygon class="cls-64" points="105.55 77.44 93.63 84.32 91.7 83.2 103.62 76.32 105.55 77.44"/><polygon class="cls-64" points="129.61 91.34 117.69 98.22 115.77 97.09 127.69 90.21 129.61 91.34"/><line class="cls-64" x1="89.47" y1="70.29" x2="129.96" y2="93.67"/><polygon class="cls-64" points="95.91 71.89 83.99 78.77 82.06 77.64 93.98 70.76 95.91 71.89"/><path class="cls-59" d="M118.12,61.85c-2.15-3.7-9.28-10.43-12.56-12.72-5.74-4-23.41-15-27.24-14.54-3.74,1.75-11,14.88-14.13,18-4.06,4.08-9.11,8.22-11,13.9-1.53,4.49-1.93,12.69,6,16.57,14.08,6.89,27.54,3.66,27.65,4.18-.24-4-.1-18.58-.41-20.42,4.69-2.86,18.24-11,19.92-11,1,0,1,13.28,1,17.39,0,3.48,6.31.86,8.68-.51C118.58,71.16,121.16,67.84,118.12,61.85Z"/><path class="cls-65" d="M118.12,61.85c-2.15-3.7-9.28-10.43-12.56-12.72-5.74-4-23.41-15-27.24-14.54-3.74,1.75,26.31,21.2,28,21.2,1,0,1,13.28,1,17.39,0,3.48,6.31.86,8.68-.51C118.58,71.16,121.16,67.84,118.12,61.85Z"/><polygon class="cls-53" points="108.27 76.08 106.31 75.01 106.31 55.79 108.27 56.86 108.27 76.08"/><polygon class="cls-53" points="87.69 88.11 85.73 87.04 85.73 67.83 87.69 68.89 87.69 88.11"/><polygon class="cls-53" points="84.85 66.14 84.85 68.24 88.4 70.37 88.4 68.19 84.85 66.14"/><polygon class="cls-54" points="88.56 68.07 85.01 66 105.54 54.18 109.09 56.25 88.56 68.07"/><polygon class="cls-53" points="88.53 70.37 88.53 68 108.92 56.09 108.92 58.61 88.53 70.37"/><polygon class="cls-66" points="107.71 79.52 100.82 83.59 95.82 73.09 106.47 66.83 107.71 79.52"/><polygon class="cls-66" points="119.93 86.55 108.03 79.66 106.15 66.83 121.28 75.57 119.93 86.55"/><polygon class="cls-66" points="119.93 86.86 113.04 90.93 110.54 81.86 121.28 75.64 119.93 86.86"/><path class="cls-59" d="M98.92,74.71c.26-.75,1.85-1.65,2.51-2a13.08,13.08,0,0,1,3.15-1,11.85,11.85,0,0,1,4.11-.27c2.24.38,4,2.48,5.43,4.13.58.7,1.93,2.56,3,2.12a33.44,33.44,0,0,1-6.5,3.72C110.2,81.5,99,74.87,98.92,74.71Z"/><polygon class="cls-66" points="112.85 90.86 100.96 83.98 95.95 73.02 110.45 81.45 112.85 90.86"/><ellipse class="cls-56" cx="103.06" cy="86.9" rx="1.05" ry="1.52" transform="translate(-25.36 45.91) rotate(-22.44)"/><ellipse class="cls-56" cx="108.47" cy="89.77" rx="1.05" ry="1.52" transform="translate(-26.05 48.19) rotate(-22.44)"/></g></g></svg>